<svg width="20" height="12" viewBox="0 0 20 12" fill="none" xmlns="http://www.w3.org/2000/svg">
<path d="M5.65593 7.94002L4.24644 10.6506C4.15351 10.8364 4.169 11.0688 4.3084 11.2391C4.4478 11.4095 4.66464 11.4715 4.866 11.394L19.5959 6.48406C19.8128 6.42211 19.9522 6.22075 19.9676 5.98842C19.9676 5.77158 19.8282 5.57022 19.6114 5.47729L5.05186 0.396939C4.866 0.334983 4.64915 0.365962 4.49426 0.520851L4.46329 0.551829C4.32389 0.722206 4.29291 0.93905 4.38584 1.12492L5.88826 4.14525H1.11769C0.83889 4.14525 0.59107 4.39307 0.59107 4.67187L0.606557 7.4134C0.606557 7.6922 0.854379 7.94002 1.13318 7.94002L5.65593 7.94002ZM1.64431 5.22947L6.75564 5.22946C6.91053 5.22946 7.03444 5.16751 7.12737 5.07458C7.15835 5.0436 7.18933 5.01262 7.20482 4.96616C7.29775 4.81127 7.31324 4.60991 7.2203 4.45502L5.90375 1.8374L17.7837 5.97293L5.76435 10L6.95699 7.66122C7.03444 7.49084 7.03444 7.30497 6.9415 7.15009C6.84857 6.9952 6.67819 6.88677 6.49233 6.88677L1.62882 6.88677L1.64431 5.22947Z" fill="#E8BE38"/>
</svg>
