<svg width="23" height="39" viewBox="0 0 23 39" fill="none" xmlns="http://www.w3.org/2000/svg">
<path id="Vector" d="M7.30356 10.3119L1.88245 7.49288C1.51072 7.30702 1.04605 7.33799 0.705299 7.61679C0.364543 7.89559 0.240633 8.32928 0.395523 8.73199L10.2155 38.1918C10.3394 38.6255 10.7421 38.9043 11.2068 38.9353C11.6404 38.9353 12.0432 38.6565 12.229 38.2228L22.3897 9.10373C22.5136 8.73199 22.4517 8.29831 22.1419 7.98853L22.0799 7.92657C21.7392 7.64777 21.3055 7.58582 20.9338 7.77169L14.8931 10.7765V1.23538C14.8931 0.677781 14.3975 0.182139 13.8399 0.182139L8.3568 0.213115C7.7992 0.213113 7.30356 0.708758 7.30356 1.26636L7.30356 10.3119ZM12.7247 2.28863L12.7247 12.5113C12.7247 12.8211 12.8486 13.0689 13.0344 13.2547C13.0964 13.3167 13.1584 13.3787 13.2513 13.4096C13.5611 13.5955 13.9638 13.6265 14.2736 13.4406L19.5088 10.8075L11.2377 34.5674L3.18352 10.5287L7.86116 12.914C8.20191 13.0689 8.57365 13.0689 8.88342 12.883C9.1932 12.6971 9.41005 12.3564 9.41004 11.9847L9.41005 2.25765L12.7247 2.28863Z" fill="#E8BE38"/>
</svg>
