<svg width="14" height="10" viewBox="0 0 14 10" fill="none" xmlns="http://www.w3.org/2000/svg">
<path d="M4.44119 7.35454L3.50154 9.16158C3.43958 9.28549 3.4499 9.44038 3.54284 9.55396C3.63577 9.66755 3.78033 9.70885 3.91457 9.65722L13.7345 6.38391C13.8791 6.3426 13.972 6.20837 13.9823 6.05348C13.9823 5.90892 13.8894 5.77468 13.7448 5.71272L4.03848 2.32582C3.91457 2.28452 3.77001 2.30517 3.66675 2.40843L3.6461 2.42908C3.55316 2.54267 3.53251 2.68723 3.59447 2.81114L4.59608 4.8247L1.4157 4.8247C1.22983 4.8247 1.06462 4.98991 1.06462 5.17578L1.07494 7.00346C1.07494 7.18933 1.24016 7.35454 1.42603 7.35454L4.44119 7.35454ZM1.76678 5.54751L5.17433 5.54751C5.27759 5.54751 5.3602 5.50621 5.42215 5.44425C5.44281 5.4236 5.46346 5.40295 5.47378 5.37197C5.53574 5.26871 5.54607 5.13447 5.48411 5.03121L4.60641 3.28613L12.5264 6.04315L4.51347 8.72789L5.30857 7.16868C5.3602 7.05509 5.3602 6.93118 5.29824 6.82792C5.23629 6.72466 5.1227 6.65238 4.99879 6.65238L1.75646 6.65238L1.76678 5.54751Z" fill="#0A3231"/>
<path d="M4.44119 7.35454L3.50154 9.16158C3.43958 9.28549 3.4499 9.44038 3.54284 9.55396C3.63577 9.66755 3.78033 9.70885 3.91457 9.65722L13.7345 6.38391C13.8791 6.3426 13.972 6.20837 13.9823 6.05348C13.9823 5.90892 13.8894 5.77468 13.7448 5.71272L4.03848 2.32582C3.91457 2.28452 3.77001 2.30517 3.66675 2.40843L3.6461 2.42908C3.55316 2.54267 3.53251 2.68723 3.59447 2.81114L4.59608 4.8247L1.4157 4.8247C1.22983 4.8247 1.06462 4.98991 1.06462 5.17578L1.07494 7.00346C1.07494 7.18933 1.24016 7.35454 1.42603 7.35454L4.44119 7.35454ZM1.76678 5.54751L5.17433 5.54751C5.27759 5.54751 5.3602 5.50621 5.42215 5.44425C5.44281 5.4236 5.46346 5.40295 5.47378 5.37197C5.53574 5.26871 5.54607 5.13447 5.48411 5.03121L4.60641 3.28613L12.5264 6.04315L4.51347 8.72789L5.30857 7.16868C5.3602 7.05509 5.3602 6.93118 5.29824 6.82792C5.23629 6.72466 5.1227 6.65238 4.99879 6.65238L1.75646 6.65238L1.76678 5.54751Z" fill="black" fill-opacity="0.2"/>
<path d="M4.44119 7.35454L3.50154 9.16158C3.43958 9.28549 3.4499 9.44038 3.54284 9.55396C3.63577 9.66755 3.78033 9.70885 3.91457 9.65722L13.7345 6.38391C13.8791 6.3426 13.972 6.20837 13.9823 6.05348C13.9823 5.90892 13.8894 5.77468 13.7448 5.71272L4.03848 2.32582C3.91457 2.28452 3.77001 2.30517 3.66675 2.40843L3.6461 2.42908C3.55316 2.54267 3.53251 2.68723 3.59447 2.81114L4.59608 4.8247L1.4157 4.8247C1.22983 4.8247 1.06462 4.98991 1.06462 5.17578L1.07494 7.00346C1.07494 7.18933 1.24016 7.35454 1.42603 7.35454L4.44119 7.35454ZM1.76678 5.54751L5.17433 5.54751C5.27759 5.54751 5.3602 5.50621 5.42215 5.44425C5.44281 5.4236 5.46346 5.40295 5.47378 5.37197C5.53574 5.26871 5.54607 5.13447 5.48411 5.03121L4.60641 3.28613L12.5264 6.04315L4.51347 8.72789L5.30857 7.16868C5.3602 7.05509 5.3602 6.93118 5.29824 6.82792C5.23629 6.72466 5.1227 6.65238 4.99879 6.65238L1.75646 6.65238L1.76678 5.54751Z" fill="black" fill-opacity="0.2"/>
<path d="M4.44119 7.35454L3.50154 9.16158C3.43958 9.28549 3.4499 9.44038 3.54284 9.55396C3.63577 9.66755 3.78033 9.70885 3.91457 9.65722L13.7345 6.38391C13.8791 6.3426 13.972 6.20837 13.9823 6.05348C13.9823 5.90892 13.8894 5.77468 13.7448 5.71272L4.03848 2.32582C3.91457 2.28452 3.77001 2.30517 3.66675 2.40843L3.6461 2.42908C3.55316 2.54267 3.53251 2.68723 3.59447 2.81114L4.59608 4.8247L1.4157 4.8247C1.22983 4.8247 1.06462 4.98991 1.06462 5.17578L1.07494 7.00346C1.07494 7.18933 1.24016 7.35454 1.42603 7.35454L4.44119 7.35454ZM1.76678 5.54751L5.17433 5.54751C5.27759 5.54751 5.3602 5.50621 5.42215 5.44425C5.44281 5.4236 5.46346 5.40295 5.47378 5.37197C5.53574 5.26871 5.54607 5.13447 5.48411 5.03121L4.60641 3.28613L12.5264 6.04315L4.51347 8.72789L5.30857 7.16868C5.3602 7.05509 5.3602 6.93118 5.29824 6.82792C5.23629 6.72466 5.1227 6.65238 4.99879 6.65238L1.75646 6.65238L1.76678 5.54751Z" fill="black" fill-opacity="0.2"/>
</svg>
