<svg width="50" height="50" viewBox="0 0 50 50" fill="none" xmlns="http://www.w3.org/2000/svg">
<rect x="0.5" y="0.5" width="49" height="49" rx="4.5" stroke="#197D7F"/>
<path d="M26.9385 41.0992H11.9095C11.3813 41.0992 10.8747 40.8894 10.5013 40.5159C10.1278 40.1424 9.91797 39.6359 9.91797 39.1077V13.2532C9.91797 12.725 10.1278 12.2185 10.5013 11.845C10.8747 11.4715 11.3813 11.2617 11.9095 11.2617H19.2595C19.3523 11.2617 19.4413 11.2986 19.507 11.3642C19.5726 11.4299 19.6095 11.5189 19.6095 11.6117V13.6452H22.6335V11.6117C22.6335 11.5189 22.6703 11.4299 22.736 11.3642C22.8016 11.2986 22.8906 11.2617 22.9835 11.2617H30.3335C30.862 11.2617 31.3689 11.4714 31.7429 11.8448C32.1169 12.2182 32.3275 12.7247 32.3285 13.2532V23.7532C32.3285 23.846 32.2916 23.9351 32.226 24.0007C32.1603 24.0663 32.0713 24.1032 31.9785 24.1032H26.9385C26.8554 24.1032 26.7732 24.1196 26.6966 24.1515C26.6199 24.1834 26.5503 24.2301 26.4917 24.289C26.4332 24.3478 26.3869 24.4177 26.3554 24.4946C26.324 24.5714 26.308 24.6537 26.3085 24.7367V39.7692C26.3085 39.9363 26.3748 40.0965 26.493 40.2147C26.6111 40.3328 26.7714 40.3992 26.9385 40.3992C27.0313 40.3992 27.1203 40.4361 27.186 40.5017C27.2516 40.5674 27.2885 40.6564 27.2885 40.7492C27.2885 40.842 27.2516 40.9311 27.186 40.9967C27.1203 41.0623 27.0313 41.0992 26.9385 41.0992ZM11.9095 11.9617C11.5672 11.9626 11.2393 12.099 10.9973 12.341C10.7553 12.583 10.6189 12.911 10.618 13.2532V39.1077C10.6189 39.45 10.7553 39.7779 10.9973 40.0199C11.2393 40.2619 11.5672 40.3983 11.9095 40.3992H25.766C25.6619 40.2056 25.6078 39.989 25.6085 39.7692V24.7507C25.6085 24.3977 25.7485 24.059 25.9978 23.809C26.2471 23.559 26.5854 23.4181 26.9385 23.4172H31.611V13.2672C31.61 12.9244 31.4732 12.5959 31.2304 12.3538C30.9877 12.1117 30.6588 11.9757 30.316 11.9757H23.316V14.0092C23.316 14.102 23.2791 14.1911 23.2135 14.2567C23.1478 14.3223 23.0588 14.3592 22.966 14.3592H19.2525C19.1596 14.3592 19.0706 14.3223 19.005 14.2567C18.9393 14.1911 18.9025 14.102 18.9025 14.0092V11.9617H11.9095Z" fill="#197D7F"/>
<path d="M25.9596 39.6052H13.4681C13.2055 39.6047 12.9456 39.5524 12.7033 39.4513C12.461 39.3502 12.241 39.2022 12.056 39.0159C11.8709 38.8296 11.7245 38.6086 11.6251 38.3656C11.5257 38.1225 11.4752 37.8623 11.4766 37.5997V14.6712C11.4775 14.1433 11.6876 13.6373 12.0609 13.264C12.4342 12.8907 12.9402 12.6806 13.4681 12.6797H19.2536C19.3464 12.6797 19.4354 12.7166 19.5011 12.7822C19.5667 12.8478 19.6036 12.9369 19.6036 13.0297V13.6457H22.6276V13.0297C22.6276 12.9369 22.6645 12.8478 22.7301 12.7822C22.7957 12.7166 22.8848 12.6797 22.9776 12.6797H28.7631C29.2907 12.6815 29.7962 12.8919 30.1693 13.265C30.5423 13.6381 30.7527 14.1436 30.7546 14.6712V23.7712C30.7546 23.864 30.7177 23.953 30.6521 24.0187C30.5864 24.0843 30.4974 24.1212 30.4046 24.1212H26.9396C26.8566 24.1212 26.7744 24.1376 26.6977 24.1695C26.621 24.2014 26.5514 24.2481 26.4929 24.3069C26.4343 24.3658 26.388 24.4357 26.3565 24.5125C26.3251 24.5894 26.3091 24.6717 26.3096 24.7547V39.2552C26.3096 39.348 26.2727 39.437 26.2071 39.5027C26.1414 39.5683 26.0524 39.6052 25.9596 39.6052ZM13.4681 13.3797C13.1258 13.3806 12.7979 13.517 12.5559 13.759C12.3139 14.001 12.1775 14.3289 12.1766 14.6712V37.5997C12.1775 37.9419 12.3139 38.2699 12.5559 38.5119C12.7979 38.7539 13.1258 38.8903 13.4681 38.8912H25.6096V24.7512C25.6096 24.3981 25.7496 24.0595 25.9989 23.8095C26.2482 23.5595 26.5865 23.4186 26.9396 23.4177H30.0546V14.6677C30.0537 14.3254 29.9173 13.9975 29.6753 13.7555C29.4333 13.5135 29.1053 13.3771 28.7631 13.3762H23.3276V13.9922C23.3276 14.085 23.2907 14.174 23.2251 14.2397C23.1594 14.3053 23.0704 14.3422 22.9776 14.3422H19.2536C19.1608 14.3422 19.0717 14.3053 19.0061 14.2397C18.9405 14.174 18.9036 14.085 18.9036 13.9922V13.3797H13.4681Z" fill="#197D7F"/>
<path d="M22.9758 14.3467H19.2518C19.1589 14.3467 19.0699 14.3098 19.0043 14.2441C18.9386 14.1785 18.9018 14.0895 18.9018 13.9967V11.1127C18.9006 10.675 19.0295 10.2469 19.2721 9.88269C19.5147 9.51845 19.8601 9.2345 20.2643 9.06687C20.6686 8.89924 21.1135 8.8555 21.5427 8.94119C21.9718 9.02688 22.3659 9.23814 22.6748 9.54816C22.8819 9.75253 23.0461 9.99617 23.1579 10.2648C23.2697 10.5335 23.3267 10.8217 23.3258 11.1127V13.9967C23.3258 14.0895 23.2889 14.1785 23.2232 14.2441C23.1576 14.3098 23.0686 14.3467 22.9758 14.3467ZM19.6018 13.6467H22.6258V11.1127C22.6258 10.7117 22.4665 10.3271 22.1829 10.0435C21.8993 9.75996 21.5148 9.60066 21.1138 9.60066C20.7127 9.60066 20.3282 9.75996 20.0446 10.0435C19.761 10.3271 19.6018 10.7117 19.6018 11.1127V13.6467ZM21.6458 19.2957H13.5958C13.5029 19.2957 13.4139 19.2588 13.3483 19.1931C13.2826 19.1275 13.2458 19.0385 13.2458 18.9457C13.2458 18.8528 13.2826 18.7638 13.3483 18.6982C13.4139 18.6325 13.5029 18.5957 13.5958 18.5957H21.6458C21.7386 18.5957 21.8276 18.6325 21.8932 18.6982C21.9589 18.7638 21.9957 18.8528 21.9957 18.9457C21.9957 19.0385 21.9589 19.1275 21.8932 19.1931C21.8276 19.2588 21.7386 19.2957 21.6458 19.2957ZM19.2518 21.7072H13.5783C13.4854 21.7072 13.3964 21.6703 13.3308 21.6046C13.2651 21.539 13.2283 21.45 13.2283 21.3572C13.2283 21.2643 13.2651 21.1753 13.3308 21.1097C13.3964 21.044 13.4854 21.0072 13.5783 21.0072H19.2518C19.3446 21.0072 19.4336 21.044 19.4992 21.1097C19.5649 21.1753 19.6018 21.2643 19.6018 21.3572C19.6018 21.45 19.5649 21.539 19.4992 21.6046C19.4336 21.6703 19.3446 21.7072 19.2518 21.7072ZM17.6138 24.1187H13.5783C13.4854 24.1187 13.3964 24.0818 13.3308 24.0161C13.2651 23.9505 13.2283 23.8615 13.2283 23.7687C13.2283 23.6758 13.2651 23.5868 13.3308 23.5212C13.3964 23.4555 13.4854 23.4187 13.5783 23.4187H17.6138C17.7066 23.4187 17.7956 23.4555 17.8612 23.5212C17.9269 23.5868 17.9638 23.6758 17.9638 23.7687C17.9638 23.8615 17.9269 23.9505 17.8612 24.0161C17.7956 24.0818 17.7066 24.1187 17.6138 24.1187ZM14.8243 34.7027H13.2563C13.1634 34.7027 13.0744 34.6658 13.0088 34.6001C12.9431 34.5345 12.9062 34.4455 12.9062 34.3527V30.9297C12.9062 30.8368 12.9431 30.7478 13.0088 30.6822C13.0744 30.6165 13.1634 30.5797 13.2563 30.5797H14.8243C14.9171 30.5797 15.0061 30.6165 15.0717 30.6822C15.1374 30.7478 15.1743 30.8368 15.1743 30.9297V34.3527C15.1743 34.4455 15.1374 34.5345 15.0717 34.6001C15.0061 34.6658 14.9171 34.7027 14.8243 34.7027ZM13.6063 34.0027H14.4743V31.2797H13.6063V34.0027ZM24.5123 34.7027H22.9443C22.8514 34.7027 22.7624 34.6658 22.6968 34.6001C22.6311 34.5345 22.5943 34.4455 22.5943 34.3527V30.9297C22.5943 30.8368 22.6311 30.7478 22.6968 30.6822C22.7624 30.6165 22.8514 30.5797 22.9443 30.5797H24.5123C24.6051 30.5797 24.6941 30.6165 24.7597 30.6822C24.8254 30.7478 24.8623 30.8368 24.8623 30.9297V34.3527C24.8623 34.4455 24.8254 34.5345 24.7597 34.6001C24.6941 34.6658 24.6051 34.7027 24.5123 34.7027ZM23.2943 34.0027H24.1623V31.2797H23.2943V34.0027ZM18.0722 34.7027H16.5043C16.4114 34.7027 16.3224 34.6658 16.2568 34.6001C16.1911 34.5345 16.1543 34.4455 16.1543 34.3527V27.4507C16.1543 27.3578 16.1911 27.2688 16.2568 27.2032C16.3224 27.1375 16.4114 27.1007 16.5043 27.1007H18.0722C18.1651 27.1007 18.2541 27.1375 18.3197 27.2032C18.3854 27.2688 18.4223 27.3578 18.4223 27.4507V34.3527C18.4223 34.4455 18.3854 34.5345 18.3197 34.6001C18.2541 34.6658 18.1651 34.7027 18.0722 34.7027ZM16.8543 34.0027H17.7222V27.8007H16.8543V34.0027ZM21.3238 34.7377H19.7488C19.6559 34.7377 19.5669 34.7008 19.5013 34.6351C19.4356 34.5695 19.3988 34.4805 19.3988 34.3877V28.7877C19.3988 28.6948 19.4356 28.6058 19.5013 28.5402C19.5669 28.4745 19.6559 28.4377 19.7488 28.4377H21.3238C21.4166 28.4377 21.5056 28.4745 21.5712 28.5402C21.6369 28.6058 21.6737 28.6948 21.6737 28.7877V34.3877C21.6737 34.4805 21.6369 34.5695 21.5712 34.6351C21.5056 34.7008 21.4166 34.7377 21.3238 34.7377ZM20.1022 34.0377H20.9738V29.1377H20.0988L20.1022 34.0377ZM38.4248 41.1007H26.9378C26.585 41.1007 26.2467 40.9605 25.9973 40.7111C25.7479 40.4617 25.6078 40.1234 25.6078 39.7707V24.7522C25.6077 24.3991 25.7478 24.0604 25.9971 23.8105C26.2464 23.5605 26.5847 23.4196 26.9378 23.4187H38.4248C38.7778 23.4196 39.1161 23.5605 39.3654 23.8105C39.6147 24.0604 39.7548 24.3991 39.7548 24.7522V39.7707C39.7538 40.1231 39.6134 40.4609 39.3642 40.7101C39.115 40.9593 38.7772 41.0997 38.4248 41.1007ZM26.9378 24.1187C26.8547 24.1187 26.7725 24.1351 26.6958 24.1669C26.6192 24.1988 26.5496 24.2455 26.491 24.3044C26.4325 24.3633 26.3862 24.4332 26.3547 24.51C26.3232 24.5868 26.3073 24.6691 26.3078 24.7522V39.7707C26.3078 39.9377 26.3741 40.098 26.4923 40.2161C26.6104 40.3343 26.7707 40.4007 26.9378 40.4007H38.4248C38.5916 40.3997 38.7513 40.3331 38.8692 40.2151C38.9872 40.0972 39.0538 39.9375 39.0548 39.7707V24.7522C39.0548 24.5848 38.9885 24.4241 38.8704 24.3054C38.7524 24.1867 38.5922 24.1196 38.4248 24.1187H26.9378Z" fill="#197D7F"/>
<path d="M37.3758 29.6405H27.9888C27.896 29.6405 27.807 29.6036 27.7414 29.538C27.6757 29.4723 27.6388 29.3833 27.6388 29.2905V25.5805C27.6388 25.4876 27.6757 25.3986 27.7414 25.333C27.807 25.2673 27.896 25.2305 27.9888 25.2305H37.3758C37.4687 25.2305 37.5577 25.2673 37.6233 25.333C37.689 25.3986 37.7258 25.4876 37.7258 25.5805V29.2905C37.7258 29.3833 37.689 29.4723 37.6233 29.538C37.5577 29.6036 37.4687 29.6405 37.3758 29.6405ZM28.3388 28.9405H37.0258V25.9305H28.3388V28.9405ZM30.0643 33.515H27.9398C27.847 33.515 27.758 33.4781 27.6924 33.4125C27.6267 33.3468 27.5898 33.2578 27.5898 33.165V31.0405C27.5898 30.9476 27.6267 30.8586 27.6924 30.793C27.758 30.7273 27.847 30.6905 27.9398 30.6905H30.0643C30.1572 30.6905 30.2462 30.7273 30.3118 30.793C30.3775 30.8586 30.4143 30.9476 30.4143 31.0405V33.165C30.4143 33.2578 30.3775 33.3468 30.3118 33.4125C30.2462 33.4781 30.1572 33.515 30.0643 33.515ZM28.2898 32.815H29.7143V31.3905H28.2898V32.815ZM33.7498 33.515H31.6183C31.5255 33.515 31.4365 33.4781 31.3709 33.4125C31.3052 33.3468 31.2683 33.2578 31.2683 33.165V31.0405C31.2683 30.9476 31.3052 30.8586 31.3709 30.793C31.4365 30.7273 31.5255 30.6905 31.6183 30.6905H33.7498C33.8427 30.6905 33.9317 30.7273 33.9973 30.793C34.063 30.8586 34.0998 30.9476 34.0998 31.0405V33.165C34.0998 33.2578 34.063 33.3468 33.9973 33.4125C33.9317 33.4781 33.8427 33.515 33.7498 33.515ZM31.9753 32.815H33.3998V31.3905H31.9683L31.9753 32.815ZM37.2183 33.515H35.0903C34.9975 33.515 34.9085 33.4781 34.8429 33.4125C34.7772 33.3468 34.7403 33.2578 34.7403 33.165V31.0405C34.7403 30.9476 34.7772 30.8586 34.8429 30.793C34.9085 30.7273 34.9975 30.6905 35.0903 30.6905H37.2183C37.3112 30.6905 37.4002 30.7273 37.4658 30.793C37.5315 30.8586 37.5683 30.9476 37.5683 31.0405V33.165C37.5683 33.2578 37.5315 33.3468 37.4658 33.4125C37.4002 33.4781 37.3112 33.515 37.2183 33.515ZM35.4403 32.815H36.8683V31.3905H35.4403V32.815ZM30.1658 37.386H28.0413C27.9485 37.386 27.8595 37.3491 27.7939 37.2835C27.7282 37.2178 27.6913 37.1288 27.6913 37.036V34.9115C27.6913 34.8186 27.7282 34.7296 27.7939 34.664C27.8595 34.5983 27.9485 34.5615 28.0413 34.5615H30.1658C30.2587 34.5615 30.3477 34.5983 30.4133 34.664C30.479 34.7296 30.5158 34.8186 30.5158 34.9115V37.036C30.5158 37.1288 30.479 37.2178 30.4133 37.2835C30.3477 37.3491 30.2587 37.386 30.1658 37.386ZM28.3913 36.686H29.8158V35.2615H28.3913V36.686ZM33.8478 37.386H31.7233C31.6305 37.386 31.5415 37.3491 31.4759 37.2835C31.4102 37.2178 31.3733 37.1288 31.3733 37.036V34.9115C31.3733 34.8186 31.4102 34.7296 31.4759 34.664C31.5415 34.5983 31.6305 34.5615 31.7233 34.5615H33.8478C33.9407 34.5615 34.0297 34.5983 34.0953 34.664C34.161 34.7296 34.1978 34.8186 34.1978 34.9115V37.036C34.1978 37.1288 34.161 37.2178 34.0953 37.2835C34.0297 37.3491 33.9407 37.386 33.8478 37.386ZM32.0733 36.686H33.4978V35.2615H32.0733V36.686ZM37.3198 37.386H35.1953C35.1025 37.386 35.0135 37.3491 34.9479 37.2835C34.8822 37.2178 34.8453 37.1288 34.8453 37.036V34.9115C34.8453 34.8186 34.8822 34.7296 34.9479 34.664C35.0135 34.5983 35.1025 34.5615 35.1953 34.5615H37.3198C37.4127 34.5615 37.5017 34.5983 37.5673 34.664C37.633 34.7296 37.6698 34.8186 37.6698 34.9115V37.036C37.6698 37.1288 37.633 37.2178 37.5673 37.2835C37.5017 37.3491 37.4127 37.386 37.3198 37.386ZM35.5453 36.686H36.9698V35.2615H35.5453V36.686Z" fill="#197D7F"/>
</svg>
