<svg width="30" height="30" viewBox="0 0 30 30" fill="none" xmlns="http://www.w3.org/2000/svg">
<path d="M5.9998 28.9498H23.9998C24.2482 28.9498 24.4498 28.7485 24.4498 28.4998V1.4998C24.4498 1.2511 24.2482 1.0498 23.9998 1.0498H5.9998C5.7514 1.0498 5.5498 1.2511 5.5498 1.4998V28.4998C5.5498 28.7485 5.7514 28.9498 5.9998 28.9498ZM19.0681 25.9315C18.9802 25.8436 18.865 25.7998 18.7498 25.7998C18.6346 25.7998 18.5194 25.8436 18.4315 25.9315L16.9498 27.4132V22.603C16.9675 22.6114 16.9864 22.6168 17.0041 22.6249C17.1238 22.6798 17.2453 22.7299 17.3692 22.7731C17.3734 22.7746 17.3773 22.7764 17.3815 22.7779C17.8171 22.9279 18.277 23.0065 18.7498 23.0065C19.2226 23.0065 19.6834 22.9279 20.119 22.7776C20.1217 22.7767 20.1241 22.7755 20.1268 22.7746C20.2528 22.7308 20.3764 22.6798 20.4979 22.624C20.515 22.6162 20.533 22.6108 20.5498 22.603V27.4132L19.0681 25.9315ZM21.4261 20.7373C21.2302 21.0106 20.9962 21.2488 20.7295 21.4468C20.155 21.8782 19.4704 22.1065 18.7498 22.1065C18.6598 22.1065 18.5701 22.1029 18.4813 22.0957C17.8597 22.0462 17.2726 21.8239 16.768 21.445C16.5031 21.2482 16.2694 21.01 16.0726 20.7358C15.6652 20.1718 15.4498 19.5046 15.4498 18.8062C15.4498 16.9867 16.9303 15.5062 18.7498 15.5062C18.9298 15.5062 19.1077 15.5206 19.2823 15.5485C19.8058 15.6328 20.2984 15.8422 20.7295 16.1659C20.7295 16.1659 20.7298 16.1659 20.7301 16.1659C21.5689 16.7974 22.0501 17.7595 22.0501 18.8059C22.0501 19.504 21.8347 20.1712 21.4264 20.7367L21.4261 20.7373ZM20.5498 15.0103C20.5312 15.0013 20.5114 14.9956 20.4928 14.9869C20.3893 14.9395 20.284 14.8963 20.1772 14.8576C20.1529 14.8489 20.1292 14.8384 20.1049 14.83C19.9753 14.7859 19.843 14.7487 19.7092 14.7175C19.6756 14.7097 19.6414 14.704 19.6075 14.6968C19.5022 14.6749 19.3957 14.6572 19.2883 14.6437C19.249 14.6386 19.2097 14.6335 19.1701 14.6296C19.0312 14.6158 18.8914 14.6065 18.7498 14.6065C16.4338 14.6065 14.5498 16.4905 14.5498 18.8065C14.5498 19.6948 14.824 20.5444 15.3424 21.262C15.4342 21.3898 15.5347 21.5095 15.6388 21.625C15.6595 21.6481 15.6799 21.6712 15.7012 21.694C15.805 21.8038 15.9139 21.9076 16.0282 22.0045C16.0357 22.0108 16.042 22.0186 16.0495 22.0249V25.0498H11.5867C11.2981 24.019 10.4803 23.2012 9.44951 22.9126V7.087C10.4806 6.7984 11.2981 5.9806 11.5867 4.9498H18.4123C18.7009 5.9806 19.5187 6.7984 20.5495 7.087V15.0106L20.5498 15.0103ZM17.5861 28.0498L18.7498 26.8861L19.9135 28.0498H17.5861ZM6.4498 1.9498H23.5498V28.0498H21.4498V22.0249C21.4576 22.0183 21.4642 22.0105 21.4717 22.0039C21.586 21.907 21.6946 21.8035 21.7981 21.694C21.8194 21.6715 21.8395 21.6484 21.8605 21.6253C21.9649 21.5098 22.0651 21.3904 22.1566 21.2629C22.6756 20.5441 22.9501 19.6948 22.9501 18.8065C22.9501 18.6445 22.9402 18.4846 22.9225 18.3262C22.9165 18.2731 22.9045 18.2215 22.8967 18.169C22.8811 18.0649 22.8658 17.9608 22.8424 17.8591C22.8283 17.7976 22.8085 17.7382 22.7917 17.6776C22.7668 17.5873 22.7425 17.4967 22.7116 17.4085C22.6894 17.3455 22.6621 17.2849 22.6372 17.2231C22.6036 17.1403 22.5706 17.0575 22.5316 16.9774C22.5016 16.9156 22.4674 16.8562 22.4344 16.7959C22.3924 16.7194 22.3507 16.6432 22.3042 16.5694C22.2667 16.5103 22.2259 16.4533 22.1854 16.396C22.1356 16.3255 22.0855 16.2556 22.0312 16.1878C21.9865 16.132 21.9391 16.0786 21.8911 16.0252C21.8338 15.9607 21.7753 15.8974 21.7135 15.8359C21.6619 15.7846 21.6082 15.7354 21.5539 15.6868C21.5185 15.655 21.4867 15.6202 21.4498 15.5896V6.7228C21.4498 6.499 21.2854 6.3091 21.0637 6.2773C20.1157 6.1411 19.3582 5.3836 19.222 4.4356C19.1905 4.2142 19.0006 4.0495 18.7768 4.0495H11.2228C10.999 4.0495 10.8091 4.2139 10.7776 4.4356C10.6414 5.3836 9.8839 6.1411 8.9359 6.2773C8.71421 6.3091 8.5498 6.499 8.5498 6.7228V23.2768C8.5498 23.5006 8.71421 23.6905 8.9359 23.7223C9.8839 23.8585 10.6414 24.616 10.7776 25.564C10.8091 25.7854 10.999 25.9501 11.2228 25.9501H16.0498V28.0501H6.4498V1.9498Z" fill="#E8BE38"/>
</svg>
