<svg width="20" height="21" viewBox="0 0 20 21" fill="none" xmlns="http://www.w3.org/2000/svg">
<path d="M8.40595 20.1084C8.26234 20.1084 8.12196 20.0658 8.00256 19.986C7.88316 19.9062 7.7901 19.7927 7.73514 19.6601C7.68019 19.5274 7.66581 19.3814 7.69382 19.2405C7.72183 19.0997 7.79097 18.9703 7.8925 18.8687L17.1483 9.61289C17.5923 9.16894 17.9444 8.6419 18.1847 8.06185C18.425 7.4818 18.5486 6.86011 18.5486 6.23228C18.5486 5.60444 18.425 4.98275 18.1847 4.4027C17.9444 3.82266 17.5923 3.29561 17.1483 2.85166C16.7044 2.40772 16.1773 2.05556 15.5973 1.81529C15.0173 1.57503 14.3956 1.45137 13.7677 1.45137C13.1399 1.45137 12.5182 1.57503 11.9381 1.81529C11.3581 2.05556 10.8311 2.40772 10.3871 2.85166L2.35571 10.8831C2.0716 11.1672 1.84624 11.5046 1.6925 11.8758C1.53876 12.2471 1.45965 12.6449 1.45968 13.0468C1.45972 13.4486 1.5389 13.8465 1.6927 14.2177C1.8465 14.5889 2.07191 14.9262 2.35607 15.2103C2.64022 15.4944 2.97756 15.7198 3.34881 15.8735C3.72005 16.0273 4.11795 16.1064 4.51977 16.1063C4.9216 16.1063 5.31948 16.0271 5.6907 15.8733C6.06192 15.7195 6.39922 15.4941 6.68332 15.21L14.714 7.17928C14.8383 7.05497 14.9369 6.90738 15.0042 6.74496C15.0715 6.58253 15.1061 6.40845 15.1061 6.23264C15.1061 6.05683 15.0715 5.88274 15.0042 5.72032C14.9369 5.55789 14.8383 5.41031 14.714 5.286C14.5897 5.16168 14.4421 5.06307 14.2797 4.99579C14.1173 4.92851 13.9432 4.89388 13.7674 4.89388C13.5916 4.89388 13.4175 4.92851 13.255 4.99579C13.0926 5.06307 12.945 5.16168 12.8207 5.286L6.00648 12.0995C5.93948 12.1689 5.85935 12.2242 5.77074 12.2623C5.68214 12.3003 5.58685 12.3204 5.49042 12.3212C5.39399 12.322 5.29836 12.3037 5.20911 12.2671C5.11986 12.2306 5.03877 12.1767 4.97058 12.1085C4.90239 12.0403 4.84847 11.9592 4.81195 11.87C4.77544 11.7807 4.75706 11.6851 4.7579 11.5887C4.75874 11.4922 4.77877 11.397 4.81683 11.3083C4.8549 11.2197 4.91022 11.1396 4.97958 11.0726L11.7938 4.2591C12.053 3.99993 12.3607 3.79435 12.6993 3.65409C13.0379 3.51383 13.4008 3.44164 13.7674 3.44164C14.1339 3.44164 14.4968 3.51383 14.8354 3.65409C15.1741 3.79435 15.4817 3.99993 15.7409 4.2591C16.0001 4.51827 16.2056 4.82595 16.3459 5.16457C16.4862 5.50319 16.5584 5.86612 16.5584 6.23264C16.5584 6.59916 16.4862 6.96209 16.3459 7.30071C16.2056 7.63933 16.0001 7.94701 15.7409 8.20618L7.70731 16.2369C7.28857 16.6568 6.79113 16.9902 6.24345 17.2177C5.69578 17.4453 5.10861 17.5627 4.51554 17.5631C3.92247 17.5636 3.33512 17.4471 2.7871 17.2204C2.23908 16.9936 1.74113 16.6611 1.32174 16.2418C0.90235 15.8224 0.569744 15.3245 0.342948 14.7765C0.116151 14.2285 -0.00038614 13.6412 9.61211e-07 13.0481C0.000388063 12.455 0.117692 11.8678 0.345204 11.3201C0.572715 10.7724 0.90597 10.275 1.32591 9.85618L9.36022 1.8255C10.5291 0.656651 12.1144 0 13.7674 0C15.4204 0 17.0057 0.656651 18.1745 1.8255C19.3433 2.99434 20 4.57964 20 6.23264C20 7.88564 19.3433 9.47093 18.1745 10.6398L8.9194 19.8956C8.78323 20.0318 8.59854 20.1084 8.40595 20.1084Z" fill="#0A3231"/>
<path d="M8.40595 20.1084C8.26234 20.1084 8.12196 20.0658 8.00256 19.986C7.88316 19.9062 7.7901 19.7927 7.73514 19.6601C7.68019 19.5274 7.66581 19.3814 7.69382 19.2405C7.72183 19.0997 7.79097 18.9703 7.8925 18.8687L17.1483 9.61289C17.5923 9.16894 17.9444 8.6419 18.1847 8.06185C18.425 7.4818 18.5486 6.86011 18.5486 6.23228C18.5486 5.60444 18.425 4.98275 18.1847 4.4027C17.9444 3.82266 17.5923 3.29561 17.1483 2.85166C16.7044 2.40772 16.1773 2.05556 15.5973 1.81529C15.0173 1.57503 14.3956 1.45137 13.7677 1.45137C13.1399 1.45137 12.5182 1.57503 11.9381 1.81529C11.3581 2.05556 10.8311 2.40772 10.3871 2.85166L2.35571 10.8831C2.0716 11.1672 1.84624 11.5046 1.6925 11.8758C1.53876 12.2471 1.45965 12.6449 1.45968 13.0468C1.45972 13.4486 1.5389 13.8465 1.6927 14.2177C1.8465 14.5889 2.07191 14.9262 2.35607 15.2103C2.64022 15.4944 2.97756 15.7198 3.34881 15.8735C3.72005 16.0273 4.11795 16.1064 4.51977 16.1063C4.9216 16.1063 5.31948 16.0271 5.6907 15.8733C6.06192 15.7195 6.39922 15.4941 6.68332 15.21L14.714 7.17928C14.8383 7.05497 14.9369 6.90738 15.0042 6.74496C15.0715 6.58253 15.1061 6.40845 15.1061 6.23264C15.1061 6.05683 15.0715 5.88274 15.0042 5.72032C14.9369 5.55789 14.8383 5.41031 14.714 5.286C14.5897 5.16168 14.4421 5.06307 14.2797 4.99579C14.1173 4.92851 13.9432 4.89388 13.7674 4.89388C13.5916 4.89388 13.4175 4.92851 13.255 4.99579C13.0926 5.06307 12.945 5.16168 12.8207 5.286L6.00648 12.0995C5.93948 12.1689 5.85935 12.2242 5.77074 12.2623C5.68214 12.3003 5.58685 12.3204 5.49042 12.3212C5.39399 12.322 5.29836 12.3037 5.20911 12.2671C5.11986 12.2306 5.03877 12.1767 4.97058 12.1085C4.90239 12.0403 4.84847 11.9592 4.81195 11.87C4.77544 11.7807 4.75706 11.6851 4.7579 11.5887C4.75874 11.4922 4.77877 11.397 4.81683 11.3083C4.8549 11.2197 4.91022 11.1396 4.97958 11.0726L11.7938 4.2591C12.053 3.99993 12.3607 3.79435 12.6993 3.65409C13.0379 3.51383 13.4008 3.44164 13.7674 3.44164C14.1339 3.44164 14.4968 3.51383 14.8354 3.65409C15.1741 3.79435 15.4817 3.99993 15.7409 4.2591C16.0001 4.51827 16.2056 4.82595 16.3459 5.16457C16.4862 5.50319 16.5584 5.86612 16.5584 6.23264C16.5584 6.59916 16.4862 6.96209 16.3459 7.30071C16.2056 7.63933 16.0001 7.94701 15.7409 8.20618L7.70731 16.2369C7.28857 16.6568 6.79113 16.9902 6.24345 17.2177C5.69578 17.4453 5.10861 17.5627 4.51554 17.5631C3.92247 17.5636 3.33512 17.4471 2.7871 17.2204C2.23908 16.9936 1.74113 16.6611 1.32174 16.2418C0.90235 15.8224 0.569744 15.3245 0.342948 14.7765C0.116151 14.2285 -0.00038614 13.6412 9.61211e-07 13.0481C0.000388063 12.455 0.117692 11.8678 0.345204 11.3201C0.572715 10.7724 0.90597 10.275 1.32591 9.85618L9.36022 1.8255C10.5291 0.656651 12.1144 0 13.7674 0C15.4204 0 17.0057 0.656651 18.1745 1.8255C19.3433 2.99434 20 4.57964 20 6.23264C20 7.88564 19.3433 9.47093 18.1745 10.6398L8.9194 19.8956C8.78323 20.0318 8.59854 20.1084 8.40595 20.1084Z" fill="black" fill-opacity="0.2"/>
<path d="M8.40595 20.1084C8.26234 20.1084 8.12196 20.0658 8.00256 19.986C7.88316 19.9062 7.7901 19.7927 7.73514 19.6601C7.68019 19.5274 7.66581 19.3814 7.69382 19.2405C7.72183 19.0997 7.79097 18.9703 7.8925 18.8687L17.1483 9.61289C17.5923 9.16894 17.9444 8.6419 18.1847 8.06185C18.425 7.4818 18.5486 6.86011 18.5486 6.23228C18.5486 5.60444 18.425 4.98275 18.1847 4.4027C17.9444 3.82266 17.5923 3.29561 17.1483 2.85166C16.7044 2.40772 16.1773 2.05556 15.5973 1.81529C15.0173 1.57503 14.3956 1.45137 13.7677 1.45137C13.1399 1.45137 12.5182 1.57503 11.9381 1.81529C11.3581 2.05556 10.8311 2.40772 10.3871 2.85166L2.35571 10.8831C2.0716 11.1672 1.84624 11.5046 1.6925 11.8758C1.53876 12.2471 1.45965 12.6449 1.45968 13.0468C1.45972 13.4486 1.5389 13.8465 1.6927 14.2177C1.8465 14.5889 2.07191 14.9262 2.35607 15.2103C2.64022 15.4944 2.97756 15.7198 3.34881 15.8735C3.72005 16.0273 4.11795 16.1064 4.51977 16.1063C4.9216 16.1063 5.31948 16.0271 5.6907 15.8733C6.06192 15.7195 6.39922 15.4941 6.68332 15.21L14.714 7.17928C14.8383 7.05497 14.9369 6.90738 15.0042 6.74496C15.0715 6.58253 15.1061 6.40845 15.1061 6.23264C15.1061 6.05683 15.0715 5.88274 15.0042 5.72032C14.9369 5.55789 14.8383 5.41031 14.714 5.286C14.5897 5.16168 14.4421 5.06307 14.2797 4.99579C14.1173 4.92851 13.9432 4.89388 13.7674 4.89388C13.5916 4.89388 13.4175 4.92851 13.255 4.99579C13.0926 5.06307 12.945 5.16168 12.8207 5.286L6.00648 12.0995C5.93948 12.1689 5.85935 12.2242 5.77074 12.2623C5.68214 12.3003 5.58685 12.3204 5.49042 12.3212C5.39399 12.322 5.29836 12.3037 5.20911 12.2671C5.11986 12.2306 5.03877 12.1767 4.97058 12.1085C4.90239 12.0403 4.84847 11.9592 4.81195 11.87C4.77544 11.7807 4.75706 11.6851 4.7579 11.5887C4.75874 11.4922 4.77877 11.397 4.81683 11.3083C4.8549 11.2197 4.91022 11.1396 4.97958 11.0726L11.7938 4.2591C12.053 3.99993 12.3607 3.79435 12.6993 3.65409C13.0379 3.51383 13.4008 3.44164 13.7674 3.44164C14.1339 3.44164 14.4968 3.51383 14.8354 3.65409C15.1741 3.79435 15.4817 3.99993 15.7409 4.2591C16.0001 4.51827 16.2056 4.82595 16.3459 5.16457C16.4862 5.50319 16.5584 5.86612 16.5584 6.23264C16.5584 6.59916 16.4862 6.96209 16.3459 7.30071C16.2056 7.63933 16.0001 7.94701 15.7409 8.20618L7.70731 16.2369C7.28857 16.6568 6.79113 16.9902 6.24345 17.2177C5.69578 17.4453 5.10861 17.5627 4.51554 17.5631C3.92247 17.5636 3.33512 17.4471 2.7871 17.2204C2.23908 16.9936 1.74113 16.6611 1.32174 16.2418C0.90235 15.8224 0.569744 15.3245 0.342948 14.7765C0.116151 14.2285 -0.00038614 13.6412 9.61211e-07 13.0481C0.000388063 12.455 0.117692 11.8678 0.345204 11.3201C0.572715 10.7724 0.90597 10.275 1.32591 9.85618L9.36022 1.8255C10.5291 0.656651 12.1144 0 13.7674 0C15.4204 0 17.0057 0.656651 18.1745 1.8255C19.3433 2.99434 20 4.57964 20 6.23264C20 7.88564 19.3433 9.47093 18.1745 10.6398L8.9194 19.8956C8.78323 20.0318 8.59854 20.1084 8.40595 20.1084Z" fill="black" fill-opacity="0.2"/>
<path d="M8.40595 20.1084C8.26234 20.1084 8.12196 20.0658 8.00256 19.986C7.88316 19.9062 7.7901 19.7927 7.73514 19.6601C7.68019 19.5274 7.66581 19.3814 7.69382 19.2405C7.72183 19.0997 7.79097 18.9703 7.8925 18.8687L17.1483 9.61289C17.5923 9.16894 17.9444 8.6419 18.1847 8.06185C18.425 7.4818 18.5486 6.86011 18.5486 6.23228C18.5486 5.60444 18.425 4.98275 18.1847 4.4027C17.9444 3.82266 17.5923 3.29561 17.1483 2.85166C16.7044 2.40772 16.1773 2.05556 15.5973 1.81529C15.0173 1.57503 14.3956 1.45137 13.7677 1.45137C13.1399 1.45137 12.5182 1.57503 11.9381 1.81529C11.3581 2.05556 10.8311 2.40772 10.3871 2.85166L2.35571 10.8831C2.0716 11.1672 1.84624 11.5046 1.6925 11.8758C1.53876 12.2471 1.45965 12.6449 1.45968 13.0468C1.45972 13.4486 1.5389 13.8465 1.6927 14.2177C1.8465 14.5889 2.07191 14.9262 2.35607 15.2103C2.64022 15.4944 2.97756 15.7198 3.34881 15.8735C3.72005 16.0273 4.11795 16.1064 4.51977 16.1063C4.9216 16.1063 5.31948 16.0271 5.6907 15.8733C6.06192 15.7195 6.39922 15.4941 6.68332 15.21L14.714 7.17928C14.8383 7.05497 14.9369 6.90738 15.0042 6.74496C15.0715 6.58253 15.1061 6.40845 15.1061 6.23264C15.1061 6.05683 15.0715 5.88274 15.0042 5.72032C14.9369 5.55789 14.8383 5.41031 14.714 5.286C14.5897 5.16168 14.4421 5.06307 14.2797 4.99579C14.1173 4.92851 13.9432 4.89388 13.7674 4.89388C13.5916 4.89388 13.4175 4.92851 13.255 4.99579C13.0926 5.06307 12.945 5.16168 12.8207 5.286L6.00648 12.0995C5.93948 12.1689 5.85935 12.2242 5.77074 12.2623C5.68214 12.3003 5.58685 12.3204 5.49042 12.3212C5.39399 12.322 5.29836 12.3037 5.20911 12.2671C5.11986 12.2306 5.03877 12.1767 4.97058 12.1085C4.90239 12.0403 4.84847 11.9592 4.81195 11.87C4.77544 11.7807 4.75706 11.6851 4.7579 11.5887C4.75874 11.4922 4.77877 11.397 4.81683 11.3083C4.8549 11.2197 4.91022 11.1396 4.97958 11.0726L11.7938 4.2591C12.053 3.99993 12.3607 3.79435 12.6993 3.65409C13.0379 3.51383 13.4008 3.44164 13.7674 3.44164C14.1339 3.44164 14.4968 3.51383 14.8354 3.65409C15.1741 3.79435 15.4817 3.99993 15.7409 4.2591C16.0001 4.51827 16.2056 4.82595 16.3459 5.16457C16.4862 5.50319 16.5584 5.86612 16.5584 6.23264C16.5584 6.59916 16.4862 6.96209 16.3459 7.30071C16.2056 7.63933 16.0001 7.94701 15.7409 8.20618L7.70731 16.2369C7.28857 16.6568 6.79113 16.9902 6.24345 17.2177C5.69578 17.4453 5.10861 17.5627 4.51554 17.5631C3.92247 17.5636 3.33512 17.4471 2.7871 17.2204C2.23908 16.9936 1.74113 16.6611 1.32174 16.2418C0.90235 15.8224 0.569744 15.3245 0.342948 14.7765C0.116151 14.2285 -0.00038614 13.6412 9.61211e-07 13.0481C0.000388063 12.455 0.117692 11.8678 0.345204 11.3201C0.572715 10.7724 0.90597 10.275 1.32591 9.85618L9.36022 1.8255C10.5291 0.656651 12.1144 0 13.7674 0C15.4204 0 17.0057 0.656651 18.1745 1.8255C19.3433 2.99434 20 4.57964 20 6.23264C20 7.88564 19.3433 9.47093 18.1745 10.6398L8.9194 19.8956C8.78323 20.0318 8.59854 20.1084 8.40595 20.1084Z" fill="black" fill-opacity="0.2"/>
</svg>
