<svg width="30" height="30" viewBox="0 0 30 30" fill="none" xmlns="http://www.w3.org/2000/svg">
<g clip-path="url(#clip0_260_37334)">
<path d="M15 0.046875C6.75 0.046875 0.046875 6.75 0.046875 15C0.046875 23.25 6.75 29.9531 15 29.9531C23.25 29.9531 29.9531 23.25 29.9531 15C29.9531 6.75 23.25 0.046875 15 0.046875ZM15 29.0156C7.26562 29.0156 0.984375 22.7344 0.984375 15C0.984375 7.26562 7.26562 0.984375 15 0.984375C22.7344 0.984375 29.0156 7.26562 29.0156 15C29.0156 22.7344 22.7344 29.0156 15 29.0156Z" fill="#E8BE38"/>
<path d="M25.9688 8.67188C25.9688 8.625 25.9219 8.625 25.9219 8.625C24.7969 6.70312 23.25 5.15625 21.3281 4.03125H21.2344C19.4531 2.95313 17.2969 2.34375 15 2.34375C12.7031 2.34375 10.5469 2.95313 8.67188 4.03125H8.57812C6.65625 5.15625 5.10938 6.70312 3.98438 8.625V8.71875C2.95312 10.5469 2.34375 12.7031 2.34375 15C2.34375 17.2969 2.95313 19.4531 4.03125 21.3281V21.375C4.03125 21.375 4.03125 21.4219 4.07812 21.4219C5.20312 23.2969 6.75 24.8906 8.67188 26.0156H8.76563C10.6406 27.0938 12.75 27.7031 15.0469 27.7031C17.3437 27.7031 19.5 27.0938 21.3281 26.0156H21.4219C23.2969 24.8906 24.8906 23.3438 26.0156 21.4219L26.0625 21.375V21.3281C27.1406 19.4531 27.75 17.2969 27.75 15C27.6562 12.7031 27.0469 10.5469 25.9688 8.67188ZM25.4062 20.4844L23.6719 19.4531C23.4375 19.3125 23.1562 19.4062 23.0156 19.6406C22.875 19.875 22.9688 20.1562 23.2031 20.2969L24.9375 21.3281C24 22.7812 22.7344 24.0469 21.2812 24.9844L20.25 23.25C20.1094 23.0156 19.8281 22.9688 19.5938 23.0625C19.3594 23.2031 19.3125 23.4844 19.4062 23.7188L20.4375 25.4531C18.9375 26.25 17.25 26.7188 15.4219 26.8125V24.7969C15.4219 24.5156 15.2344 24.3281 14.9531 24.3281C14.7188 24.3281 14.4844 24.5156 14.4844 24.7969V26.7188C12.7031 26.625 10.9688 26.1562 9.46875 25.3594L10.5 23.625C10.6406 23.3906 10.5469 23.1094 10.3125 22.9688C10.0781 22.8281 9.79688 22.9219 9.65625 23.1562L8.625 24.8906C7.17188 23.9531 5.90625 22.6875 4.96875 21.2344L6.70312 20.2031C6.9375 20.0625 6.98438 19.7812 6.89062 19.5469C6.75 19.3125 6.46875 19.2656 6.23438 19.3594L4.5 20.3906C3.79688 18.9375 3.32812 17.25 3.28125 15.4688H5.29688C5.57812 15.4688 5.76562 15.2812 5.76562 15C5.76562 14.7656 5.57812 14.5312 5.29688 14.5312H3.28125C3.375 12.75 3.84375 11.0156 4.64062 9.51562L6.375 10.5469C6.46875 10.5938 6.51562 10.5938 6.60938 10.5938C6.75 10.5938 6.9375 10.5 7.03125 10.3594C7.17188 10.125 7.07812 9.84375 6.84375 9.70313L5.10937 8.67188C6.04687 7.21875 7.3125 5.95312 8.76563 5.01562L9.79688 6.75C9.89062 6.89062 10.0312 6.98438 10.2187 6.98438C10.3125 6.98438 10.3594 6.98438 10.4531 6.9375C10.6875 6.79688 10.7344 6.51562 10.6406 6.28125L9.60938 4.54688C11.0625 3.79687 12.75 3.32812 14.5312 3.28125V5.29688C14.5312 5.57812 14.7188 5.76562 15 5.76562C15.2344 5.76562 15.4688 5.57812 15.4688 5.29688V3.28125C17.25 3.375 18.9844 3.84375 20.4844 4.64062L19.4531 6.375C19.3125 6.60938 19.4062 6.89062 19.6406 7.03125C19.7344 7.07812 19.7812 7.07812 19.875 7.07812C20.0156 7.07812 20.2031 6.98438 20.2969 6.84375L21.3281 5.10937C22.7812 6.04687 24.0469 7.3125 24.9844 8.76563L23.25 9.79688C23.0156 9.9375 22.9688 10.2187 23.0625 10.4531C23.1562 10.5938 23.2969 10.6875 23.4844 10.6875C23.5781 10.6875 23.625 10.6875 23.7188 10.6406L25.4531 9.60938C26.25 11.1094 26.7188 12.7969 26.8125 14.625H24.7969C24.5156 14.625 24.3281 14.8125 24.3281 15.0938C24.3281 15.3281 24.5156 15.5625 24.7969 15.5625H26.7188C26.6719 17.25 26.2031 18.9375 25.4062 20.4844Z" fill="#E8BE38"/>
<path d="M21.0938 14.5313H16.9688C16.7344 13.6406 15.9375 12.9375 15 12.9375C14.625 12.9375 14.25 13.0781 13.9219 13.2656L9.51562 8.85938C9.32812 8.67188 9.04688 8.67188 8.85938 8.85938C8.67188 9.04688 8.67188 9.32812 8.85938 9.51562L13.2656 13.9219C13.0781 14.25 12.9375 14.5781 12.9375 15C12.9375 16.125 13.875 17.0625 15 17.0625C15.9844 17.0625 16.7812 16.4063 16.9688 15.4688H21.0938C21.375 15.4688 21.5625 15.2813 21.5625 15C21.5625 14.7656 21.375 14.5313 21.0938 14.5313ZM15 16.125C14.3906 16.125 13.875 15.6094 13.875 15C13.875 14.6719 14.0156 14.4375 14.2031 14.2031C14.3906 14.0156 14.6719 13.875 15 13.875C15.6094 13.875 16.125 14.3906 16.125 15C16.125 15.6094 15.6094 16.125 15 16.125Z" fill="#E8BE38"/>
</g>
<defs>
<clipPath id="clip0_260_37334">
<rect width="30" height="30" fill="white"/>
</clipPath>
</defs>
</svg>
