<svg width="50" height="50" viewBox="0 0 50 50" fill="none" xmlns="http://www.w3.org/2000/svg">
<rect x="0.5" y="0.5" width="49" height="49" rx="4.5" stroke="#197D7F"/>
<path d="M36.2495 19.6643C35.3277 19.6643 34.4245 19.7142 33.5531 19.8106V11.9589C33.5531 9.83765 29.151 8.72754 24.8026 8.72754C20.4542 8.72754 16.0516 9.83765 16.0516 11.9589V14.888C15.2868 14.8134 14.519 14.7743 13.7505 14.771C9.40215 14.771 5.00043 15.8811 5 18.0019V34.303C5 36.4243 9.40215 37.534 13.7505 37.534C14.519 37.5306 15.2868 37.4916 16.0516 37.417V38.0402C16.0516 40.1615 20.4538 41.2716 24.8026 41.2716C29.1514 41.2716 33.5531 40.1615 33.5531 38.0402V35.7607C34.4241 35.857 35.3269 35.9069 36.2495 35.9069C40.5979 35.9069 45 34.7968 45 32.6755V22.8949C45 20.774 40.5979 19.6643 36.2495 19.6643ZM24.8026 36.7211C19.9755 36.7211 17.3419 35.4389 17.3419 34.78V33.2914C18.9656 34.2544 21.8951 34.7512 24.8026 34.7512C27.7101 34.7512 30.6391 34.2544 32.2628 33.2914V34.78C32.2628 35.4389 29.6297 36.7211 24.8026 36.7211ZM17.3419 23.5112C18.9656 24.4742 21.8951 24.971 24.8026 24.971C27.7101 24.971 30.6391 24.4742 32.2628 23.5112V24.9998C32.2628 25.6583 29.6297 26.9404 24.8026 26.9404C19.9755 26.9404 17.3419 25.6583 17.3419 24.9998V23.5112ZM17.3419 26.771C18.9656 27.734 21.8951 28.2308 24.8026 28.2308C27.7101 28.2308 30.6391 27.734 32.2628 26.771V28.26C32.2628 28.9185 29.6297 30.2007 24.8026 30.2007C19.9755 30.2007 17.3419 28.9185 17.3419 28.26V26.771ZM17.3419 30.0312C18.9656 30.9942 21.8951 31.491 24.8026 31.491C27.7101 31.491 30.6391 30.9942 32.2628 30.0312V31.5202C32.2628 32.1787 29.6297 33.4609 24.8026 33.4609C19.9755 33.4609 17.3419 32.1787 17.3419 31.5202V30.0312ZM24.8026 23.6807C19.9755 23.6807 17.3419 22.3985 17.3419 21.7396V20.251C18.9656 21.214 21.8951 21.7108 24.8026 21.7108C27.7101 21.7108 30.6391 21.214 32.2628 20.251V21.7396C32.2628 22.3985 29.6297 23.6807 24.8026 23.6807ZM24.8026 20.4204C19.9755 20.4204 17.3419 19.1383 17.3419 18.4794V16.9908C18.9656 17.9538 21.8951 18.4505 24.8026 18.4505C27.7101 18.4505 30.6391 17.9538 32.2628 16.9908V18.4794C32.2628 19.1383 29.6297 20.4204 24.8026 20.4204ZM24.8026 17.1598C19.9755 17.1598 17.3419 15.8776 17.3419 15.2192V13.7327C17.354 13.74 17.3677 13.7465 17.3798 13.7533C17.4615 13.8011 17.5462 13.8475 17.6344 13.8927L17.6667 13.9099C17.7686 13.9615 17.8757 14.0114 17.9858 14.06L18.0542 14.0893C18.1527 14.1318 18.2542 14.1731 18.3587 14.2131L18.4 14.229C20.0787 14.8643 22.4477 15.1903 24.8026 15.1903C27.1583 15.1903 29.5286 14.8639 31.2073 14.2282L31.2426 14.2149C31.3492 14.174 31.4529 14.1318 31.5535 14.0884L31.6172 14.0613C31.7282 14.0123 31.8357 13.9624 31.9389 13.9103L31.9665 13.8957C32.0563 13.8497 32.1424 13.8024 32.2258 13.7538L32.2632 13.7336V15.2204C32.2628 15.8781 29.6297 17.1598 24.8026 17.1598ZM24.8026 10.0179C29.6297 10.0179 32.2628 11.3 32.2628 11.9589C32.2628 12.6174 29.6297 13.8996 24.8026 13.8996C19.9755 13.8996 17.3419 12.6174 17.3419 11.9589C17.3419 11.3 19.9755 10.0179 24.8026 10.0179ZM13.7505 16.0613C14.5299 16.0613 15.3015 16.0983 16.0516 16.1723V19.8213C15.8615 19.8398 15.6723 19.86 15.48 19.8738C15.3462 19.8837 15.2142 19.8957 15.0796 19.903C14.6372 19.9287 14.1941 19.942 13.751 19.943C12.5441 19.943 11.4744 19.863 10.5488 19.7323C7.77204 19.3409 6.29075 18.4961 6.29075 18.0019C6.29075 17.3435 8.92387 16.0613 13.7505 16.0613ZM6.29032 19.7757C6.29892 19.7809 6.30925 19.7856 6.31828 19.7908C6.43183 19.857 6.5514 19.9215 6.67742 19.9835L6.74237 20.0144C6.87815 20.08 7.016 20.1413 7.1557 20.1981C7.29849 20.2561 7.4486 20.3108 7.60258 20.3641L7.68473 20.3925C7.83398 20.4428 7.98796 20.491 8.14624 20.5366L8.23699 20.5624C8.40258 20.6088 8.57161 20.654 8.74538 20.6957L8.7643 20.7C8.94366 20.743 9.12774 20.783 9.31484 20.8209L9.36086 20.8303C9.5514 20.8682 9.74624 20.9035 9.94409 20.9357L9.99011 20.943C11.1716 21.1353 12.4632 21.2333 13.7514 21.2333C13.7828 21.2333 13.8138 21.2308 13.8456 21.2303C14.3035 21.2291 14.7613 21.2154 15.2185 21.189L15.3157 21.1843C15.5617 21.1695 15.8075 21.1508 16.0529 21.1284V23.0828C15.2891 23.1619 14.5218 23.2028 13.754 23.2054C8.92559 23.2054 6.29161 21.9211 6.29161 21.2613V19.7757H6.29032ZM6.29032 23.0342C7.91441 23.9981 10.8443 24.4957 13.7527 24.4957C14.5385 24.4957 15.3037 24.4484 16.0516 24.3783V26.3435C15.2878 26.4225 14.5206 26.4634 13.7527 26.466C8.9243 26.466 6.29032 25.1817 6.29032 24.5219V23.0342ZM6.29032 26.2944C7.91441 27.2583 10.8443 27.7559 13.7527 27.7559C14.5385 27.7559 15.3037 27.7086 16.0516 27.6385V29.6037C15.2878 29.6828 14.5206 29.7237 13.7527 29.7262C8.9243 29.7262 6.29032 28.4419 6.29032 27.7822V26.2944ZM6.29032 29.5546C7.91441 30.5185 10.8443 31.0161 13.7527 31.0161C14.5385 31.0161 15.3037 30.9688 16.0516 30.8987V32.8639C15.2878 32.943 14.5206 32.9839 13.7527 32.9865C8.9243 32.9865 6.29032 31.7022 6.29032 31.0424V29.5546ZM13.7505 36.2441C8.92344 36.2441 6.29032 34.9619 6.29032 34.3035V32.8148C7.91441 33.7787 10.8443 34.2764 13.7527 34.2764C14.5385 34.2764 15.3037 34.229 16.0516 34.1589V36.1336C15.2868 36.2078 14.5189 36.2447 13.7505 36.2441ZM24.8026 39.9817C19.9755 39.9817 17.3419 38.6996 17.3419 38.0407V36.5521C18.9656 37.5151 21.8951 38.0118 24.8026 38.0118C27.7101 38.0118 30.6391 37.5151 32.2628 36.5521V38.0407C32.2628 38.6996 29.6297 39.9817 24.8026 39.9817ZM36.2495 34.6166C35.3243 34.6166 34.4202 34.565 33.5531 34.4639V32.5026C34.4189 32.5968 35.3209 32.6462 36.2473 32.6462C39.1557 32.6462 42.0856 32.1495 43.7097 31.1869V32.6764C43.7097 33.3344 41.0766 34.6166 36.2495 34.6166ZM36.2473 31.3555C35.317 31.3555 34.4151 31.3022 33.5531 31.2024V29.2424C34.4189 29.3366 35.3213 29.3856 36.2473 29.3856C39.1557 29.3856 42.0856 28.8888 43.7097 27.9262V29.4157C43.7097 30.0742 41.0757 31.3555 36.2473 31.3555ZM36.2473 28.0953C35.3174 28.0953 34.4151 28.0419 33.5531 27.9422V25.9817C33.5712 25.9839 33.5901 25.9852 33.6082 25.9869C33.6783 25.9946 33.7501 26.0002 33.8206 26.0071C33.9996 26.0247 34.1789 26.0411 34.3609 26.0544C34.4895 26.0643 34.6189 26.0716 34.7484 26.0794C35.0319 26.0953 35.3157 26.1072 35.5996 26.1151L35.7505 26.1176C35.9166 26.1207 36.0817 26.1262 36.249 26.1262C38.6727 26.1262 41.1114 25.7813 42.797 25.1086L42.8108 25.1035C42.9617 25.0428 43.1054 24.9792 43.2439 24.9133L43.3084 24.8828C43.4383 24.8192 43.5622 24.7529 43.6796 24.6845C43.689 24.6789 43.7002 24.6742 43.7097 24.6686V26.1559C43.7097 26.814 41.0757 28.0953 36.2473 28.0953ZM36.2495 24.8359C35.834 24.8359 35.4245 24.8222 35.0189 24.8015C34.9411 24.7976 34.8628 24.7942 34.7854 24.7895C34.4008 24.7663 34.0169 24.7332 33.634 24.6901L33.5535 24.6802V21.1073C34.4486 21.0042 35.3489 20.9533 36.2499 20.9546C41.077 20.9546 43.7101 22.2368 43.7101 22.8953C43.7101 23.5538 41.0766 24.8359 36.2495 24.8359Z" fill="#197D7F"/>
</svg>
