<svg width="38" height="34" viewBox="0 0 38 34" fill="none" xmlns="http://www.w3.org/2000/svg">
<mask id="path-1-outside-1_326_21474" maskUnits="userSpaceOnUse" x="-1.5" y="-2.24609" width="41" height="38" fill="black">
<rect fill="white" x="-1.5" y="-2.24609" width="41" height="38"/>
<path d="M10 0.753901L13.9 3.5539C13.2333 4.42057 12.4333 5.7539 11.5 7.5539C10.5667 9.28724 9.76667 11.2206 9.1 13.3539C8.43333 15.4206 8.13333 17.4206 8.2 19.3539C8.66667 19.2206 9.03333 19.1539 9.3 19.1539C9.63333 19.0872 9.96667 19.0539 10.3 19.0539C12.1 19.0539 13.7 19.5872 15.1 20.6539C16.5 21.6539 17.2 23.3206 17.2 25.6539C17.2 27.6539 16.5333 29.4206 15.2 30.9539C13.9333 32.4206 12.2 33.1539 10 33.1539C6.93333 33.2206 4.63333 32.2539 3.1 30.2539C1.56667 28.1872 0.8 25.6539 0.8 22.6539C0.8 20.5206 1.13333 18.2539 1.8 15.8539C2.46667 13.4539 3.46667 10.9872 4.8 8.4539C6.2 5.8539 7.93333 3.28723 10 0.753901ZM30 0.753901L33.9 3.5539C33.2333 4.42057 32.4333 5.7539 31.5 7.5539C30.5667 9.28724 29.7667 11.2206 29.1 13.3539C28.4333 15.4206 28.1333 17.4206 28.2 19.3539C28.6667 19.2206 29.0333 19.1539 29.3 19.1539C29.6333 19.0872 29.9667 19.0539 30.3 19.0539C32.1 19.0539 33.7 19.5872 35.1 20.6539C36.5 21.6539 37.2 23.3206 37.2 25.6539C37.2 27.6539 36.5333 29.4206 35.2 30.9539C33.9333 32.4206 32.2 33.1539 30 33.1539C26.9333 33.2206 24.6333 32.2539 23.1 30.2539C21.5667 28.1872 20.8 25.6539 20.8 22.6539C20.8 20.5206 21.1333 18.2539 21.8 15.8539C22.4667 13.4539 23.4667 10.9872 24.8 8.4539C26.2 5.8539 27.9333 3.28723 30 0.753901Z"/>
</mask>
<path d="M10 0.753901L11.1664 -0.870747L9.63892 -1.96741L8.45027 -0.510352L10 0.753901ZM13.9 3.5539L15.4852 4.77332L16.7456 3.13484L15.0664 1.92925L13.9 3.5539ZM11.5 7.5539L13.2609 8.5021L13.2683 8.48838L13.2755 8.47454L11.5 7.5539ZM9.1 13.3539L11.0034 13.9679L11.0062 13.9592L11.009 13.9505L9.1 13.3539ZM8.2 19.3539L6.20119 19.4228L6.28936 21.9798L8.74945 21.277L8.2 19.3539ZM9.3 19.1539V21.1539H9.49804L9.69223 21.1151L9.3 19.1539ZM15.1 20.6539L13.8879 22.2448L13.9124 22.2634L13.9375 22.2814L15.1 20.6539ZM15.2 30.9539L13.6908 29.6415L13.6864 29.6467L15.2 30.9539ZM10 33.1539V31.1539H9.97826L9.95653 31.1544L10 33.1539ZM3.1 30.2539L1.4938 31.4456L1.5032 31.4583L1.51279 31.4708L3.1 30.2539ZM4.8 8.4539L3.03906 7.5057L3.03457 7.51404L3.03016 7.52241L4.8 8.4539ZM30 0.753901L31.1664 -0.870747L29.6389 -1.96741L28.4503 -0.510353L30 0.753901ZM33.9 3.5539L35.4852 4.77332L36.7456 3.13484L35.0664 1.92925L33.9 3.5539ZM31.5 7.5539L33.2609 8.5021L33.2683 8.48838L33.2755 8.47454L31.5 7.5539ZM29.1 13.3539L31.0034 13.9679L31.0062 13.9592L31.009 13.9505L29.1 13.3539ZM28.2 19.3539L26.2012 19.4228L26.2894 21.9798L28.7495 21.277L28.2 19.3539ZM29.3 19.1539V21.1539H29.498L29.6922 21.1151L29.3 19.1539ZM35.1 20.6539L33.8879 22.2448L33.9124 22.2634L33.9375 22.2814L35.1 20.6539ZM35.2 30.9539L33.6908 29.6415L33.6864 29.6467L35.2 30.9539ZM30 33.1539V31.1539H29.9783L29.9565 31.1544L30 33.1539ZM23.1 30.2539L21.4938 31.4456L21.5032 31.4583L21.5128 31.4708L23.1 30.2539ZM24.8 8.4539L23.0391 7.5057L23.0346 7.51404L23.0302 7.52241L24.8 8.4539ZM8.83359 2.37855L12.7336 5.17855L15.0664 1.92925L11.1664 -0.870747L8.83359 2.37855ZM12.3148 2.33448C11.539 3.34292 10.6746 4.80092 9.72449 6.63327L13.2755 8.47454C14.1921 6.70688 14.9276 5.49821 15.4852 4.77332L12.3148 2.33448ZM9.73906 6.6057C8.73782 8.46514 7.89072 10.5184 7.19104 12.7574L11.009 13.9505C11.6426 11.9228 12.3955 10.1093 13.2609 8.5021L9.73906 6.6057ZM7.19658 12.7399C6.46746 15.0002 6.12563 17.2315 6.20119 19.4228L10.1988 19.285C10.141 17.6096 10.3992 15.841 11.0034 13.9679L7.19658 12.7399ZM8.74945 21.277C8.93736 21.2233 9.07991 21.1903 9.18278 21.1716C9.29071 21.152 9.32336 21.1539 9.3 21.1539V17.1539C8.75385 17.1539 8.17523 17.2809 7.65055 17.4309L8.74945 21.277ZM9.69223 21.1151C9.89898 21.0737 10.101 21.0539 10.3 21.0539V17.0539C9.83238 17.0539 9.36769 17.1008 8.90777 17.1927L9.69223 21.1151ZM10.3 21.0539C11.6728 21.0539 12.8447 21.4499 13.8879 22.2448L16.3121 19.063C14.5553 17.7245 12.5272 17.0539 10.3 17.0539V21.0539ZM13.9375 22.2814C14.6369 22.7809 15.2 23.7163 15.2 25.6539H19.2C19.2 22.9249 18.3631 20.5269 16.2625 19.0264L13.9375 22.2814ZM15.2 25.6539C15.2 27.1632 14.7132 28.4658 13.6908 29.6415L16.7092 32.2663C18.3535 30.3754 19.2 28.1446 19.2 25.6539H15.2ZM13.6864 29.6467C12.8534 30.6112 11.7064 31.1539 10 31.1539V35.1539C12.6936 35.1539 15.0133 34.23 16.7136 32.2611L13.6864 29.6467ZM9.95653 31.1544C7.37159 31.2106 5.74695 30.4193 4.68721 29.037L1.51279 31.4708C3.51972 34.0885 6.49508 35.2306 10.0435 35.1534L9.95653 31.1544ZM4.7062 29.0622C3.4693 27.3951 2.8 25.2984 2.8 22.6539H-1.2C-1.2 26.0094 -0.335963 28.9794 1.4938 31.4456L4.7062 29.0622ZM2.8 22.6539C2.8 20.7287 3.1009 18.6433 3.72704 16.3892L-0.127036 15.3186C-0.834237 17.8645 -1.2 20.3124 -1.2 22.6539H2.8ZM3.72704 16.3892C4.35041 14.1451 5.29324 11.8109 6.56984 9.3854L3.03016 7.52241C1.64009 10.1636 0.582926 12.7628 -0.127036 15.3186L3.72704 16.3892ZM6.56094 9.4021C7.89472 6.92508 9.55491 4.46341 11.5497 2.01816L8.45027 -0.510352C6.31175 2.11105 4.50528 4.78273 3.03906 7.5057L6.56094 9.4021ZM28.8336 2.37855L32.7336 5.17855L35.0664 1.92925L31.1664 -0.870747L28.8336 2.37855ZM32.3148 2.33448C31.539 3.34292 30.6746 4.80092 29.7245 6.63327L33.2755 8.47454C34.1921 6.70688 34.9276 5.49822 35.4852 4.77332L32.3148 2.33448ZM29.7391 6.6057C28.7378 8.46514 27.8907 10.5184 27.191 12.7574L31.009 13.9505C31.6426 11.9228 32.3955 10.1093 33.2609 8.5021L29.7391 6.6057ZM27.1966 12.7399C26.4675 15.0002 26.1256 17.2315 26.2012 19.4228L30.1988 19.285C30.141 17.6096 30.3992 15.841 31.0034 13.9679L27.1966 12.7399ZM28.7495 21.277C28.9374 21.2233 29.0799 21.1903 29.1828 21.1716C29.2907 21.152 29.3234 21.1539 29.3 21.1539V17.1539C28.7538 17.1539 28.1752 17.2809 27.6506 17.4309L28.7495 21.277ZM29.6922 21.1151C29.899 21.0737 30.101 21.0539 30.3 21.0539V17.0539C29.8324 17.0539 29.3677 17.1008 28.9078 17.1927L29.6922 21.1151ZM30.3 21.0539C31.6728 21.0539 32.8447 21.4499 33.8879 22.2448L36.3121 19.063C34.5553 17.7245 32.5272 17.0539 30.3 17.0539V21.0539ZM33.9375 22.2814C34.6369 22.7809 35.2 23.7163 35.2 25.6539H39.2C39.2 22.9249 38.3631 20.5269 36.2625 19.0264L33.9375 22.2814ZM35.2 25.6539C35.2 27.1632 34.7132 28.4658 33.6908 29.6415L36.7092 32.2663C38.3535 30.3754 39.2 28.1446 39.2 25.6539H35.2ZM33.6864 29.6467C32.8534 30.6112 31.7064 31.1539 30 31.1539V35.1539C32.6936 35.1539 35.0133 34.23 36.7136 32.2611L33.6864 29.6467ZM29.9565 31.1544C27.3716 31.2106 25.747 30.4193 24.6872 29.037L21.5128 31.4708C23.5197 34.0885 26.4951 35.2306 30.0435 35.1534L29.9565 31.1544ZM24.7062 29.0622C23.4693 27.3951 22.8 25.2984 22.8 22.6539H18.8C18.8 26.0094 19.664 28.9794 21.4938 31.4456L24.7062 29.0622ZM22.8 22.6539C22.8 20.7287 23.1009 18.6433 23.727 16.3892L19.873 15.3186C19.1658 17.8645 18.8 20.3124 18.8 22.6539H22.8ZM23.727 16.3892C24.3504 14.1451 25.2932 11.8109 26.5698 9.3854L23.0302 7.52241C21.6401 10.1636 20.5829 12.7628 19.873 15.3186L23.727 16.3892ZM26.5609 9.4021C27.8947 6.92508 29.5549 4.46341 31.5497 2.01816L28.4503 -0.510353C26.3118 2.11105 24.5053 4.78272 23.0391 7.5057L26.5609 9.4021Z" fill="#0A3231" mask="url(#path-1-outside-1_326_21474)"/>
<path d="M10 0.753901L11.1664 -0.870747L9.63892 -1.96741L8.45027 -0.510352L10 0.753901ZM13.9 3.5539L15.4852 4.77332L16.7456 3.13484L15.0664 1.92925L13.9 3.5539ZM11.5 7.5539L13.2609 8.5021L13.2683 8.48838L13.2755 8.47454L11.5 7.5539ZM9.1 13.3539L11.0034 13.9679L11.0062 13.9592L11.009 13.9505L9.1 13.3539ZM8.2 19.3539L6.20119 19.4228L6.28936 21.9798L8.74945 21.277L8.2 19.3539ZM9.3 19.1539V21.1539H9.49804L9.69223 21.1151L9.3 19.1539ZM15.1 20.6539L13.8879 22.2448L13.9124 22.2634L13.9375 22.2814L15.1 20.6539ZM15.2 30.9539L13.6908 29.6415L13.6864 29.6467L15.2 30.9539ZM10 33.1539V31.1539H9.97826L9.95653 31.1544L10 33.1539ZM3.1 30.2539L1.4938 31.4456L1.5032 31.4583L1.51279 31.4708L3.1 30.2539ZM4.8 8.4539L3.03906 7.5057L3.03457 7.51404L3.03016 7.52241L4.8 8.4539ZM30 0.753901L31.1664 -0.870747L29.6389 -1.96741L28.4503 -0.510353L30 0.753901ZM33.9 3.5539L35.4852 4.77332L36.7456 3.13484L35.0664 1.92925L33.9 3.5539ZM31.5 7.5539L33.2609 8.5021L33.2683 8.48838L33.2755 8.47454L31.5 7.5539ZM29.1 13.3539L31.0034 13.9679L31.0062 13.9592L31.009 13.9505L29.1 13.3539ZM28.2 19.3539L26.2012 19.4228L26.2894 21.9798L28.7495 21.277L28.2 19.3539ZM29.3 19.1539V21.1539H29.498L29.6922 21.1151L29.3 19.1539ZM35.1 20.6539L33.8879 22.2448L33.9124 22.2634L33.9375 22.2814L35.1 20.6539ZM35.2 30.9539L33.6908 29.6415L33.6864 29.6467L35.2 30.9539ZM30 33.1539V31.1539H29.9783L29.9565 31.1544L30 33.1539ZM23.1 30.2539L21.4938 31.4456L21.5032 31.4583L21.5128 31.4708L23.1 30.2539ZM24.8 8.4539L23.0391 7.5057L23.0346 7.51404L23.0302 7.52241L24.8 8.4539ZM8.83359 2.37855L12.7336 5.17855L15.0664 1.92925L11.1664 -0.870747L8.83359 2.37855ZM12.3148 2.33448C11.539 3.34292 10.6746 4.80092 9.72449 6.63327L13.2755 8.47454C14.1921 6.70688 14.9276 5.49821 15.4852 4.77332L12.3148 2.33448ZM9.73906 6.6057C8.73782 8.46514 7.89072 10.5184 7.19104 12.7574L11.009 13.9505C11.6426 11.9228 12.3955 10.1093 13.2609 8.5021L9.73906 6.6057ZM7.19658 12.7399C6.46746 15.0002 6.12563 17.2315 6.20119 19.4228L10.1988 19.285C10.141 17.6096 10.3992 15.841 11.0034 13.9679L7.19658 12.7399ZM8.74945 21.277C8.93736 21.2233 9.07991 21.1903 9.18278 21.1716C9.29071 21.152 9.32336 21.1539 9.3 21.1539V17.1539C8.75385 17.1539 8.17523 17.2809 7.65055 17.4309L8.74945 21.277ZM9.69223 21.1151C9.89898 21.0737 10.101 21.0539 10.3 21.0539V17.0539C9.83238 17.0539 9.36769 17.1008 8.90777 17.1927L9.69223 21.1151ZM10.3 21.0539C11.6728 21.0539 12.8447 21.4499 13.8879 22.2448L16.3121 19.063C14.5553 17.7245 12.5272 17.0539 10.3 17.0539V21.0539ZM13.9375 22.2814C14.6369 22.7809 15.2 23.7163 15.2 25.6539H19.2C19.2 22.9249 18.3631 20.5269 16.2625 19.0264L13.9375 22.2814ZM15.2 25.6539C15.2 27.1632 14.7132 28.4658 13.6908 29.6415L16.7092 32.2663C18.3535 30.3754 19.2 28.1446 19.2 25.6539H15.2ZM13.6864 29.6467C12.8534 30.6112 11.7064 31.1539 10 31.1539V35.1539C12.6936 35.1539 15.0133 34.23 16.7136 32.2611L13.6864 29.6467ZM9.95653 31.1544C7.37159 31.2106 5.74695 30.4193 4.68721 29.037L1.51279 31.4708C3.51972 34.0885 6.49508 35.2306 10.0435 35.1534L9.95653 31.1544ZM4.7062 29.0622C3.4693 27.3951 2.8 25.2984 2.8 22.6539H-1.2C-1.2 26.0094 -0.335963 28.9794 1.4938 31.4456L4.7062 29.0622ZM2.8 22.6539C2.8 20.7287 3.1009 18.6433 3.72704 16.3892L-0.127036 15.3186C-0.834237 17.8645 -1.2 20.3124 -1.2 22.6539H2.8ZM3.72704 16.3892C4.35041 14.1451 5.29324 11.8109 6.56984 9.3854L3.03016 7.52241C1.64009 10.1636 0.582926 12.7628 -0.127036 15.3186L3.72704 16.3892ZM6.56094 9.4021C7.89472 6.92508 9.55491 4.46341 11.5497 2.01816L8.45027 -0.510352C6.31175 2.11105 4.50528 4.78273 3.03906 7.5057L6.56094 9.4021ZM28.8336 2.37855L32.7336 5.17855L35.0664 1.92925L31.1664 -0.870747L28.8336 2.37855ZM32.3148 2.33448C31.539 3.34292 30.6746 4.80092 29.7245 6.63327L33.2755 8.47454C34.1921 6.70688 34.9276 5.49822 35.4852 4.77332L32.3148 2.33448ZM29.7391 6.6057C28.7378 8.46514 27.8907 10.5184 27.191 12.7574L31.009 13.9505C31.6426 11.9228 32.3955 10.1093 33.2609 8.5021L29.7391 6.6057ZM27.1966 12.7399C26.4675 15.0002 26.1256 17.2315 26.2012 19.4228L30.1988 19.285C30.141 17.6096 30.3992 15.841 31.0034 13.9679L27.1966 12.7399ZM28.7495 21.277C28.9374 21.2233 29.0799 21.1903 29.1828 21.1716C29.2907 21.152 29.3234 21.1539 29.3 21.1539V17.1539C28.7538 17.1539 28.1752 17.2809 27.6506 17.4309L28.7495 21.277ZM29.6922 21.1151C29.899 21.0737 30.101 21.0539 30.3 21.0539V17.0539C29.8324 17.0539 29.3677 17.1008 28.9078 17.1927L29.6922 21.1151ZM30.3 21.0539C31.6728 21.0539 32.8447 21.4499 33.8879 22.2448L36.3121 19.063C34.5553 17.7245 32.5272 17.0539 30.3 17.0539V21.0539ZM33.9375 22.2814C34.6369 22.7809 35.2 23.7163 35.2 25.6539H39.2C39.2 22.9249 38.3631 20.5269 36.2625 19.0264L33.9375 22.2814ZM35.2 25.6539C35.2 27.1632 34.7132 28.4658 33.6908 29.6415L36.7092 32.2663C38.3535 30.3754 39.2 28.1446 39.2 25.6539H35.2ZM33.6864 29.6467C32.8534 30.6112 31.7064 31.1539 30 31.1539V35.1539C32.6936 35.1539 35.0133 34.23 36.7136 32.2611L33.6864 29.6467ZM29.9565 31.1544C27.3716 31.2106 25.747 30.4193 24.6872 29.037L21.5128 31.4708C23.5197 34.0885 26.4951 35.2306 30.0435 35.1534L29.9565 31.1544ZM24.7062 29.0622C23.4693 27.3951 22.8 25.2984 22.8 22.6539H18.8C18.8 26.0094 19.664 28.9794 21.4938 31.4456L24.7062 29.0622ZM22.8 22.6539C22.8 20.7287 23.1009 18.6433 23.727 16.3892L19.873 15.3186C19.1658 17.8645 18.8 20.3124 18.8 22.6539H22.8ZM23.727 16.3892C24.3504 14.1451 25.2932 11.8109 26.5698 9.3854L23.0302 7.52241C21.6401 10.1636 20.5829 12.7628 19.873 15.3186L23.727 16.3892ZM26.5609 9.4021C27.8947 6.92508 29.5549 4.46341 31.5497 2.01816L28.4503 -0.510353C26.3118 2.11105 24.5053 4.78272 23.0391 7.5057L26.5609 9.4021Z" fill="black" fill-opacity="0.2" mask="url(#path-1-outside-1_326_21474)"/>
<path d="M10 0.753901L11.1664 -0.870747L9.63892 -1.96741L8.45027 -0.510352L10 0.753901ZM13.9 3.5539L15.4852 4.77332L16.7456 3.13484L15.0664 1.92925L13.9 3.5539ZM11.5 7.5539L13.2609 8.5021L13.2683 8.48838L13.2755 8.47454L11.5 7.5539ZM9.1 13.3539L11.0034 13.9679L11.0062 13.9592L11.009 13.9505L9.1 13.3539ZM8.2 19.3539L6.20119 19.4228L6.28936 21.9798L8.74945 21.277L8.2 19.3539ZM9.3 19.1539V21.1539H9.49804L9.69223 21.1151L9.3 19.1539ZM15.1 20.6539L13.8879 22.2448L13.9124 22.2634L13.9375 22.2814L15.1 20.6539ZM15.2 30.9539L13.6908 29.6415L13.6864 29.6467L15.2 30.9539ZM10 33.1539V31.1539H9.97826L9.95653 31.1544L10 33.1539ZM3.1 30.2539L1.4938 31.4456L1.5032 31.4583L1.51279 31.4708L3.1 30.2539ZM4.8 8.4539L3.03906 7.5057L3.03457 7.51404L3.03016 7.52241L4.8 8.4539ZM30 0.753901L31.1664 -0.870747L29.6389 -1.96741L28.4503 -0.510353L30 0.753901ZM33.9 3.5539L35.4852 4.77332L36.7456 3.13484L35.0664 1.92925L33.9 3.5539ZM31.5 7.5539L33.2609 8.5021L33.2683 8.48838L33.2755 8.47454L31.5 7.5539ZM29.1 13.3539L31.0034 13.9679L31.0062 13.9592L31.009 13.9505L29.1 13.3539ZM28.2 19.3539L26.2012 19.4228L26.2894 21.9798L28.7495 21.277L28.2 19.3539ZM29.3 19.1539V21.1539H29.498L29.6922 21.1151L29.3 19.1539ZM35.1 20.6539L33.8879 22.2448L33.9124 22.2634L33.9375 22.2814L35.1 20.6539ZM35.2 30.9539L33.6908 29.6415L33.6864 29.6467L35.2 30.9539ZM30 33.1539V31.1539H29.9783L29.9565 31.1544L30 33.1539ZM23.1 30.2539L21.4938 31.4456L21.5032 31.4583L21.5128 31.4708L23.1 30.2539ZM24.8 8.4539L23.0391 7.5057L23.0346 7.51404L23.0302 7.52241L24.8 8.4539ZM8.83359 2.37855L12.7336 5.17855L15.0664 1.92925L11.1664 -0.870747L8.83359 2.37855ZM12.3148 2.33448C11.539 3.34292 10.6746 4.80092 9.72449 6.63327L13.2755 8.47454C14.1921 6.70688 14.9276 5.49821 15.4852 4.77332L12.3148 2.33448ZM9.73906 6.6057C8.73782 8.46514 7.89072 10.5184 7.19104 12.7574L11.009 13.9505C11.6426 11.9228 12.3955 10.1093 13.2609 8.5021L9.73906 6.6057ZM7.19658 12.7399C6.46746 15.0002 6.12563 17.2315 6.20119 19.4228L10.1988 19.285C10.141 17.6096 10.3992 15.841 11.0034 13.9679L7.19658 12.7399ZM8.74945 21.277C8.93736 21.2233 9.07991 21.1903 9.18278 21.1716C9.29071 21.152 9.32336 21.1539 9.3 21.1539V17.1539C8.75385 17.1539 8.17523 17.2809 7.65055 17.4309L8.74945 21.277ZM9.69223 21.1151C9.89898 21.0737 10.101 21.0539 10.3 21.0539V17.0539C9.83238 17.0539 9.36769 17.1008 8.90777 17.1927L9.69223 21.1151ZM10.3 21.0539C11.6728 21.0539 12.8447 21.4499 13.8879 22.2448L16.3121 19.063C14.5553 17.7245 12.5272 17.0539 10.3 17.0539V21.0539ZM13.9375 22.2814C14.6369 22.7809 15.2 23.7163 15.2 25.6539H19.2C19.2 22.9249 18.3631 20.5269 16.2625 19.0264L13.9375 22.2814ZM15.2 25.6539C15.2 27.1632 14.7132 28.4658 13.6908 29.6415L16.7092 32.2663C18.3535 30.3754 19.2 28.1446 19.2 25.6539H15.2ZM13.6864 29.6467C12.8534 30.6112 11.7064 31.1539 10 31.1539V35.1539C12.6936 35.1539 15.0133 34.23 16.7136 32.2611L13.6864 29.6467ZM9.95653 31.1544C7.37159 31.2106 5.74695 30.4193 4.68721 29.037L1.51279 31.4708C3.51972 34.0885 6.49508 35.2306 10.0435 35.1534L9.95653 31.1544ZM4.7062 29.0622C3.4693 27.3951 2.8 25.2984 2.8 22.6539H-1.2C-1.2 26.0094 -0.335963 28.9794 1.4938 31.4456L4.7062 29.0622ZM2.8 22.6539C2.8 20.7287 3.1009 18.6433 3.72704 16.3892L-0.127036 15.3186C-0.834237 17.8645 -1.2 20.3124 -1.2 22.6539H2.8ZM3.72704 16.3892C4.35041 14.1451 5.29324 11.8109 6.56984 9.3854L3.03016 7.52241C1.64009 10.1636 0.582926 12.7628 -0.127036 15.3186L3.72704 16.3892ZM6.56094 9.4021C7.89472 6.92508 9.55491 4.46341 11.5497 2.01816L8.45027 -0.510352C6.31175 2.11105 4.50528 4.78273 3.03906 7.5057L6.56094 9.4021ZM28.8336 2.37855L32.7336 5.17855L35.0664 1.92925L31.1664 -0.870747L28.8336 2.37855ZM32.3148 2.33448C31.539 3.34292 30.6746 4.80092 29.7245 6.63327L33.2755 8.47454C34.1921 6.70688 34.9276 5.49822 35.4852 4.77332L32.3148 2.33448ZM29.7391 6.6057C28.7378 8.46514 27.8907 10.5184 27.191 12.7574L31.009 13.9505C31.6426 11.9228 32.3955 10.1093 33.2609 8.5021L29.7391 6.6057ZM27.1966 12.7399C26.4675 15.0002 26.1256 17.2315 26.2012 19.4228L30.1988 19.285C30.141 17.6096 30.3992 15.841 31.0034 13.9679L27.1966 12.7399ZM28.7495 21.277C28.9374 21.2233 29.0799 21.1903 29.1828 21.1716C29.2907 21.152 29.3234 21.1539 29.3 21.1539V17.1539C28.7538 17.1539 28.1752 17.2809 27.6506 17.4309L28.7495 21.277ZM29.6922 21.1151C29.899 21.0737 30.101 21.0539 30.3 21.0539V17.0539C29.8324 17.0539 29.3677 17.1008 28.9078 17.1927L29.6922 21.1151ZM30.3 21.0539C31.6728 21.0539 32.8447 21.4499 33.8879 22.2448L36.3121 19.063C34.5553 17.7245 32.5272 17.0539 30.3 17.0539V21.0539ZM33.9375 22.2814C34.6369 22.7809 35.2 23.7163 35.2 25.6539H39.2C39.2 22.9249 38.3631 20.5269 36.2625 19.0264L33.9375 22.2814ZM35.2 25.6539C35.2 27.1632 34.7132 28.4658 33.6908 29.6415L36.7092 32.2663C38.3535 30.3754 39.2 28.1446 39.2 25.6539H35.2ZM33.6864 29.6467C32.8534 30.6112 31.7064 31.1539 30 31.1539V35.1539C32.6936 35.1539 35.0133 34.23 36.7136 32.2611L33.6864 29.6467ZM29.9565 31.1544C27.3716 31.2106 25.747 30.4193 24.6872 29.037L21.5128 31.4708C23.5197 34.0885 26.4951 35.2306 30.0435 35.1534L29.9565 31.1544ZM24.7062 29.0622C23.4693 27.3951 22.8 25.2984 22.8 22.6539H18.8C18.8 26.0094 19.664 28.9794 21.4938 31.4456L24.7062 29.0622ZM22.8 22.6539C22.8 20.7287 23.1009 18.6433 23.727 16.3892L19.873 15.3186C19.1658 17.8645 18.8 20.3124 18.8 22.6539H22.8ZM23.727 16.3892C24.3504 14.1451 25.2932 11.8109 26.5698 9.3854L23.0302 7.52241C21.6401 10.1636 20.5829 12.7628 19.873 15.3186L23.727 16.3892ZM26.5609 9.4021C27.8947 6.92508 29.5549 4.46341 31.5497 2.01816L28.4503 -0.510353C26.3118 2.11105 24.5053 4.78272 23.0391 7.5057L26.5609 9.4021Z" fill="black" fill-opacity="0.2" mask="url(#path-1-outside-1_326_21474)"/>
<path d="M10 0.753901L11.1664 -0.870747L9.63892 -1.96741L8.45027 -0.510352L10 0.753901ZM13.9 3.5539L15.4852 4.77332L16.7456 3.13484L15.0664 1.92925L13.9 3.5539ZM11.5 7.5539L13.2609 8.5021L13.2683 8.48838L13.2755 8.47454L11.5 7.5539ZM9.1 13.3539L11.0034 13.9679L11.0062 13.9592L11.009 13.9505L9.1 13.3539ZM8.2 19.3539L6.20119 19.4228L6.28936 21.9798L8.74945 21.277L8.2 19.3539ZM9.3 19.1539V21.1539H9.49804L9.69223 21.1151L9.3 19.1539ZM15.1 20.6539L13.8879 22.2448L13.9124 22.2634L13.9375 22.2814L15.1 20.6539ZM15.2 30.9539L13.6908 29.6415L13.6864 29.6467L15.2 30.9539ZM10 33.1539V31.1539H9.97826L9.95653 31.1544L10 33.1539ZM3.1 30.2539L1.4938 31.4456L1.5032 31.4583L1.51279 31.4708L3.1 30.2539ZM4.8 8.4539L3.03906 7.5057L3.03457 7.51404L3.03016 7.52241L4.8 8.4539ZM30 0.753901L31.1664 -0.870747L29.6389 -1.96741L28.4503 -0.510353L30 0.753901ZM33.9 3.5539L35.4852 4.77332L36.7456 3.13484L35.0664 1.92925L33.9 3.5539ZM31.5 7.5539L33.2609 8.5021L33.2683 8.48838L33.2755 8.47454L31.5 7.5539ZM29.1 13.3539L31.0034 13.9679L31.0062 13.9592L31.009 13.9505L29.1 13.3539ZM28.2 19.3539L26.2012 19.4228L26.2894 21.9798L28.7495 21.277L28.2 19.3539ZM29.3 19.1539V21.1539H29.498L29.6922 21.1151L29.3 19.1539ZM35.1 20.6539L33.8879 22.2448L33.9124 22.2634L33.9375 22.2814L35.1 20.6539ZM35.2 30.9539L33.6908 29.6415L33.6864 29.6467L35.2 30.9539ZM30 33.1539V31.1539H29.9783L29.9565 31.1544L30 33.1539ZM23.1 30.2539L21.4938 31.4456L21.5032 31.4583L21.5128 31.4708L23.1 30.2539ZM24.8 8.4539L23.0391 7.5057L23.0346 7.51404L23.0302 7.52241L24.8 8.4539ZM8.83359 2.37855L12.7336 5.17855L15.0664 1.92925L11.1664 -0.870747L8.83359 2.37855ZM12.3148 2.33448C11.539 3.34292 10.6746 4.80092 9.72449 6.63327L13.2755 8.47454C14.1921 6.70688 14.9276 5.49821 15.4852 4.77332L12.3148 2.33448ZM9.73906 6.6057C8.73782 8.46514 7.89072 10.5184 7.19104 12.7574L11.009 13.9505C11.6426 11.9228 12.3955 10.1093 13.2609 8.5021L9.73906 6.6057ZM7.19658 12.7399C6.46746 15.0002 6.12563 17.2315 6.20119 19.4228L10.1988 19.285C10.141 17.6096 10.3992 15.841 11.0034 13.9679L7.19658 12.7399ZM8.74945 21.277C8.93736 21.2233 9.07991 21.1903 9.18278 21.1716C9.29071 21.152 9.32336 21.1539 9.3 21.1539V17.1539C8.75385 17.1539 8.17523 17.2809 7.65055 17.4309L8.74945 21.277ZM9.69223 21.1151C9.89898 21.0737 10.101 21.0539 10.3 21.0539V17.0539C9.83238 17.0539 9.36769 17.1008 8.90777 17.1927L9.69223 21.1151ZM10.3 21.0539C11.6728 21.0539 12.8447 21.4499 13.8879 22.2448L16.3121 19.063C14.5553 17.7245 12.5272 17.0539 10.3 17.0539V21.0539ZM13.9375 22.2814C14.6369 22.7809 15.2 23.7163 15.2 25.6539H19.2C19.2 22.9249 18.3631 20.5269 16.2625 19.0264L13.9375 22.2814ZM15.2 25.6539C15.2 27.1632 14.7132 28.4658 13.6908 29.6415L16.7092 32.2663C18.3535 30.3754 19.2 28.1446 19.2 25.6539H15.2ZM13.6864 29.6467C12.8534 30.6112 11.7064 31.1539 10 31.1539V35.1539C12.6936 35.1539 15.0133 34.23 16.7136 32.2611L13.6864 29.6467ZM9.95653 31.1544C7.37159 31.2106 5.74695 30.4193 4.68721 29.037L1.51279 31.4708C3.51972 34.0885 6.49508 35.2306 10.0435 35.1534L9.95653 31.1544ZM4.7062 29.0622C3.4693 27.3951 2.8 25.2984 2.8 22.6539H-1.2C-1.2 26.0094 -0.335963 28.9794 1.4938 31.4456L4.7062 29.0622ZM2.8 22.6539C2.8 20.7287 3.1009 18.6433 3.72704 16.3892L-0.127036 15.3186C-0.834237 17.8645 -1.2 20.3124 -1.2 22.6539H2.8ZM3.72704 16.3892C4.35041 14.1451 5.29324 11.8109 6.56984 9.3854L3.03016 7.52241C1.64009 10.1636 0.582926 12.7628 -0.127036 15.3186L3.72704 16.3892ZM6.56094 9.4021C7.89472 6.92508 9.55491 4.46341 11.5497 2.01816L8.45027 -0.510352C6.31175 2.11105 4.50528 4.78273 3.03906 7.5057L6.56094 9.4021ZM28.8336 2.37855L32.7336 5.17855L35.0664 1.92925L31.1664 -0.870747L28.8336 2.37855ZM32.3148 2.33448C31.539 3.34292 30.6746 4.80092 29.7245 6.63327L33.2755 8.47454C34.1921 6.70688 34.9276 5.49822 35.4852 4.77332L32.3148 2.33448ZM29.7391 6.6057C28.7378 8.46514 27.8907 10.5184 27.191 12.7574L31.009 13.9505C31.6426 11.9228 32.3955 10.1093 33.2609 8.5021L29.7391 6.6057ZM27.1966 12.7399C26.4675 15.0002 26.1256 17.2315 26.2012 19.4228L30.1988 19.285C30.141 17.6096 30.3992 15.841 31.0034 13.9679L27.1966 12.7399ZM28.7495 21.277C28.9374 21.2233 29.0799 21.1903 29.1828 21.1716C29.2907 21.152 29.3234 21.1539 29.3 21.1539V17.1539C28.7538 17.1539 28.1752 17.2809 27.6506 17.4309L28.7495 21.277ZM29.6922 21.1151C29.899 21.0737 30.101 21.0539 30.3 21.0539V17.0539C29.8324 17.0539 29.3677 17.1008 28.9078 17.1927L29.6922 21.1151ZM30.3 21.0539C31.6728 21.0539 32.8447 21.4499 33.8879 22.2448L36.3121 19.063C34.5553 17.7245 32.5272 17.0539 30.3 17.0539V21.0539ZM33.9375 22.2814C34.6369 22.7809 35.2 23.7163 35.2 25.6539H39.2C39.2 22.9249 38.3631 20.5269 36.2625 19.0264L33.9375 22.2814ZM35.2 25.6539C35.2 27.1632 34.7132 28.4658 33.6908 29.6415L36.7092 32.2663C38.3535 30.3754 39.2 28.1446 39.2 25.6539H35.2ZM33.6864 29.6467C32.8534 30.6112 31.7064 31.1539 30 31.1539V35.1539C32.6936 35.1539 35.0133 34.23 36.7136 32.2611L33.6864 29.6467ZM29.9565 31.1544C27.3716 31.2106 25.747 30.4193 24.6872 29.037L21.5128 31.4708C23.5197 34.0885 26.4951 35.2306 30.0435 35.1534L29.9565 31.1544ZM24.7062 29.0622C23.4693 27.3951 22.8 25.2984 22.8 22.6539H18.8C18.8 26.0094 19.664 28.9794 21.4938 31.4456L24.7062 29.0622ZM22.8 22.6539C22.8 20.7287 23.1009 18.6433 23.727 16.3892L19.873 15.3186C19.1658 17.8645 18.8 20.3124 18.8 22.6539H22.8ZM23.727 16.3892C24.3504 14.1451 25.2932 11.8109 26.5698 9.3854L23.0302 7.52241C21.6401 10.1636 20.5829 12.7628 19.873 15.3186L23.727 16.3892ZM26.5609 9.4021C27.8947 6.92508 29.5549 4.46341 31.5497 2.01816L28.4503 -0.510353C26.3118 2.11105 24.5053 4.78272 23.0391 7.5057L26.5609 9.4021Z" fill="black" fill-opacity="0.2" mask="url(#path-1-outside-1_326_21474)"/>
</svg>
