<svg width="50" height="50" viewBox="0 0 50 50" fill="none" xmlns="http://www.w3.org/2000/svg">
<rect x="0.5" y="0.5" width="49" height="49" rx="4.5" stroke="#197D7F"/>
<path d="M17 37.9412C16.45 37.9412 16 38.4706 16 39.1176C16 39.7647 16.45 40.2941 17 40.2941H24V43.8235C24 44.4706 24.45 45 25 45C25.55 45 26 44.4706 26 43.8235V40.2941H27C30.86 40.2941 34 36.6 34 32.0588C34 27.5176 30.86 23.8235 27 23.8235H26V12.0588H33C33.55 12.0588 34 11.5294 34 10.8824C34 10.2353 33.55 9.70588 33 9.70588H26V6.17647C26 5.52941 25.55 5 25 5C24.45 5 24 5.52941 24 6.17647V9.70588H23C19.14 9.70588 16 13.4 16 17.9412C16 22.4824 19.14 26.1765 23 26.1765H24V37.9412H17ZM26 26.1765H27C29.76 26.1765 32 28.8118 32 32.0588C32 35.3059 29.76 37.9412 27 37.9412H26V26.1765ZM23 23.8235C20.24 23.8235 18 21.1882 18 17.9412C18 14.6941 20.24 12.0588 23 12.0588H24V23.8235H23Z" fill="#197D7F"/>
</svg>
