<svg width="24" height="30" viewBox="0 0 24 30" fill="none" xmlns="http://www.w3.org/2000/svg">
<path d="M3.55047 0.0214844C1.73734 0.0214844 0.261719 1.49711 0.261719 3.31023V23.0277C0.261719 24.8409 1.73734 26.3109 3.55047 26.3109H12.0161C12.0292 26.3109 12.0386 26.2996 12.0536 26.2977C12.5254 27.3894 13.306 28.3194 14.2994 28.9733C15.2928 29.6272 16.4556 29.9766 17.6448 29.9784C19.2604 29.9764 20.8092 29.3337 21.9516 28.1913C23.094 27.049 23.7366 25.5002 23.7386 23.8846C23.7359 22.676 23.3742 21.4955 22.6996 20.4927C22.025 19.4899 21.0677 18.7101 19.9492 18.2521V8.02773C19.9492 8.01273 19.9361 8.00148 19.9342 7.98461C19.9393 7.86309 19.8962 7.74449 19.8142 7.65461L12.3142 0.154609C12.2167 0.0608594 12.0855 0.0364844 11.9542 0.0421094C11.9373 0.0402344 11.9223 0.0214844 11.9036 0.0214844H3.55047ZM3.55047 0.958984H11.5117V5.20023C11.5117 6.99836 12.9761 8.45898 14.7742 8.45898H19.0117V17.9577C18.5641 17.849 18.1054 17.7924 17.6448 17.789C16.0293 17.791 14.4805 18.4336 13.3381 19.576C12.1957 20.7184 11.5531 22.2672 11.5511 23.8827C11.5511 24.4021 11.6355 24.8952 11.7573 25.3734H3.55047C2.92751 25.3724 2.33032 25.1246 1.88964 24.6843C1.44896 24.2439 1.20071 23.6469 1.19922 23.024V3.31023C1.19922 2.01461 2.25484 0.958984 3.55047 0.958984ZM12.4492 1.69586L18.3086 7.52148H14.7686C14.1533 7.52049 13.5634 7.27561 13.1283 6.84051C12.6932 6.40541 12.4483 5.81556 12.4473 5.20023V1.69398L12.4492 1.69586ZM17.643 18.7284C19.01 18.7298 20.3207 19.2736 21.2873 20.2402C22.254 21.2069 22.7977 22.5175 22.7992 23.8846C22.7982 25.2518 22.2547 26.5628 21.2879 27.5295C20.3211 28.4963 19.0102 29.0399 17.643 29.0409C16.2757 29.0399 14.9648 28.4963 13.998 27.5295C13.0313 26.5628 12.4877 25.2518 12.4867 23.8846C12.4882 22.5175 13.0319 21.2069 13.9986 20.2402C14.9653 19.2736 16.2759 18.7298 17.643 18.7284ZM17.1311 21.0777V23.4121H14.7967V24.3496H17.1311V26.6896H18.0686V24.3496H20.4048V23.4121H18.0686V21.0777H17.1311Z" fill="#E8BE38"/>
</svg>
