<svg width="26" height="26" viewBox="0 0 26 26" fill="none" xmlns="http://www.w3.org/2000/svg">
<path fill-rule="evenodd" clip-rule="evenodd" d="M15.9844 14.8989C15.5113 15.0922 15.209 15.8329 14.9024 16.2113C14.7452 16.4052 14.5577 16.4355 14.316 16.3383C12.5401 15.6308 11.1788 14.4457 10.1988 12.8115C10.0328 12.558 10.0626 12.3579 10.2628 12.1225C10.5587 11.7739 10.9307 11.3779 11.0108 10.9082C11.1885 9.86909 9.83016 6.64597 8.03622 8.10641C2.87414 12.3129 16.6475 23.4696 19.1333 17.4355C19.8365 15.725 16.7686 14.5776 15.9844 14.8989ZM13.0001 23.7538C11.1744 23.7538 9.37801 23.2684 7.80527 22.3495C7.55283 22.2015 7.24765 22.1625 6.96543 22.2391L3.54797 23.1771L4.73839 20.5546C4.9005 20.1977 4.85899 19.7821 4.62999 19.4647C3.35656 17.6996 2.68322 15.6156 2.68322 13.4374C2.68322 7.7485 7.31113 3.12059 13.0001 3.12059C18.689 3.12059 23.3164 7.7485 23.3164 13.4374C23.3164 19.1259 18.6885 23.7538 13.0001 23.7538ZM13.0001 0.9375C6.10752 0.9375 0.500131 6.54489 0.500131 13.4374C0.500131 15.8622 1.1886 18.1908 2.4967 20.2118L0.597786 24.3939C0.422494 24.7801 0.486459 25.2323 0.760871 25.5541C0.971808 25.8006 1.27698 25.9374 1.59192 25.9374C2.29602 25.9374 6.13535 24.7308 7.1124 24.4628C8.91854 25.4291 10.9444 25.9374 13.0001 25.9374C19.8921 25.9374 25.5 20.3295 25.5 13.4374C25.5 6.54489 19.8921 0.9375 13.0001 0.9375Z" fill="#E8BE38"/>
</svg>
