<svg width="26" height="21" viewBox="0 0 26 21" fill="none" xmlns="http://www.w3.org/2000/svg">
<path d="M23.3796 0.289873C20.0816 1.65584 5.93996 7.51347 2.03264 9.10996C-0.587792 10.1326 0.946241 11.0914 0.946241 11.0914C0.946241 11.0914 3.18309 11.8582 5.1007 12.4335C7.01804 13.0087 8.04064 12.3697 8.04064 12.3697L17.0524 6.29788C20.248 4.12482 19.4812 5.9143 18.714 6.68145C17.0524 8.34335 14.3041 10.9635 12.0032 13.0728C10.9806 13.9675 11.4917 14.7344 11.9394 15.118C13.601 16.5241 18.139 19.4003 18.3945 19.5919C19.7446 20.5478 22.4005 21.9237 22.8044 19.0167L24.4022 8.98237C24.9137 5.59506 25.4248 2.4632 25.4886 1.56846C25.6806 -0.604868 23.3796 0.289873 23.3796 0.289873Z" fill="#E8BE38"/>
</svg>
