<svg width="50" height="50" viewBox="0 0 50 50" fill="none" xmlns="http://www.w3.org/2000/svg">
<rect x="0.5" y="0.5" width="49" height="49" rx="4.5" stroke="#E8BE38"/>
<path d="M44.2645 36.8642C44.2677 36.8621 41.7662 31.0413 41.7659 31.0337C41.6041 30.6551 41.3346 30.3324 40.9909 30.1057C40.6473 29.879 40.2446 29.7583 39.8329 29.7585H34.8046C34.9083 29.5038 34.9606 29.231 34.9585 28.956C34.9564 28.681 34.8999 28.4091 34.7924 28.1559L31.7208 20.9887C31.5591 20.6102 31.2896 20.2876 30.946 20.061C30.6024 19.8344 30.1998 19.7138 29.7882 19.7142H20.2118C19.8002 19.7138 19.3976 19.8344 19.054 20.061C18.7104 20.2876 18.4409 20.6102 18.2792 20.9887L15.2076 28.1559C15.1001 28.4091 15.0436 28.681 15.0415 28.956C15.0394 29.231 15.0917 29.5038 15.1954 29.7585H10.1672C9.75549 29.7582 9.35281 29.8789 9.0092 30.1056C8.66558 30.3324 8.39618 30.6551 8.2345 31.0337L5.16297 38.2003C5.02956 38.5203 4.9768 38.8681 5.00934 39.2133C5.04189 39.5585 5.15873 39.8904 5.3496 40.1798C5.54047 40.4692 5.79953 40.7073 6.10399 40.8732C6.40845 41.039 6.74899 41.1275 7.09567 41.1309L22.8151 41.1309C23.163 41.131 23.5055 41.0447 23.8119 40.8798C24.1183 40.7148 24.379 40.4765 24.5705 40.186C24.7621 39.8955 24.8785 39.562 24.9095 39.2155C24.9404 38.8689 24.8848 38.5201 24.7477 38.2003L21.6992 31.0866H28.3011L25.2523 38.2003C25.1152 38.5201 25.0596 38.8689 25.0906 39.2155C25.1215 39.562 25.2379 39.8955 25.4295 40.186C25.6211 40.4765 25.8817 40.7148 26.1881 40.8798C26.4945 41.0447 26.837 41.131 27.1849 41.1309H42.9044C43.2511 41.1275 43.5916 41.039 43.8961 40.8732C44.2005 40.7073 44.4596 40.4692 44.6504 40.1798C44.8413 39.8903 44.9581 39.5584 44.9907 39.2133C45.0232 38.8681 44.9704 38.5202 44.837 38.2002L44.2645 36.8642ZM16.4377 28.6827L19.5092 21.5154C19.5681 21.378 19.6661 21.2609 19.791 21.1786C19.9159 21.0963 20.0623 21.0526 20.2118 21.0527H29.7882C29.9377 21.0526 30.0841 21.0963 30.209 21.1786C30.3339 21.2609 30.4319 21.378 30.4908 21.5154L32.5871 26.4069H22.9922C22.8163 26.4094 22.6485 26.481 22.525 26.6062C22.4015 26.7315 22.3323 26.9003 22.3323 27.0762C22.3323 27.2521 22.4015 27.4209 22.525 27.5461C22.6485 27.6714 22.8163 27.743 22.9922 27.7454H33.1607L33.5623 28.6827C33.6111 28.799 33.6304 28.9255 33.6187 29.0511C33.607 29.1767 33.5645 29.2974 33.4951 29.4027C33.4257 29.508 33.3314 29.5946 33.2206 29.6548C33.1098 29.715 32.9858 29.747 32.8597 29.748H17.1403C17.0142 29.747 16.8902 29.715 16.7794 29.6548C16.6686 29.5946 16.5744 29.508 16.5049 29.4027C16.4355 29.2974 16.393 29.1767 16.3813 29.0511C16.3696 28.9255 16.3889 28.799 16.4377 28.6827ZM23.453 39.4486C23.3842 39.555 23.2896 39.6423 23.1781 39.7024C23.0666 39.7625 22.9417 39.7934 22.8151 39.7924H7.09561C6.9695 39.7914 6.84557 39.7594 6.73477 39.6991C6.62396 39.6389 6.52968 39.5523 6.46025 39.4471C6.39082 39.3418 6.34836 39.221 6.33664 39.0954C6.32492 38.9699 6.34428 38.8433 6.39302 38.727L9.46487 31.5604C9.52359 31.4228 9.62147 31.3056 9.74635 31.2232C9.87122 31.1408 10.0176 31.0969 10.1672 31.0971H19.7435C19.8932 31.097 20.0395 31.1408 20.1644 31.2232C20.2894 31.3056 20.3873 31.4229 20.4461 31.5605L22.54 36.446H12.9531C12.7772 36.4485 12.6094 36.5201 12.4859 36.6454C12.3624 36.7706 12.2932 36.9394 12.2932 37.1153C12.2932 37.2912 12.3624 37.46 12.4859 37.5852C12.6094 37.7105 12.7772 37.7821 12.9531 37.7846H23.1137C23.2633 38.2407 23.8157 38.9784 23.453 39.4486ZM43.5423 39.4486C43.4735 39.555 43.379 39.6423 43.2675 39.7024C43.1559 39.7625 43.0311 39.7934 42.9044 39.7924H27.1849C27.0588 39.7914 26.9349 39.7594 26.8241 39.6991C26.7133 39.6389 26.619 39.5523 26.5496 39.4471C26.4801 39.3418 26.4377 39.221 26.426 39.0954C26.4142 38.9699 26.4336 38.8433 26.4824 38.727L29.5542 31.5604C29.6129 31.4229 29.7108 31.3056 29.8357 31.2232C29.9605 31.1408 30.1069 31.0969 30.2565 31.0971H39.8329C39.9825 31.097 40.1289 31.1408 40.2538 31.2232C40.3787 31.3056 40.4766 31.4229 40.5355 31.5605L42.6294 36.446H33.0313C32.8554 36.4485 32.6876 36.5201 32.5641 36.6454C32.4406 36.7706 32.3714 36.9394 32.3714 37.1153C32.3714 37.2912 32.4406 37.46 32.5641 37.5852C32.6876 37.7105 32.8554 37.7821 33.0313 37.7846H43.2031C43.3526 38.2407 43.9051 38.9784 43.5423 39.4486ZM10.276 15.6985C10.1002 15.7011 9.93249 15.7728 9.80911 15.898C9.68572 16.0233 9.61656 16.192 9.61656 16.3678C9.61656 16.5436 9.68572 16.7123 9.80911 16.8376C9.93249 16.9628 10.1002 17.0345 10.276 17.0371C11.5181 17.0385 12.7088 17.5326 13.5871 18.4109C14.4654 19.2891 14.9594 20.4799 14.9609 21.722C14.9634 21.8979 15.035 22.0657 15.1602 22.1892C15.2855 22.3126 15.4543 22.3819 15.6302 22.3819C15.806 22.3819 15.9749 22.3126 16.1001 22.1892C16.2253 22.0657 16.297 21.8979 16.2994 21.722C16.3009 20.4799 16.7949 19.2891 17.6732 18.4109C18.5515 17.5326 19.7423 17.0385 20.9844 17.0371C21.1602 17.0346 21.328 16.963 21.4515 16.8377C21.575 16.7125 21.6442 16.5437 21.6442 16.3678C21.6442 16.1919 21.575 16.0231 21.4515 15.8979C21.328 15.7726 21.1602 15.701 20.9843 15.6985C19.7423 15.6971 18.5515 15.203 17.6732 14.3247C16.7949 13.4465 16.3009 12.2557 16.2994 11.0136C16.2968 10.8378 16.2252 10.6701 16.0999 10.5467C15.9747 10.4234 15.806 10.3542 15.6302 10.3542C15.4544 10.3542 15.2856 10.4234 15.1604 10.5467C15.0352 10.6701 14.9635 10.8378 14.9609 11.0136C14.9594 12.2557 14.4654 13.4465 13.5871 14.3247C12.7088 15.203 11.5181 15.6971 10.276 15.6985ZM15.6302 13.7718C16.2065 14.8846 17.1136 15.7916 18.2265 16.3678C17.1136 16.944 16.2065 17.851 15.6302 18.9639C15.0538 17.851 14.1467 16.944 13.0338 16.3678C14.1467 15.7916 15.0538 14.8846 15.6302 13.7718ZM6.26033 10.0097C7.05883 10.0106 7.82436 10.3282 8.38898 10.8928C8.95361 11.4574 9.27119 12.2229 9.27207 13.0214C9.27455 13.1973 9.34616 13.3651 9.4714 13.4886C9.59665 13.6121 9.76546 13.6813 9.94134 13.6813C10.1172 13.6813 10.286 13.6121 10.4113 13.4886C10.5365 13.3651 10.6081 13.1973 10.6106 13.0214C10.6115 12.2229 10.9291 11.4574 11.4937 10.8928C12.0583 10.3282 12.8239 10.0106 13.6223 10.0097C13.7981 10.0071 13.9658 9.93543 14.0892 9.8102C14.2126 9.68497 14.2818 9.51623 14.2818 9.34043C14.2818 9.16462 14.2126 8.99588 14.0892 8.87065C13.9658 8.74542 13.7981 8.67376 13.6223 8.67115C12.8239 8.67028 12.0583 8.35269 11.4937 7.78807C10.9291 7.22345 10.6115 6.45791 10.6106 5.65942C10.608 5.48364 10.5364 5.31594 10.4112 5.19255C10.2859 5.06916 10.1172 5 9.94137 5C9.76557 5 9.59683 5.06916 9.4716 5.19255C9.34637 5.31594 9.27471 5.48364 9.2721 5.65942C9.27123 6.45791 8.95364 7.22346 8.38902 7.78808C7.8244 8.3527 7.05886 8.67028 6.26037 8.67115C6.08458 8.67376 5.91688 8.74541 5.79349 8.87064C5.6701 8.99586 5.60093 9.16461 5.60093 9.34041C5.60092 9.51621 5.67009 9.68496 5.79347 9.81019C5.91685 9.93543 6.08455 10.0071 6.26033 10.0097ZM9.94134 7.97574C10.2893 8.5263 10.7555 8.99248 11.306 9.34043C10.7555 9.68838 10.2893 10.1546 9.94134 10.7051C9.59339 10.1546 9.12721 9.68838 8.57664 9.34043C9.12721 8.99248 9.59339 8.5263 9.94134 7.97574ZM6.26033 23.3952C7.05883 23.3961 7.82436 23.7136 8.38898 24.2783C8.95361 24.8429 9.27119 25.6084 9.27207 26.4069C9.27455 26.5828 9.34616 26.7506 9.4714 26.8741C9.59665 26.9976 9.76546 27.0668 9.94134 27.0668C10.1172 27.0668 10.286 26.9976 10.4113 26.8741C10.5365 26.7506 10.6081 26.5828 10.6106 26.4069C10.6115 25.6084 10.9291 24.8429 11.4937 24.2783C12.0583 23.7136 12.8239 23.3961 13.6223 23.3952C13.7981 23.3926 13.9658 23.3209 14.0892 23.1957C14.2126 23.0705 14.2818 22.9017 14.2818 22.7259C14.2818 22.5501 14.2126 22.3814 14.0892 22.2561C13.9658 22.1309 13.7981 22.0592 13.6223 22.0566C12.8239 22.0558 12.0583 21.7382 11.4937 21.1735C10.9291 20.6089 10.6115 19.8434 10.6106 19.0449C10.608 18.8691 10.5364 18.7014 10.4112 18.578C10.2859 18.4546 10.1172 18.3855 9.94137 18.3855C9.76557 18.3855 9.59683 18.4546 9.4716 18.578C9.34637 18.7014 9.27471 18.8691 9.2721 19.0449C9.27123 19.8434 8.95364 20.6089 8.38902 21.1736C7.8244 21.7382 7.05886 22.0558 6.26037 22.0566C6.08458 22.0592 5.91688 22.1309 5.79349 22.2561C5.6701 22.3813 5.60093 22.5501 5.60093 22.7259C5.60092 22.9017 5.67009 23.0704 5.79347 23.1957C5.91685 23.3209 6.08455 23.3926 6.26033 23.3952ZM9.94134 21.3612C10.2893 21.9118 10.7555 22.378 11.306 22.7259C10.7555 23.0739 10.2893 23.54 9.94134 24.0906C9.59339 23.54 9.12721 23.0739 8.57664 22.7259C9.12721 22.378 9.59339 21.9118 9.94134 21.3612ZM33.0313 19.7142C33.1192 19.7143 33.2062 19.697 33.2875 19.6633C33.3687 19.6297 33.4424 19.5803 33.5045 19.5181L35.3976 17.6253C35.519 17.499 35.586 17.33 35.5843 17.1548C35.5826 16.9796 35.5122 16.8121 35.3883 16.6882C35.2644 16.5643 35.0968 16.4939 34.9216 16.4922C34.7464 16.4905 34.5775 16.5575 34.4512 16.6789L32.5581 18.5717C32.4666 18.6661 32.4047 18.7852 32.3801 18.9143C32.3555 19.0434 32.3692 19.1769 32.4195 19.2984C32.4698 19.4198 32.5545 19.5239 32.6632 19.5978C32.7719 19.6716 32.8999 19.7121 33.0313 19.7142ZM30.7578 18.4789C30.9292 18.5245 31.1117 18.5003 31.2653 18.4116C31.419 18.3229 31.5312 18.177 31.5774 18.0057L32.2705 15.4195C32.3165 15.248 32.2924 15.0654 32.2037 14.9117C32.1149 14.758 31.9688 14.6458 31.7973 14.5999C31.6259 14.5539 31.4432 14.578 31.2895 14.6667C31.1358 14.7555 31.0237 14.9016 30.9777 15.0731L30.2846 17.6593C30.2618 17.7442 30.256 17.8327 30.2674 17.9199C30.2789 18.007 30.3074 18.091 30.3514 18.1672C30.3953 18.2433 30.4538 18.31 30.5235 18.3635C30.5933 18.417 30.6729 18.4562 30.7578 18.4789ZM33.5973 21.3181C33.6435 21.4894 33.7557 21.6354 33.9093 21.7241C34.0629 21.8128 34.2455 21.8369 34.4169 21.7913L37.0028 21.0985C37.1743 21.0525 37.3204 20.9404 37.4092 20.7867C37.4979 20.6329 37.5219 20.4503 37.476 20.2789C37.4301 20.1074 37.3179 19.9613 37.1642 19.8725C37.0105 19.7838 36.8279 19.7597 36.6564 19.8057L34.0705 20.4985C33.9856 20.5212 33.906 20.5604 33.8362 20.6139C33.7665 20.6674 33.708 20.7341 33.664 20.8102C33.6201 20.8863 33.5916 20.9704 33.5801 21.0575C33.5687 21.1446 33.5745 21.2332 33.5973 21.3181Z" fill="#E8BE38"/>
</svg>
