<svg width="25" height="26" viewBox="0 0 25 26" fill="none" xmlns="http://www.w3.org/2000/svg">
<path fill-rule="evenodd" clip-rule="evenodd" d="M15.4844 14.4614C15.0113 14.6547 14.709 15.3954 14.4024 15.7738C14.2452 15.9677 14.0577 15.998 13.816 15.9008C12.0401 15.1933 10.6788 14.0082 9.69881 12.374C9.53279 12.1205 9.56258 11.9204 9.76277 11.685C10.0587 11.3364 10.4307 10.9404 10.5108 10.4707C10.6885 9.43159 9.33016 6.20847 7.53622 7.66891C2.37414 11.8754 16.1475 23.0321 18.6333 16.998C19.3365 15.2875 16.2686 14.1401 15.4844 14.4614ZM12.5001 23.3163C10.6744 23.3163 8.87801 22.8309 7.30527 21.912C7.05283 21.764 6.74765 21.725 6.46543 21.8016L3.04797 22.7396L4.23839 20.1171C4.4005 19.7602 4.35899 19.3446 4.12999 19.0272C2.85656 17.2621 2.18322 15.1781 2.18322 12.9999C2.18322 7.311 6.81113 2.68309 12.5001 2.68309C18.189 2.68309 22.8164 7.311 22.8164 12.9999C22.8164 18.6884 18.1885 23.3163 12.5001 23.3163ZM12.5001 0.5C5.60752 0.5 0.000130679 6.10739 0.000130679 12.9999C0.000130679 15.4247 0.688604 17.7533 1.9967 19.7743L0.0977864 23.9564C-0.0775056 24.3426 -0.0135411 24.7948 0.260871 25.1166C0.471808 25.3631 0.776982 25.4999 1.09192 25.4999C1.79602 25.4999 5.63535 24.2933 6.6124 24.0253C8.41854 24.9916 10.4444 25.4999 12.5001 25.4999C19.3921 25.4999 25 19.892 25 12.9999C25 6.10739 19.3921 0.5 12.5001 0.5Z" fill="#23C920"/>
</svg>
