<svg width="50" height="50" viewBox="0 0 50 50" fill="none" xmlns="http://www.w3.org/2000/svg">
<rect x="0.5" y="0.5" width="49" height="49" rx="4.5" stroke="#197D7F"/>
<path d="M26 18.0098H25C24.7348 18.0098 24.4804 17.9044 24.2929 17.7169C24.1054 17.5293 24 17.275 24 17.0098C24 16.8772 23.9473 16.75 23.8536 16.6562C23.7598 16.5624 23.6326 16.5098 23.5 16.5098C23.3674 16.5098 23.2402 16.5624 23.1464 16.6562C23.0527 16.75 23 16.8772 23 17.0098C23 17.5402 23.2107 18.0489 23.5858 18.424C23.9609 18.7991 24.4696 19.0098 25 19.0098V19.5098C25 19.6424 25.0527 19.7696 25.1464 19.8633C25.2402 19.9571 25.3674 20.0098 25.5 20.0098C25.6326 20.0098 25.7598 19.9571 25.8536 19.8633C25.9473 19.7696 26 19.6424 26 19.5098V19.0098C26.5304 19.0098 27.0391 18.7991 27.4142 18.424C27.7893 18.0489 28 17.5402 28 17.0098C28 16.4793 27.7893 15.9706 27.4142 15.5956C27.0391 15.2205 26.5304 15.0098 26 15.0098H25C24.7348 15.0098 24.4804 14.9044 24.2929 14.7169C24.1054 14.5293 24 14.275 24 14.0098C24 13.7446 24.1054 13.4902 24.2929 13.3027C24.4804 13.1151 24.7348 13.0098 25 13.0098H26C26.2652 13.0098 26.5196 13.1151 26.7071 13.3027C26.8946 13.4902 27 13.7446 27 14.0098C27 14.1424 27.0527 14.2696 27.1464 14.3633C27.2402 14.4571 27.3674 14.5098 27.5 14.5098C27.6326 14.5098 27.7598 14.4571 27.8536 14.3633C27.9473 14.2696 28 14.1424 28 14.0098C28 13.4793 27.7893 12.9706 27.4142 12.5956C27.0391 12.2205 26.5304 12.0098 26 12.0098V11.5098C26 11.3772 25.9473 11.25 25.8536 11.1562C25.7598 11.0624 25.6326 11.0098 25.5 11.0098C25.3674 11.0098 25.2402 11.0624 25.1464 11.1562C25.0527 11.25 25 11.3772 25 11.5098V12.0098C24.4696 12.0098 23.9609 12.2205 23.5858 12.5956C23.2107 12.9706 23 13.4793 23 14.0098C23 14.5402 23.2107 15.0489 23.5858 15.424C23.9609 15.7991 24.4696 16.0098 25 16.0098H26C26.2652 16.0098 26.5196 16.1151 26.7071 16.3027C26.8946 16.4902 27 16.7446 27 17.0098C27 17.275 26.8946 17.5293 26.7071 17.7169C26.5196 17.9044 26.2652 18.0098 26 18.0098ZM25.5 22.0098C26.7856 22.0098 28.0423 21.6286 29.1112 20.9143C30.1801 20.2001 31.0132 19.1849 31.5052 17.9972C31.9972 16.8095 32.1259 15.5026 31.8751 14.2417C31.6243 12.9808 31.0052 11.8226 30.0962 10.9136C29.1872 10.0045 28.029 9.38547 26.7681 9.13466C25.5072 8.88386 24.2003 9.01258 23.0126 9.50455C21.8248 9.99652 20.8097 10.8296 20.0954 11.8986C19.3812 12.9675 19 14.2242 19 15.5098C19.0021 17.233 19.6876 18.8851 20.9061 20.1036C22.1247 21.3222 23.7767 22.0077 25.5 22.0098ZM25.5 10.0098C26.5878 10.0098 27.6512 10.3323 28.5556 10.9367C29.4601 11.541 30.1651 12.4 30.5813 13.405C30.9976 14.41 31.1065 15.5159 30.8943 16.5828C30.6821 17.6497 30.1583 18.6297 29.3891 19.3989C28.6199 20.168 27.6399 20.6919 26.573 20.9041C25.5061 21.1163 24.4002 21.0074 23.3952 20.5911C22.3902 20.1748 21.5313 19.4699 20.9269 18.5654C20.3226 17.6609 20 16.5976 20 15.5098C20.0016 14.0516 20.5816 12.6535 21.6127 11.6224C22.6438 10.5913 24.0418 10.0114 25.5 10.0098ZM40.5 23.8098H36.5C36.1617 23.8105 35.8335 23.9256 35.5688 24.1363C35.3041 24.3471 35.1185 24.6412 35.042 24.9708L29.419 23.2448C28.6941 23.0237 27.9172 23.0427 27.204 23.2988L26.367 23.5988L22.444 22.7378C21.6154 22.5555 20.752 22.6117 19.954 22.8998L14.883 24.7278C14.7684 24.4556 14.5761 24.2233 14.3301 24.06C14.084 23.8967 13.7953 23.8097 13.5 23.8098H9.5C9.36739 23.8098 9.24021 23.8624 9.14645 23.9562C9.05268 24.05 9 24.1772 9 24.3098V34.3098C9 34.4424 9.05268 34.5696 9.14645 34.6633C9.24021 34.7571 9.36739 34.8098 9.5 34.8098H13.5C13.7469 34.8095 13.9898 34.7483 14.2074 34.6316C14.4249 34.5149 14.6102 34.3463 14.747 34.1408C16.5966 36.4859 18.9464 38.3885 21.625 39.7098L23.783 40.7718C24.1109 40.9347 24.4759 41.0083 24.8413 40.9853C25.2067 40.9623 25.5596 40.8434 25.8644 40.6407C26.1693 40.4379 26.4153 40.1584 26.5778 39.8303C26.7403 39.5022 26.8135 39.1371 26.79 38.7718C26.9254 38.8068 27.0642 38.8272 27.204 38.8328C27.3411 38.8326 27.4778 38.8185 27.612 38.7908C28.0498 38.7018 28.4448 38.4677 28.733 38.1263C29.0212 37.785 29.1858 37.3563 29.2 36.9098C29.4843 37.0697 29.8039 37.1566 30.13 37.1628C30.2667 37.1626 30.4031 37.1485 30.537 37.1208C31.0031 37.0261 31.4199 36.7674 31.7114 36.3916C32.003 36.0158 32.1501 35.5478 32.126 35.0728C32.5131 35.1692 32.9209 35.139 33.2896 34.9868C33.6584 34.8345 33.9687 34.5682 34.175 34.2268C34.3252 33.9999 34.4273 33.7446 34.475 33.4768H35.017C35.0579 33.8421 35.2316 34.1796 35.5049 34.4254C35.7783 34.6711 36.1324 34.8079 36.5 34.8098H40.5C40.6326 34.8098 40.7598 34.7571 40.8536 34.6633C40.9473 34.5696 41 34.4424 41 34.3098V24.3098C41 24.1772 40.9473 24.05 40.8536 23.9562C40.7598 23.8624 40.6326 23.8098 40.5 23.8098ZM14 33.3098C14 33.4424 13.9473 33.5696 13.8536 33.6633C13.7598 33.7571 13.6326 33.8098 13.5 33.8098H10V24.8098H13.5C13.6326 24.8098 13.7598 24.8624 13.8536 24.9562C13.9473 25.05 14 25.1772 14 25.3098V33.3098ZM33.341 33.6808C33.2688 33.7905 33.1758 33.8849 33.0671 33.9587C32.9585 34.0324 32.8363 34.0841 32.7077 34.1106C32.5791 34.1372 32.4465 34.1381 32.3176 34.1135C32.1886 34.0888 32.0657 34.0389 31.956 33.9668L27.313 30.9098L27.099 31.2348C27.0662 31.2568 27.0381 31.2852 27.0164 31.3181C26.9946 31.3511 26.9795 31.388 26.972 31.4268L26.763 31.7448L27.146 31.9968C27.151 31.9968 27.154 32.0058 27.159 32.0098L30.684 34.3318C30.9007 34.4797 31.0505 34.7068 31.1013 34.9642C31.152 35.2216 31.0996 35.4886 30.9553 35.7077C30.811 35.9268 30.5863 36.0804 30.3298 36.1354C30.0733 36.1904 29.8055 36.1424 29.584 36.0018L28.322 35.1708L28.308 35.1598L25.24 33.1398H25.232L24.941 32.9478C24.8303 32.8774 24.6963 32.8534 24.5681 32.8809C24.4398 32.9084 24.3275 32.9852 24.2554 33.0948C24.1832 33.2043 24.157 33.3378 24.1824 33.4665C24.2077 33.5952 24.2827 33.7088 24.391 33.7828L27.764 36.0038C27.9264 36.1138 28.0528 36.2692 28.1275 36.4506C28.2022 36.632 28.2219 36.8313 28.1841 37.0238C28.1464 37.2163 28.0529 37.3935 27.9153 37.5332C27.7776 37.673 27.6019 37.7691 27.41 37.8098C27.1503 37.8629 26.8802 37.8107 26.659 37.6648L23.273 35.4348C23.2182 35.3974 23.1565 35.3712 23.0915 35.3579C23.0265 35.3446 22.9595 35.3443 22.8944 35.3572C22.8293 35.37 22.7674 35.3957 22.7123 35.4327C22.6572 35.4697 22.61 35.5173 22.5735 35.5727C22.537 35.6281 22.5119 35.6902 22.4997 35.7554C22.4874 35.8207 22.4883 35.8877 22.5022 35.9525C22.5161 36.0174 22.5428 36.0789 22.5807 36.1334C22.6186 36.1878 22.667 36.2342 22.723 36.2698L22.899 36.3858C22.904 36.3858 22.907 36.3958 22.913 36.3998L25.313 37.9788C25.5583 38.1259 25.7362 38.3632 25.8086 38.6399C25.881 38.9166 25.8422 39.2106 25.7005 39.459C25.5587 39.7075 25.3253 39.8905 25.0503 39.969C24.7753 40.0474 24.4805 40.015 24.229 39.8788L22.066 38.8098C19.2528 37.4217 16.8257 35.3607 15 32.8098V25.7478L20.292 23.8418C20.913 23.6184 21.5843 23.5747 22.229 23.7158L24.602 24.2368L22.886 24.8558C22.3589 25.0362 21.925 25.4187 21.6799 25.9191C21.4348 26.4194 21.3985 26.9967 21.579 27.5238C21.7595 28.0509 22.142 28.4847 22.6423 28.7298C23.1427 28.9749 23.7199 29.0112 24.247 28.8308L26.624 28.0598L33.056 32.2948C33.175 32.3733 33.2758 32.4764 33.3517 32.5972C33.4276 32.7179 33.4768 32.8535 33.496 32.9948C33.4968 33.0192 33.4992 33.0436 33.503 33.0678C33.5171 33.284 33.4603 33.4999 33.341 33.6808ZM35 32.4798H34.4C34.2573 32.0609 33.9785 31.7018 33.608 31.4598L26.976 27.0918C26.9134 27.0506 26.8424 27.024 26.7681 27.0139C26.6938 27.0039 26.6183 27.0107 26.547 27.0338L23.941 27.8798C23.7387 27.9456 23.5216 27.9514 23.3161 27.8964C23.1105 27.8414 22.9254 27.7279 22.783 27.5698C22.6618 27.4358 22.5755 27.274 22.5317 27.0987C22.4879 26.9234 22.488 26.74 22.5318 26.5648C22.5757 26.3895 22.6621 26.2278 22.7834 26.0938C22.9046 25.9599 23.057 25.8579 23.227 25.7968L27.546 24.2388C28.0554 24.0557 28.6104 24.0424 29.128 24.2008L35 26.0048V32.4798ZM40 33.8098H36.5C36.3674 33.8098 36.2402 33.7571 36.1464 33.6633C36.0527 33.5696 36 33.4424 36 33.3098V25.3098C36 25.1772 36.0527 25.05 36.1464 24.9562C36.2402 24.8624 36.3674 24.8098 36.5 24.8098H40V33.8098Z" fill="#197D7F"/>
</svg>
