<svg width="20" height="24" viewBox="0 0 20 24" fill="none" xmlns="http://www.w3.org/2000/svg">
<g id="Location">
<path id="Vector" d="M10.1903 5.22658C10.9905 5.22658 11.7136 5.60424 12.2359 6.21091C12.5029 6.5187 12.7153 6.88804 12.8603 7.29675C13.0054 7.70546 13.0802 8.14512 13.0802 8.58936C13.0802 9.0336 13.0054 9.47327 12.8603 9.88198C12.7153 10.2907 12.5029 10.66 12.2359 10.9678C11.6876 11.602 10.9551 11.955 10.1936 11.9521C9.43096 11.9561 8.69708 11.603 8.14796 10.9678C7.88102 10.66 7.66864 10.2907 7.52357 9.88198C7.37849 9.47327 7.30371 9.0336 7.30371 8.58936C7.30371 8.14512 7.37849 7.70546 7.52357 7.29675C7.66864 6.88804 7.88102 6.5187 8.14796 6.21091C8.69625 5.57674 9.42877 5.22369 10.1903 5.22658ZM11.7304 6.8015C11.3172 6.32261 10.7647 6.05597 10.1903 6.05824C9.58762 6.05824 9.04524 6.33947 8.65017 6.8015C8.44988 7.03312 8.29056 7.31083 8.18174 7.61802C8.07292 7.92521 8.01683 8.25557 8.01683 8.58936C8.01683 8.92315 8.07292 9.25352 8.18174 9.56071C8.29056 9.8679 8.44988 10.1456 8.65017 10.3772C9.04524 10.8393 9.58762 11.1205 10.1903 11.1205C10.7929 11.1205 11.3387 10.8393 11.7304 10.3812C11.9312 10.1496 12.0909 9.87161 12.2001 9.56405C12.3092 9.25649 12.3655 8.92565 12.3655 8.59137C12.3655 8.25709 12.3092 7.92625 12.2001 7.61869C12.0909 7.31113 11.9312 7.03318 11.7304 6.8015Z" fill="white"/>
<path id="Vector_2" d="M9.8746 21.7633C9.41257 20.7509 8.85345 19.6018 8.26754 18.4045C7.0388 15.8734 5.69958 13.1334 4.96971 11.004C4.70706 10.2394 4.57171 9.42045 4.57129 8.59342C4.57129 6.78547 5.20072 5.1543 6.21853 3.97311C7.28395 2.73871 8.70836 2.05125 10.1893 2.05669C11.6714 2.0502 13.0972 2.73774 14.1635 3.97311C14.9349 4.86417 15.4654 6.01279 15.6863 7.27004C15.9072 8.52729 15.8082 9.83517 15.4022 11.0241C14.6657 13.1535 13.3432 15.8774 12.1144 18.3925C11.5319 19.5898 10.9694 20.7428 10.5074 21.7673C10.4758 21.835 10.4297 21.8912 10.3739 21.9302C10.3181 21.9692 10.2546 21.9896 10.19 21.9892C10.1254 21.9888 10.0621 21.9676 10.0066 21.9279C9.95116 21.8882 9.90557 21.8313 9.8746 21.7633ZM8.89027 17.9947C9.35231 18.9389 9.7976 19.8549 10.1893 20.6906C10.5844 19.8469 11.033 18.9268 11.4951 17.9787C12.7104 15.4877 14.0228 12.7959 14.7427 10.7107C14.9757 10.0371 15.0952 9.31475 15.0942 8.58539C15.0942 7.01046 14.5451 5.58419 13.6579 4.55567C12.7271 3.47802 11.4827 2.87843 10.1893 2.88432C8.83671 2.88432 7.61132 3.52313 6.72409 4.55567C6.05103 5.33031 5.58697 6.32929 5.39181 7.4236C5.19665 8.51792 5.27937 9.65732 5.62927 10.6947C6.33906 12.7638 7.66824 15.4837 8.89027 17.9947Z" fill="white"/>
</g>
</svg>
