<svg width="36" height="36" viewBox="0 0 36 36" fill="none" xmlns="http://www.w3.org/2000/svg">
<path d="M18.3327 8.12307C19.7331 8.12307 20.9986 8.67383 21.9126 9.55855C22.3798 10.0074 22.7514 10.546 23.0053 11.1421C23.2592 11.7381 23.3901 12.3793 23.3901 13.0271C23.3901 13.675 23.2592 14.3162 23.0053 14.9122C22.7514 15.5082 22.3798 16.0468 21.9126 16.4957C20.9531 17.4205 19.6712 17.9354 18.3386 17.9312C17.0039 17.9369 15.7196 17.422 14.7587 16.4957C14.2915 16.0468 13.9199 15.5082 13.666 14.9122C13.4121 14.3162 13.2812 13.675 13.2812 13.0271C13.2813 12.3793 13.4121 11.7381 13.666 11.1421C13.9199 10.546 14.2915 10.0074 14.7587 9.55855C15.7182 8.63372 17.0001 8.11886 18.3327 8.12307ZM21.0279 10.4198C20.3049 9.72146 19.338 9.33259 18.3327 9.3359C17.2781 9.3359 16.3289 9.74604 15.6376 10.4198C15.287 10.7576 15.0082 11.1626 14.8178 11.6106C14.6274 12.0586 14.5292 12.5404 14.5292 13.0271C14.5292 13.5139 14.6274 13.9957 14.8178 14.4437C15.0082 14.8917 15.287 15.2966 15.6376 15.6344C16.3289 16.3082 17.2781 16.7184 18.3327 16.7184C19.3874 16.7184 20.3424 16.3082 21.0279 15.6403C21.3793 15.3024 21.6589 14.8971 21.8499 14.4485C22.0409 14 22.1393 13.5175 22.1393 13.0301C22.1393 12.5426 22.0409 12.0601 21.8499 11.6116C21.6589 11.163 21.3793 10.7577 21.0279 10.4198Z" fill="#E8BE38"/>
<path d="M17.7808 32.2389C16.9722 30.7624 15.9938 29.0867 14.9684 27.3407C12.8181 23.6495 10.4745 19.6536 9.19723 16.5483C8.73761 15.4332 8.50074 14.2389 8.5 13.0328C8.5 10.3962 9.60151 8.01742 11.3827 6.29485C13.2472 4.49469 15.7399 3.49214 18.3316 3.50007C20.9253 3.49061 23.4204 4.49328 25.2863 6.29485C26.6363 7.59432 27.5647 9.26939 27.9513 11.1029C28.3378 12.9364 28.1646 14.8437 27.4542 16.5776C26.1652 19.6829 23.8508 23.6553 21.7005 27.3231C20.681 29.0691 19.6967 30.7507 18.8882 32.2448C18.8329 32.3434 18.7523 32.4254 18.6546 32.4823C18.5569 32.5392 18.4458 32.5689 18.3328 32.5683C18.2197 32.5677 18.1089 32.5368 18.0118 32.4789C17.9148 32.421 17.835 32.3381 17.7808 32.2389ZM16.0582 26.7431C16.8668 28.12 17.646 29.4558 18.3316 30.6745C19.0229 29.4441 19.808 28.1024 20.6166 26.7196C22.7434 23.087 25.0402 19.1614 26.2999 16.1205C26.7077 15.1382 26.9168 14.0847 26.9151 13.0211C26.9151 10.7243 25.9542 8.64435 24.4016 7.14442C22.7726 5.57285 20.595 4.69845 18.3316 4.70704C15.9645 4.70704 13.8201 5.63863 12.2674 7.14442C11.0896 8.2741 10.2774 9.73094 9.93591 11.3268C9.59438 12.9227 9.73913 14.5843 10.3515 16.0971C11.5936 19.1145 13.9197 23.0811 16.0582 26.7431Z" fill="#E8BE38"/>
</svg>
