<svg width="285" height="80" viewBox="0 0 285 80" fill="none" xmlns="http://www.w3.org/2000/svg">
<path d="M75.4287 27.8939C65.4302 14.7568 47.2198 5.11079 41.9705 2.36979C40.4706 1.60206 38.8562 1.58851 37.3445 2.1152C24.4949 6.64602 8.09747 22.582 3.31884 27.2885C2.12419 28.4651 1.5704 30.1865 1.77097 31.8063C4.80212 53.6229 11.8781 68.5693 14.7361 73.8792C15.69 75.5054 17.2937 76.7055 19.229 76.9375C23.3149 77.4033 28.0485 77.6588 32.7841 77.6986C43.3315 77.7871 54.2096 77.0154 59.5958 76.5213C61.5351 76.3218 63.2669 75.2576 64.2512 73.5398C73.4308 58.2984 76.0901 38.0399 76.6811 32.2195C76.8034 30.6023 76.3866 29.0886 75.4287 27.8939ZM73.4552 31.8688C72.8653 37.5813 70.427 57.1944 61.5752 71.8992C61.1378 72.6507 60.2719 73.1828 59.4099 73.2834C53.4856 73.7731 33.0209 75.3273 19.6888 73.7051C18.8288 73.59 18.0803 73.0443 17.6567 72.2856C14.7977 67.0835 7.93308 52.5704 5.00467 31.2941C4.90291 30.6459 5.12404 30.0005 5.55943 29.4648C10.2285 24.9732 26.1915 9.46506 38.3934 5.14456C39.0411 4.93424 39.7945 4.94057 40.4373 5.2696C45.5809 7.79395 63.1476 17.2188 72.8281 29.8138C73.3613 30.3577 73.4621 31.1137 73.4552 31.8688Z" fill="#E8BE38"/>
<path d="M9.71094 32.7285L39.2069 45.0736L68.2762 33.2207C41.638 38.1813 9.71094 32.7285 9.71094 32.7285Z" fill="#E8BE38"/>
<path d="M38.7763 58.1088L60.5102 71.2393L39.2167 45.1645L17.9917 70.8823L38.7763 58.1088Z" fill="#E8BE38"/>
<path d="M37.784 65.0575C35.9653 60.9242 34.126 56.8115 32.266 52.7195C30.406 48.5862 28.5873 44.4115 26.81 40.1955C26.2313 38.8728 25.6527 37.5502 25.074 36.2275C24.5367 34.8635 23.9993 33.4995 23.462 32.1355C22.966 30.7715 22.4493 29.4075 21.912 28.0435C21.912 28.4982 21.8913 28.9528 21.85 29.4075C21.85 29.8622 21.85 30.3168 21.85 30.7715C21.8087 32.2595 21.7467 34.0575 21.664 36.1655C21.6227 38.2322 21.5607 40.4642 21.478 42.8615C21.3953 45.2175 21.3333 47.5942 21.292 49.9915C21.2507 52.3475 21.2093 54.5795 21.168 56.6875C21.1267 57.5968 21.0853 58.5062 21.044 59.4155C21.044 60.3248 21.0027 61.1722 20.92 61.9575C21.7053 61.9162 22.47 61.8748 23.214 61.8335C23.9993 61.7922 24.7847 61.7508 25.57 61.7095V64.4375H13.728V62.3915C15.0093 62.3502 15.9393 62.0815 16.518 61.5855C17.138 61.0482 17.5307 60.3455 17.696 59.4775C17.8613 58.6095 17.9647 57.6795 18.006 56.6875L19.184 28.4155C19.2253 27.5888 19.246 26.7622 19.246 25.9355C19.2873 25.1088 19.3287 24.3028 19.37 23.5175C18.626 23.5588 17.882 23.6002 17.138 23.6415C16.394 23.6415 15.65 23.6622 14.906 23.7035V21.0375H24.392L35.056 45.6515C35.5933 46.8915 36.11 48.1315 36.606 49.3715C37.1433 50.6115 37.6807 51.8515 38.218 53.0915C38.7967 54.3315 39.3547 55.5922 39.892 56.8735H40.016C40.4707 55.7575 41.008 54.4348 41.628 52.9055C42.248 51.3348 42.7647 49.9915 43.178 48.8755C44.9967 44.3288 46.8773 39.7822 48.82 35.2355C50.804 30.6475 52.7467 25.9148 54.648 21.0375H63.824V23.0835C62.7907 23.0422 61.9433 23.2488 61.282 23.7035C60.6207 24.1168 60.1453 24.8195 59.856 25.8115C59.5667 26.8035 59.4633 28.1468 59.546 29.8415L61.158 58.0515C61.2407 58.7542 61.282 59.4362 61.282 60.0975C61.282 60.7588 61.282 61.3582 61.282 61.8955C62.026 61.8542 62.77 61.8335 63.514 61.8335C64.2993 61.7922 65.064 61.7508 65.808 61.7095V64.4375H51.92V62.3915C53.2013 62.3502 54.152 62.0402 54.772 61.4615C55.392 60.8828 55.764 60.0562 55.888 58.9815C56.0533 57.9068 56.0947 56.5842 56.012 55.0135L54.772 34.5535C54.7307 33.8922 54.6893 33.2308 54.648 32.5695C54.6067 31.9082 54.5653 31.2468 54.524 30.5855C54.4827 29.9242 54.4413 29.2628 54.4 28.6015C54.276 28.8908 54.1313 29.2008 53.966 29.5315C53.842 29.8622 53.718 30.2135 53.594 30.5855L39.644 65.0575H37.784ZM77.8421 64.9815C76.2554 64.9815 74.8161 64.6188 73.5241 63.8935C72.2321 63.1455 71.2007 62.1255 70.4301 60.8335C69.6821 59.5188 69.3081 58.0228 69.3081 56.3455C69.3081 54.5548 69.6821 52.9455 70.4301 51.5175C71.1781 50.0895 72.1981 48.9675 73.4901 48.1515C74.7821 47.3128 76.2327 46.8935 77.8421 46.8935C79.4287 46.8935 80.8681 47.2788 82.1601 48.0495C83.4521 48.7975 84.4834 49.8175 85.2541 51.1095C86.0247 52.4015 86.4101 53.8748 86.4101 55.5295C86.4101 57.2748 86.0247 58.8728 85.2541 60.3235C84.5061 61.7515 83.4861 62.8848 82.1941 63.7235C80.9021 64.5622 79.4514 64.9815 77.8421 64.9815ZM78.1141 63.6215C79.3154 63.6215 80.2674 63.2815 80.9701 62.6015C81.6727 61.9215 82.1714 61.0375 82.4661 59.9495C82.7834 58.8615 82.9421 57.7168 82.9421 56.5155C82.9421 55.4955 82.8401 54.4982 82.6361 53.5235C82.4547 52.5262 82.1601 51.6308 81.7521 50.8375C81.3441 50.0215 80.8114 49.3755 80.1541 48.8995C79.5194 48.4235 78.7487 48.1855 77.8421 48.1855C76.6634 48.1855 75.7001 48.5255 74.9521 49.2055C74.2041 49.8855 73.6487 50.7695 73.2861 51.8575C72.9461 52.9455 72.7761 54.1128 72.7761 55.3595C72.7761 56.7648 72.9687 58.1022 73.3541 59.3715C73.7394 60.6182 74.3287 61.6382 75.1221 62.4315C75.9154 63.2248 76.9127 63.6215 78.1141 63.6215ZM97.5947 64.9815C96.0761 64.9815 94.6707 64.6415 93.3787 63.9615C92.1094 63.2588 91.0894 62.2615 90.3187 60.9695C89.5707 59.6548 89.1967 58.0795 89.1967 56.2435C89.1967 55.0648 89.4121 53.9202 89.8427 52.8095C90.2734 51.6988 90.8741 50.7015 91.6447 49.8175C92.4381 48.9108 93.3787 48.1968 94.4667 47.6755C95.5547 47.1542 96.7561 46.8935 98.0707 46.8935C99.3401 46.8935 100.439 47.0862 101.369 47.4715C102.321 47.8568 103.057 48.3668 103.579 49.0015C104.1 49.6362 104.361 50.3275 104.361 51.0755C104.361 51.5742 104.225 52.0048 103.953 52.3675C103.681 52.7075 103.284 52.8775 102.763 52.8775C102.196 52.9002 101.788 52.7302 101.539 52.3675C101.312 51.9822 101.199 51.6422 101.199 51.3475C101.199 51.1208 101.233 50.8942 101.301 50.6675C101.369 50.4182 101.505 50.1915 101.709 49.9875C101.527 49.4435 101.21 49.0468 100.757 48.7975C100.303 48.5255 99.8274 48.3555 99.3287 48.2875C98.8527 48.1968 98.4561 48.1515 98.1387 48.1515C96.5974 48.1515 95.2941 48.7748 94.2287 50.0215C93.1861 51.2455 92.6647 53.0362 92.6647 55.3935C92.6647 56.9122 92.9027 58.2608 93.3787 59.4395C93.8774 60.6182 94.5687 61.5475 95.4527 62.2275C96.3367 62.8848 97.3567 63.2135 98.5127 63.2135C99.5781 63.2135 100.598 62.9302 101.573 62.3635C102.547 61.7968 103.307 61.1055 103.851 60.2895L104.735 60.9695C104.145 61.9215 103.431 62.6922 102.593 63.2815C101.777 63.8708 100.927 64.3015 100.043 64.5735C99.1814 64.8455 98.3654 64.9815 97.5947 64.9815ZM107.138 64.4375V63.3155C107.999 63.2702 108.588 63.0775 108.906 62.7375C109.223 62.3748 109.393 61.8875 109.416 61.2755C109.461 60.6408 109.484 59.9268 109.484 59.1335V44.4455C109.484 43.9922 109.495 43.5615 109.518 43.1535C109.54 42.7228 109.563 42.3375 109.586 41.9975C109.178 42.0202 108.77 42.0428 108.362 42.0655C107.954 42.0882 107.546 42.1108 107.138 42.1335V40.6375H122.914L123.084 46.5875H121.826C121.826 45.2502 121.622 44.2415 121.214 43.5615C120.806 42.8588 120.262 42.3942 119.582 42.1675C118.902 41.9182 118.131 41.8048 117.27 41.8275L114.788 41.8955C113.949 41.9182 113.371 42.1222 113.054 42.5075C112.736 42.8702 112.555 43.3575 112.51 43.9695C112.464 44.5815 112.442 45.2842 112.442 46.0775V60.3915C112.442 61.0035 112.43 61.5362 112.408 61.9895C112.408 62.4202 112.385 62.7828 112.34 63.0775C112.725 63.0548 113.11 63.0435 113.496 63.0435C113.881 63.0208 114.266 62.9982 114.652 62.9755C115.037 62.9528 115.422 62.9415 115.808 62.9415V64.4375H107.138ZM133.823 64.9815C132.236 64.9815 130.797 64.6188 129.505 63.8935C128.213 63.1455 127.181 62.1255 126.411 60.8335C125.663 59.5188 125.289 58.0228 125.289 56.3455C125.289 54.5548 125.663 52.9455 126.411 51.5175C127.159 50.0895 128.179 48.9675 129.471 48.1515C130.763 47.3128 132.213 46.8935 133.823 46.8935C135.409 46.8935 136.849 47.2788 138.141 48.0495C139.433 48.7975 140.464 49.8175 141.235 51.1095C142.005 52.4015 142.391 53.8748 142.391 55.5295C142.391 57.2748 142.005 58.8728 141.235 60.3235C140.487 61.7515 139.467 62.8848 138.175 63.7235C136.883 64.5622 135.432 64.9815 133.823 64.9815ZM134.095 63.6215C135.296 63.6215 136.248 63.2815 136.951 62.6015C137.653 61.9215 138.152 61.0375 138.447 59.9495C138.764 58.8615 138.923 57.7168 138.923 56.5155C138.923 55.4955 138.821 54.4982 138.617 53.5235C138.435 52.5262 138.141 51.6308 137.733 50.8375C137.325 50.0215 136.792 49.3755 136.135 48.8995C135.5 48.4235 134.729 48.1855 133.823 48.1855C132.644 48.1855 131.681 48.5255 130.933 49.2055C130.185 49.8855 129.629 50.7695 129.267 51.8575C128.927 52.9455 128.757 54.1128 128.757 55.3595C128.757 56.7648 128.949 58.1022 129.335 59.3715C129.72 60.6182 130.309 61.6382 131.103 62.4315C131.896 63.2248 132.893 63.6215 134.095 63.6215ZM153.575 64.9815C152.057 64.9815 150.651 64.6415 149.359 63.9615C148.09 63.2588 147.07 62.2615 146.299 60.9695C145.551 59.6548 145.177 58.0795 145.177 56.2435C145.177 55.0648 145.393 53.9202 145.823 52.8095C146.254 51.6988 146.855 50.7015 147.625 49.8175C148.419 48.9108 149.359 48.1968 150.447 47.6755C151.535 47.1542 152.737 46.8935 154.051 46.8935C155.321 46.8935 156.42 47.0862 157.349 47.4715C158.301 47.8568 159.038 48.3668 159.559 49.0015C160.081 49.6362 160.341 50.3275 160.341 51.0755C160.341 51.5742 160.205 52.0048 159.933 52.3675C159.661 52.7075 159.265 52.8775 158.743 52.8775C158.177 52.9002 157.769 52.7302 157.519 52.3675C157.293 51.9822 157.179 51.6422 157.179 51.3475C157.179 51.1208 157.213 50.8942 157.281 50.6675C157.349 50.4182 157.485 50.1915 157.689 49.9875C157.508 49.4435 157.191 49.0468 156.737 48.7975C156.284 48.5255 155.808 48.3555 155.309 48.2875C154.833 48.1968 154.437 48.1515 154.119 48.1515C152.578 48.1515 151.275 48.7748 150.209 50.0215C149.167 51.2455 148.645 53.0362 148.645 55.3935C148.645 56.9122 148.883 58.2608 149.359 59.4395C149.858 60.6182 150.549 61.5475 151.433 62.2275C152.317 62.8848 153.337 63.2135 154.493 63.2135C155.559 63.2135 156.579 62.9302 157.553 62.3635C158.528 61.7968 159.287 61.1055 159.831 60.2895L160.715 60.9695C160.126 61.9215 159.412 62.6922 158.573 63.2815C157.757 63.8708 156.907 64.3015 156.023 64.5735C155.162 64.8455 154.346 64.9815 153.575 64.9815ZM182.352 48.2195C182.125 46.0888 181.377 44.4342 180.108 43.2555C178.861 42.0768 177.252 41.4875 175.28 41.4875C174.078 41.4875 172.945 41.7482 171.88 42.2695C170.837 42.7682 169.919 43.4935 169.126 44.4455C168.332 45.3975 167.709 46.5422 167.256 47.8795C166.802 49.2168 166.576 50.7242 166.576 52.4015C166.576 54.5322 166.984 56.4135 167.8 58.0455C168.616 59.6775 169.715 60.9468 171.098 61.8535C172.48 62.7602 174.01 63.2135 175.688 63.2135C177.161 63.2135 178.612 62.8848 180.04 62.2275C181.468 61.5475 182.635 60.5728 183.542 59.3035L184.426 60.0175C183.451 61.3548 182.397 62.3862 181.264 63.1115C180.13 63.8368 178.997 64.3242 177.864 64.5735C176.753 64.8455 175.733 64.9815 174.804 64.9815C173.104 64.9815 171.54 64.6755 170.112 64.0635C168.706 63.4515 167.482 62.6015 166.44 61.5135C165.42 60.4028 164.626 59.1222 164.06 57.6715C163.516 56.1982 163.244 54.6115 163.244 52.9115C163.244 51.3022 163.482 49.7382 163.958 48.2195C164.456 46.7008 165.193 45.3295 166.168 44.1055C167.142 42.8815 168.366 41.9068 169.84 41.1815C171.336 40.4562 173.07 40.0935 175.042 40.0935C176.311 40.0935 177.512 40.2635 178.646 40.6035C179.779 40.9435 180.867 41.4648 181.91 42.1675L181.74 40.3315H183.576V48.2195H182.352ZM186.609 64.4375V63.4175C187.312 63.4175 187.799 63.2475 188.071 62.9075C188.343 62.5448 188.502 62.0575 188.547 61.4455C188.615 60.8108 188.649 60.0855 188.649 59.2695L188.683 51.0415C188.683 50.5882 188.683 50.1915 188.683 49.8515C188.706 49.4888 188.751 49.1148 188.819 48.7295C188.456 48.7522 188.094 48.7748 187.731 48.7975C187.391 48.7975 187.04 48.8088 186.677 48.8315V47.4375H193.613V48.4575C192.933 48.4575 192.446 48.6388 192.151 49.0015C191.879 49.3415 191.72 49.8288 191.675 50.4635C191.63 51.0755 191.607 51.7895 191.607 52.6055L191.573 54.8495H192.899L197.047 50.4975C197.432 50.1122 197.784 49.7722 198.101 49.4775C198.418 49.1602 198.736 48.8995 199.053 48.6955L196.741 48.7975V47.4375H202.929V48.4575C202.158 48.5255 201.433 48.7748 200.753 49.2055C200.096 49.6135 199.484 50.0782 198.917 50.5995C198.373 51.1208 197.897 51.5968 197.489 52.0275L194.837 54.8155C195.29 55.0195 195.676 55.2802 195.993 55.5975C196.31 55.9148 196.628 56.2662 196.945 56.6515L199.359 59.7455C199.472 59.8815 199.665 60.1422 199.937 60.5275C200.232 60.9128 200.572 61.3322 200.957 61.7855C201.365 62.2388 201.784 62.6242 202.215 62.9415C202.668 63.2588 203.088 63.4175 203.473 63.4175V64.4375H200.379C199.744 64.4375 199.144 64.1088 198.577 63.4515C198.01 62.7942 197.41 62.0575 196.775 61.2415C196.186 60.4255 195.653 59.6888 195.177 59.0315C194.724 58.3515 194.304 57.7622 193.919 57.2635C193.556 56.7648 193.228 56.3795 192.933 56.1075L191.573 56.1755L191.539 60.8335C191.539 61.2868 191.528 61.6948 191.505 62.0575C191.505 62.3975 191.471 62.7602 191.403 63.1455C191.766 63.1228 192.117 63.1115 192.457 63.1115C192.82 63.0888 193.182 63.0662 193.545 63.0435V64.4375H186.609ZM207.829 73.6515C207.126 73.6515 206.526 73.4815 206.027 73.1415C205.528 72.8015 205.279 72.2802 205.279 71.5775C205.279 71.1695 205.415 70.7955 205.687 70.4555C205.959 70.1155 206.31 69.9455 206.741 69.9455C207.285 69.9228 207.648 70.0928 207.829 70.4555C208.033 70.8182 208.135 71.1355 208.135 71.4075C208.135 71.4755 208.135 71.5435 208.135 71.6115C208.135 71.7022 208.124 71.7928 208.101 71.8835C208.169 71.9288 208.294 71.9515 208.475 71.9515C208.747 71.9515 209.042 71.8382 209.359 71.6115C209.676 71.3848 209.96 71.0562 210.209 70.6255C210.504 70.1268 210.844 69.3788 211.229 68.3815C211.637 67.3842 212.09 66.1942 212.589 64.8115L207.285 53.4555C206.696 52.1862 206.265 51.1775 205.993 50.4295C205.744 49.6815 205.574 49.1262 205.483 48.7635L203.851 48.8315V47.4375H210.889V48.4575H210.753C209.801 48.5255 209.28 48.8882 209.189 49.5455C209.098 50.1802 209.359 51.1548 209.971 52.4695L213.949 61.0035C214.47 59.5528 214.969 58.1248 215.445 56.7195C215.921 55.2915 216.397 53.8748 216.873 52.4695C217.054 51.9708 217.236 51.4608 217.417 50.9395C217.621 50.3955 217.814 49.9195 217.995 49.5115C218.199 49.0808 218.38 48.8088 218.539 48.6955L216.193 48.8315V47.4375H221.531V48.4575C220.692 48.7748 220.058 49.3075 219.627 50.0555C219.219 50.7808 218.8 51.7215 218.369 52.8775L214.119 64.7435C213.439 66.6475 212.816 68.2568 212.249 69.5715C211.682 70.9088 211.059 71.9175 210.379 72.5975C209.699 73.3002 208.849 73.6515 207.829 73.6515ZM223.174 64.4375V63.4175C223.876 63.4175 224.364 63.2475 224.636 62.9075C224.908 62.5448 225.066 62.0575 225.112 61.4455C225.18 60.8108 225.214 60.0855 225.214 59.2695V51.0415C225.214 50.5882 225.214 50.1915 225.214 49.8515C225.236 49.4888 225.282 49.1148 225.35 48.7295L223.208 48.8315V47.4375H241.092V48.4575C240.412 48.4575 239.924 48.6388 239.63 49.0015C239.358 49.3415 239.199 49.8288 239.154 50.4635C239.108 51.0755 239.086 51.7895 239.086 52.6055L239.018 60.8335C239.018 61.2868 239.006 61.6948 238.984 62.0575C238.984 62.3975 238.95 62.7602 238.882 63.1455L241.024 63.0435V64.4375H234.054V63.4175C234.756 63.4175 235.244 63.2475 235.516 62.9075C235.788 62.5448 235.946 62.0575 235.992 61.4455C236.06 60.8108 236.094 60.0855 236.094 59.2695L236.128 51.0415C236.128 50.5882 236.128 50.1915 236.128 49.8515C236.15 49.4888 236.196 49.1148 236.264 48.7295L230.212 48.7975C229.509 48.7975 229.022 48.9448 228.75 49.2395C228.478 49.5342 228.319 49.9648 228.274 50.5315C228.228 51.0982 228.194 51.7895 228.172 52.6055L228.138 60.8335C228.138 61.2868 228.126 61.6948 228.104 62.0575C228.104 62.3975 228.07 62.7602 228.002 63.1455L230.144 63.0435V64.4375H223.174ZM243.752 64.4375V63.4175C244.454 63.4175 244.942 63.2475 245.214 62.9075C245.486 62.5448 245.644 62.0575 245.69 61.4455C245.758 60.8108 245.792 60.0855 245.792 59.2695L245.826 51.0415C245.826 50.5882 245.826 50.1915 245.826 49.8515C245.848 49.4888 245.894 49.1148 245.962 48.7295C245.599 48.7522 245.236 48.7748 244.874 48.7975C244.534 48.7975 244.182 48.8088 243.82 48.8315V47.4375H250.756V48.4575C250.076 48.4575 249.588 48.6388 249.294 49.0015C249.022 49.3415 248.863 49.8288 248.818 50.4635C248.772 51.0755 248.75 51.7895 248.75 52.6055L248.716 54.8495H250.042L254.19 50.4975C254.575 50.1122 254.926 49.7722 255.244 49.4775C255.561 49.1602 255.878 48.8995 256.196 48.6955L253.884 48.7975V47.4375H260.072V48.4575C259.301 48.5255 258.576 48.7748 257.896 49.2055C257.238 49.6135 256.626 50.0782 256.06 50.5995C255.516 51.1208 255.04 51.5968 254.632 52.0275L251.98 54.8155C252.433 55.0195 252.818 55.2802 253.136 55.5975C253.453 55.9148 253.77 56.2662 254.088 56.6515L256.502 59.7455C256.615 59.8815 256.808 60.1422 257.08 60.5275C257.374 60.9128 257.714 61.3322 258.1 61.7855C258.508 62.2388 258.927 62.6242 259.358 62.9415C259.811 63.2588 260.23 63.4175 260.616 63.4175V64.4375H257.522C256.887 64.4375 256.286 64.1088 255.72 63.4515C255.153 62.7942 254.552 62.0575 253.918 61.2415C253.328 60.4255 252.796 59.6888 252.32 59.0315C251.866 58.3515 251.447 57.7622 251.062 57.2635C250.699 56.7648 250.37 56.3795 250.076 56.1075L248.716 56.1755L248.682 60.8335C248.682 61.2868 248.67 61.6948 248.648 62.0575C248.648 62.3975 248.614 62.7602 248.546 63.1455C248.908 63.1228 249.26 63.1115 249.6 63.1115C249.962 63.0888 250.325 63.0662 250.688 63.0435V64.4375H243.752ZM272.689 64.4375C272.621 64.0522 272.576 63.7122 272.553 63.4175C272.531 63.1228 272.497 62.8168 272.451 62.4995C271.681 63.2702 270.842 63.8822 269.935 64.3355C269.051 64.7662 268.111 64.9815 267.113 64.9815C265.391 64.9815 264.11 64.5962 263.271 63.8255C262.433 63.0322 262.013 62.0688 262.013 60.9355C262.013 59.8928 262.331 58.9975 262.965 58.2495C263.623 57.4788 264.461 56.8555 265.481 56.3795C266.524 55.8808 267.646 55.5182 268.847 55.2915C270.071 55.0422 271.25 54.9288 272.383 54.9515V52.8435C272.383 52.0502 272.315 51.3022 272.179 50.5995C272.043 49.8968 271.749 49.3188 271.295 48.8655C270.842 48.4122 270.117 48.1742 269.119 48.1515C268.462 48.1288 267.782 48.2535 267.079 48.5255C266.399 48.7975 265.901 49.2622 265.583 49.9195C265.765 50.1008 265.878 50.3162 265.923 50.5655C265.991 50.7922 266.025 51.0075 266.025 51.2115C266.025 51.4835 265.912 51.8008 265.685 52.1635C265.459 52.5035 265.062 52.6622 264.495 52.6395C264.019 52.6395 263.657 52.4808 263.407 52.1635C263.158 51.8235 263.033 51.4268 263.033 50.9735C263.033 50.2028 263.317 49.5115 263.883 48.8995C264.473 48.2875 265.277 47.8002 266.297 47.4375C267.317 47.0748 268.473 46.8935 269.765 46.8935C271.669 46.8935 273.075 47.4035 273.981 48.4235C274.888 49.4208 275.33 51.0075 275.307 53.1835C275.307 54.0222 275.307 54.8722 275.307 55.7335C275.307 56.5722 275.296 57.4222 275.273 58.2835C275.273 59.1222 275.273 59.9722 275.273 60.8335C275.273 61.1962 275.262 61.5588 275.239 61.9215C275.217 62.2842 275.183 62.6922 275.137 63.1455C275.545 63.1228 275.942 63.1002 276.327 63.0775C276.735 63.0548 277.143 63.0322 277.551 63.0095V64.4375H272.689ZM272.383 56.1075C271.613 56.1302 270.797 56.2322 269.935 56.4135C269.097 56.5722 268.315 56.8215 267.589 57.1615C266.887 57.5015 266.309 57.9548 265.855 58.5215C265.425 59.0655 265.221 59.7342 265.243 60.5275C265.289 61.3662 265.561 62.0008 266.059 62.4315C266.581 62.8395 267.193 63.0435 267.895 63.0435C268.825 63.0435 269.629 62.8735 270.309 62.5335C271.012 62.1708 271.703 61.6722 272.383 61.0375C272.361 60.7882 272.349 60.5162 272.349 60.2215C272.349 59.9268 272.349 59.6208 272.349 59.3035C272.349 59.1902 272.349 58.8275 272.349 58.2155C272.372 57.6035 272.383 56.9008 272.383 56.1075Z" fill="white"/>
<path d="M94.642 18.4075C94.11 18.4075 93.6293 18.5008 93.2 18.6875C92.7707 18.8648 92.4067 19.1308 92.108 19.4855C91.8093 19.8308 91.5807 20.2555 91.422 20.7595C91.2633 21.2542 91.184 21.8142 91.184 22.4395C91.184 23.2608 91.31 23.9748 91.562 24.5815C91.8233 25.1882 92.206 25.6548 92.71 25.9815C93.2233 26.3082 93.8627 26.4715 94.628 26.4715C95.0667 26.4715 95.482 26.4342 95.874 26.3595C96.266 26.2848 96.6487 26.1915 97.022 26.0795V27.1715C96.6487 27.3115 96.2613 27.4142 95.86 27.4795C95.468 27.5448 94.9967 27.5775 94.446 27.5775C93.4287 27.5775 92.5793 27.3675 91.898 26.9475C91.2167 26.5275 90.7033 25.9302 90.358 25.1555C90.022 24.3808 89.854 23.4708 89.854 22.4255C89.854 21.6695 89.9567 20.9788 90.162 20.3535C90.3767 19.7282 90.6847 19.1868 91.086 18.7295C91.4967 18.2722 92.0007 17.9222 92.598 17.6795C93.1953 17.4275 93.8813 17.3015 94.656 17.3015C95.1693 17.3015 95.664 17.3528 96.14 17.4555C96.616 17.5582 97.0407 17.7028 97.414 17.8895L96.91 18.9535C96.602 18.8135 96.2567 18.6875 95.874 18.5755C95.5007 18.4635 95.09 18.4075 94.642 18.4075ZM105.728 27.4375H104.482V20.9555H102.27C102.176 22.1408 102.06 23.1535 101.92 23.9935C101.78 24.8242 101.602 25.5008 101.388 26.0235C101.173 26.5462 100.916 26.9288 100.618 27.1715C100.319 27.4142 99.969 27.5355 99.5677 27.5355C99.4464 27.5355 99.325 27.5262 99.2037 27.5075C99.0917 27.4982 98.9984 27.4748 98.9237 27.4375V26.5135C98.9797 26.5322 99.0404 26.5462 99.1057 26.5555C99.171 26.5648 99.2364 26.5695 99.3017 26.5695C99.507 26.5695 99.6937 26.4855 99.8617 26.3175C100.03 26.1495 100.179 25.8928 100.31 25.5475C100.45 25.2022 100.576 24.7682 100.688 24.2455C100.8 23.7135 100.898 23.0882 100.982 22.3695C101.066 21.6508 101.14 20.8388 101.206 19.9335H105.728V27.4375ZM107.913 19.9335H109.229L110.853 24.2035C110.947 24.4555 111.031 24.6982 111.105 24.9315C111.189 25.1648 111.264 25.3935 111.329 25.6175C111.395 25.8322 111.446 26.0422 111.483 26.2475H111.539C111.595 26.0142 111.684 25.7108 111.805 25.3375C111.927 24.9548 112.053 24.5722 112.183 24.1895L113.709 19.9335H115.039L111.805 28.4735C111.628 28.9402 111.418 29.3462 111.175 29.6915C110.942 30.0462 110.653 30.3168 110.307 30.5035C109.971 30.6995 109.561 30.7975 109.075 30.7975C108.851 30.7975 108.655 30.7835 108.487 30.7555C108.319 30.7368 108.175 30.7135 108.053 30.6855V29.7055C108.156 29.7242 108.277 29.7428 108.417 29.7615C108.567 29.7802 108.721 29.7895 108.879 29.7895C109.169 29.7895 109.416 29.7335 109.621 29.6215C109.836 29.5188 110.018 29.3648 110.167 29.1595C110.317 28.9635 110.443 28.7302 110.545 28.4595L110.937 27.4655L107.913 19.9335ZM126.208 19.9335L123.114 23.5735L126.474 27.4375H125.074L121.826 23.6295V27.4375H120.678V23.6295L117.43 27.4375H116.03L119.39 23.5735L116.296 19.9335H117.64L120.678 23.5735V19.9335H121.826V23.5735L124.878 19.9335H126.208ZM128.294 22.9295C128.294 21.8375 128.402 20.9088 128.616 20.1435C128.84 19.3688 129.181 18.7528 129.638 18.2955C130.105 17.8288 130.702 17.5162 131.43 17.3575C132.037 17.2268 132.63 17.1102 133.208 17.0075C133.787 16.9048 134.328 16.8115 134.832 16.7275L135.042 17.8055C134.8 17.8428 134.529 17.8895 134.23 17.9455C133.932 17.9922 133.628 18.0435 133.32 18.0995C133.012 18.1462 132.714 18.1975 132.424 18.2535C132.144 18.3002 131.897 18.3468 131.682 18.3935C131.374 18.4588 131.099 18.5708 130.856 18.7295C130.614 18.8788 130.404 19.0842 130.226 19.3455C130.058 19.6068 129.923 19.9288 129.82 20.3115C129.718 20.6942 129.657 21.1468 129.638 21.6695H129.722C129.853 21.4922 130.03 21.3102 130.254 21.1235C130.488 20.9368 130.763 20.7782 131.08 20.6475C131.407 20.5168 131.776 20.4515 132.186 20.4515C132.84 20.4515 133.381 20.5962 133.81 20.8855C134.249 21.1655 134.576 21.5575 134.79 22.0615C135.014 22.5655 135.126 23.1535 135.126 23.8255C135.126 24.6562 134.982 25.3515 134.692 25.9115C134.403 26.4715 134.002 26.8915 133.488 27.1715C132.975 27.4422 132.378 27.5775 131.696 27.5775C131.183 27.5775 130.716 27.4795 130.296 27.2835C129.876 27.0782 129.517 26.7795 129.218 26.3875C128.92 25.9955 128.691 25.5102 128.532 24.9315C128.374 24.3528 128.294 23.6855 128.294 22.9295ZM131.794 26.5555C132.205 26.5555 132.56 26.4715 132.858 26.3035C133.166 26.1355 133.404 25.8602 133.572 25.4775C133.74 25.0948 133.824 24.5862 133.824 23.9515C133.824 23.1862 133.68 22.5842 133.39 22.1455C133.11 21.6975 132.644 21.4735 131.99 21.4735C131.58 21.4735 131.206 21.5668 130.87 21.7535C130.534 21.9308 130.254 22.1362 130.03 22.3695C129.806 22.6028 129.648 22.7988 129.554 22.9575C129.554 23.4148 129.587 23.8582 129.652 24.2875C129.718 24.7168 129.83 25.1042 129.988 25.4495C130.156 25.7855 130.385 26.0562 130.674 26.2615C130.973 26.4575 131.346 26.5555 131.794 26.5555ZM140.889 19.8075C141.804 19.8075 142.48 20.0082 142.919 20.4095C143.358 20.8108 143.577 21.4502 143.577 22.3275V27.4375H142.681L142.443 26.3735H142.387C142.172 26.6442 141.948 26.8728 141.715 27.0595C141.491 27.2368 141.23 27.3675 140.931 27.4515C140.642 27.5355 140.287 27.5775 139.867 27.5775C139.419 27.5775 139.013 27.4982 138.649 27.3395C138.294 27.1808 138.014 26.9382 137.809 26.6115C137.604 26.2755 137.501 25.8555 137.501 25.3515C137.501 24.6048 137.795 24.0308 138.383 23.6295C138.971 23.2188 139.876 22.9948 141.099 22.9575L142.373 22.9155V22.4675C142.373 21.8422 142.238 21.4082 141.967 21.1655C141.696 20.9228 141.314 20.8015 140.819 20.8015C140.427 20.8015 140.054 20.8622 139.699 20.9835C139.344 21.0955 139.013 21.2262 138.705 21.3755L138.327 20.4515C138.654 20.2742 139.041 20.1248 139.489 20.0035C139.937 19.8728 140.404 19.8075 140.889 19.8075ZM141.253 23.8115C140.32 23.8488 139.671 23.9982 139.307 24.2595C138.952 24.5208 138.775 24.8895 138.775 25.3655C138.775 25.7855 138.901 26.0935 139.153 26.2895C139.414 26.4855 139.746 26.5835 140.147 26.5835C140.782 26.5835 141.309 26.4108 141.729 26.0655C142.149 25.7108 142.359 25.1695 142.359 24.4415V23.7695L141.253 23.8115ZM154.255 27.5775C153.593 27.5775 153 27.4422 152.477 27.1715C151.964 26.9008 151.558 26.4808 151.259 25.9115C150.97 25.3422 150.825 24.6142 150.825 23.7275C150.825 22.8035 150.979 22.0522 151.287 21.4735C151.595 20.8948 152.011 20.4702 152.533 20.1995C153.065 19.9288 153.667 19.7935 154.339 19.7935C154.722 19.7935 155.091 19.8355 155.445 19.9195C155.8 19.9942 156.089 20.0875 156.313 20.1995L155.935 21.2215C155.711 21.1375 155.45 21.0582 155.151 20.9835C154.853 20.9088 154.573 20.8715 154.311 20.8715C153.807 20.8715 153.392 20.9788 153.065 21.1935C152.739 21.4082 152.496 21.7255 152.337 22.1455C152.179 22.5655 152.099 23.0882 152.099 23.7135C152.099 24.3108 152.179 24.8195 152.337 25.2395C152.496 25.6595 152.734 25.9768 153.051 26.1915C153.369 26.4062 153.765 26.5135 154.241 26.5135C154.652 26.5135 155.011 26.4715 155.319 26.3875C155.637 26.3035 155.926 26.2008 156.187 26.0795V27.1715C155.935 27.3022 155.655 27.4002 155.347 27.4655C155.049 27.5402 154.685 27.5775 154.255 27.5775ZM163.39 19.9335H164.734L161.528 23.5455L165 27.4375H163.572L160.184 23.6295V27.4375H158.952V19.9335H160.184V23.5735L163.39 19.9335ZM166.166 19.9335H167.482L169.106 24.2035C169.199 24.4555 169.283 24.6982 169.358 24.9315C169.442 25.1648 169.517 25.3935 169.582 25.6175C169.647 25.8322 169.699 26.0422 169.736 26.2475H169.792C169.848 26.0142 169.937 25.7108 170.058 25.3375C170.179 24.9548 170.305 24.5722 170.436 24.1895L171.962 19.9335H173.292L170.058 28.4735C169.881 28.9402 169.671 29.3462 169.428 29.6915C169.195 30.0462 168.905 30.3168 168.56 30.5035C168.224 30.6995 167.813 30.7975 167.328 30.7975C167.104 30.7975 166.908 30.7835 166.74 30.7555C166.572 30.7368 166.427 30.7135 166.306 30.6855V29.7055C166.409 29.7242 166.53 29.7428 166.67 29.7615C166.819 29.7802 166.973 29.7895 167.132 29.7895C167.421 29.7895 167.669 29.7335 167.874 29.6215C168.089 29.5188 168.271 29.3648 168.42 29.1595C168.569 28.9635 168.695 28.7302 168.798 28.4595L169.19 27.4655L166.166 19.9335ZM181.801 19.9335V27.4375H180.569V20.9835H176.691V27.4375H175.459V19.9335H181.801ZM189.613 19.9335H190.957L187.751 23.5455L191.223 27.4375H189.795L186.407 23.6295V27.4375H185.175V19.9335H186.407V23.5735L189.613 19.9335ZM194.727 24.5115C194.727 24.5955 194.723 24.7168 194.713 24.8755C194.713 25.0248 194.709 25.1882 194.699 25.3655C194.69 25.5335 194.681 25.6968 194.671 25.8555C194.662 26.0048 194.653 26.1262 194.643 26.2195L198.661 19.9335H200.173V27.4375H199.025V23.0135C199.025 22.8642 199.025 22.6682 199.025 22.4255C199.035 22.1828 199.044 21.9448 199.053 21.7115C199.063 21.4688 199.072 21.2868 199.081 21.1655L195.091 27.4375H193.565V19.9335H194.727V24.5115ZM213.946 21.8235C213.946 22.2902 213.806 22.6542 213.526 22.9155C213.246 23.1768 212.887 23.3542 212.448 23.4475V23.5035C212.915 23.5688 213.321 23.7368 213.666 24.0075C214.011 24.2688 214.184 24.6795 214.184 25.2395C214.184 25.5568 214.123 25.8508 214.002 26.1215C213.89 26.3922 213.713 26.6255 213.47 26.8215C213.227 27.0175 212.915 27.1715 212.532 27.2835C212.149 27.3862 211.687 27.4375 211.146 27.4375H207.912V19.9335H211.132C211.664 19.9335 212.14 19.9942 212.56 20.1155C212.989 20.2275 213.325 20.4235 213.568 20.7035C213.82 20.9742 213.946 21.3475 213.946 21.8235ZM212.91 25.2395C212.91 24.8102 212.747 24.5022 212.42 24.3155C212.093 24.1288 211.613 24.0355 210.978 24.0355H209.144V26.4435H211.006C211.622 26.4435 212.093 26.3548 212.42 26.1775C212.747 25.9908 212.91 25.6782 212.91 25.2395ZM212.7 21.9775C212.7 21.6228 212.569 21.3662 212.308 21.2075C212.056 21.0395 211.641 20.9555 211.062 20.9555H209.144V23.0135H210.838C211.445 23.0135 211.907 22.9295 212.224 22.7615C212.541 22.5935 212.7 22.3322 212.7 21.9775ZM225.907 27.4375L222.617 18.6735H222.561C222.58 18.8602 222.594 19.0982 222.603 19.3875C222.622 19.6768 222.636 19.9942 222.645 20.3395C222.654 20.6755 222.659 21.0208 222.659 21.3755V27.4375H221.497V17.4415H223.359L226.439 25.6315H226.495L229.631 17.4415H231.479V27.4375H230.233V21.2915C230.233 20.9648 230.238 20.6428 230.247 20.3255C230.256 19.9988 230.27 19.6955 230.289 19.4155C230.308 19.1262 230.322 18.8835 230.331 18.6875H230.275L226.943 27.4375H225.907ZM241.534 23.6715C241.534 24.2968 241.45 24.8522 241.282 25.3375C241.123 25.8135 240.89 26.2195 240.582 26.5555C240.283 26.8915 239.915 27.1482 239.476 27.3255C239.047 27.4935 238.566 27.5775 238.034 27.5775C237.539 27.5775 237.082 27.4935 236.662 27.3255C236.242 27.1482 235.878 26.8915 235.57 26.5555C235.262 26.2195 235.019 25.8135 234.842 25.3375C234.674 24.8522 234.59 24.2968 234.59 23.6715C234.59 22.8408 234.73 22.1408 235.01 21.5715C235.29 20.9928 235.691 20.5542 236.214 20.2555C236.737 19.9475 237.357 19.7935 238.076 19.7935C238.757 19.7935 239.355 19.9475 239.868 20.2555C240.391 20.5542 240.797 20.9928 241.086 21.5715C241.385 22.1408 241.534 22.8408 241.534 23.6715ZM235.864 23.6715C235.864 24.2595 235.939 24.7728 236.088 25.2115C236.247 25.6408 236.489 25.9722 236.816 26.2055C237.143 26.4388 237.558 26.5555 238.062 26.5555C238.566 26.5555 238.981 26.4388 239.308 26.2055C239.635 25.9722 239.873 25.6408 240.022 25.2115C240.181 24.7728 240.26 24.2595 240.26 23.6715C240.26 23.0742 240.181 22.5655 240.022 22.1455C239.863 21.7255 239.621 21.4035 239.294 21.1795C238.977 20.9462 238.561 20.8295 238.048 20.8295C237.283 20.8295 236.727 21.0815 236.382 21.5855C236.037 22.0895 235.864 22.7848 235.864 23.6715ZM247.477 27.5775C246.814 27.5775 246.221 27.4422 245.699 27.1715C245.185 26.9008 244.779 26.4808 244.481 25.9115C244.191 25.3422 244.047 24.6142 244.047 23.7275C244.047 22.8035 244.201 22.0522 244.509 21.4735C244.817 20.8948 245.232 20.4702 245.755 20.1995C246.287 19.9288 246.889 19.7935 247.561 19.7935C247.943 19.7935 248.312 19.8355 248.667 19.9195C249.021 19.9942 249.311 20.0875 249.535 20.1995L249.157 21.2215C248.933 21.1375 248.671 21.0582 248.373 20.9835C248.074 20.9088 247.794 20.8715 247.533 20.8715C247.029 20.8715 246.613 20.9788 246.287 21.1935C245.96 21.4082 245.717 21.7255 245.559 22.1455C245.4 22.5655 245.321 23.0882 245.321 23.7135C245.321 24.3108 245.4 24.8195 245.559 25.2395C245.717 25.6595 245.955 25.9768 246.273 26.1915C246.59 26.4062 246.987 26.5135 247.463 26.5135C247.873 26.5135 248.233 26.4715 248.541 26.3875C248.858 26.3035 249.147 26.2008 249.409 26.0795V27.1715C249.157 27.3022 248.877 27.4002 248.569 27.4655C248.27 27.5402 247.906 27.5775 247.477 27.5775ZM256.611 19.9335H257.955L254.749 23.5455L258.221 27.4375H256.793L253.405 23.6295V27.4375H252.173V19.9335H253.405V23.5735L256.611 19.9335ZM266.597 21.8235C266.597 22.2902 266.457 22.6542 266.177 22.9155C265.897 23.1768 265.538 23.3542 265.099 23.4475V23.5035C265.566 23.5688 265.972 23.7368 266.317 24.0075C266.663 24.2688 266.835 24.6795 266.835 25.2395C266.835 25.5568 266.775 25.8508 266.653 26.1215C266.541 26.3922 266.364 26.6255 266.121 26.8215C265.879 27.0175 265.566 27.1715 265.183 27.2835C264.801 27.3862 264.339 27.4375 263.797 27.4375H260.563V19.9335H263.783C264.315 19.9335 264.791 19.9942 265.211 20.1155C265.641 20.2275 265.977 20.4235 266.219 20.7035C266.471 20.9742 266.597 21.3475 266.597 21.8235ZM265.561 25.2395C265.561 24.8102 265.398 24.5022 265.071 24.3155C264.745 24.1288 264.264 24.0355 263.629 24.0355H261.795V26.4435H263.657C264.273 26.4435 264.745 26.3548 265.071 26.1775C265.398 25.9908 265.561 25.6782 265.561 25.2395ZM265.351 21.9775C265.351 21.6228 265.221 21.3662 264.959 21.2075C264.707 21.0395 264.292 20.9555 263.713 20.9555H261.795V23.0135H263.489C264.096 23.0135 264.558 22.9295 264.875 22.7615C265.193 22.5935 265.351 22.3322 265.351 21.9775ZM272.508 19.7935C273.152 19.7935 273.703 19.9335 274.16 20.2135C274.627 20.4935 274.981 20.8902 275.224 21.4035C275.476 21.9075 275.602 22.5002 275.602 23.1815V23.9235H270.464C270.483 24.7728 270.697 25.4215 271.108 25.8695C271.528 26.3082 272.111 26.5275 272.858 26.5275C273.334 26.5275 273.754 26.4855 274.118 26.4015C274.491 26.3082 274.874 26.1775 275.266 26.0095V27.0875C274.883 27.2555 274.505 27.3768 274.132 27.4515C273.759 27.5355 273.315 27.5775 272.802 27.5775C272.093 27.5775 271.463 27.4328 270.912 27.1435C270.371 26.8542 269.946 26.4248 269.638 25.8555C269.339 25.2768 269.19 24.5722 269.19 23.7415C269.19 22.9202 269.325 22.2155 269.596 21.6275C269.876 21.0395 270.263 20.5868 270.758 20.2695C271.262 19.9522 271.845 19.7935 272.508 19.7935ZM272.494 20.8015C271.906 20.8015 271.439 20.9928 271.094 21.3755C270.758 21.7488 270.557 22.2715 270.492 22.9435H274.314C274.314 22.5142 274.249 22.1408 274.118 21.8235C273.987 21.5062 273.787 21.2588 273.516 21.0815C273.255 20.8948 272.914 20.8015 272.494 20.8015Z" fill="white"/>
</svg>
