<svg width="30" height="30" viewBox="0 0 30 30" fill="none" xmlns="http://www.w3.org/2000/svg">
<g clip-path="url(#clip0_262_37817)">
<path d="M19.2188 12.232C19.2188 13.9277 21.5168 17.0962 22.2211 18.0272C22.3085 18.1427 22.4215 18.2364 22.5512 18.301C22.681 18.3655 22.8239 18.3991 22.9688 18.3991C23.1136 18.3991 23.2565 18.3655 23.3863 18.301C23.516 18.2364 23.629 18.1427 23.7164 18.0272C24.4207 17.0962 26.7188 13.9277 26.7188 12.2318C26.6997 11.2498 26.2963 10.3145 25.5951 9.62671C24.8939 8.93897 23.9509 8.55371 22.9688 8.55371C21.9866 8.55371 21.0436 8.93897 20.3424 9.62671C19.6412 10.3145 19.2378 11.25 19.2188 12.232ZM25.7812 12.232C25.7812 13.7447 22.9688 17.4614 22.9688 17.4614C22.9688 17.4614 20.1562 13.7447 20.1562 12.2318C20.1752 11.4984 20.4798 10.8015 21.0052 10.2895C21.5306 9.77751 22.2352 9.49098 22.9688 9.49098C23.7023 9.49098 24.4069 9.77751 24.9323 10.2895C25.4577 10.8015 25.7623 11.4987 25.7812 12.232Z" fill="#E8BE38"/>
<path d="M21.0938 12.3047C21.0938 12.6755 21.2037 13.038 21.4097 13.3464C21.6158 13.6547 21.9086 13.895 22.2512 14.037C22.5938 14.1789 22.9708 14.216 23.3345 14.1437C23.6983 14.0713 24.0324 13.8927 24.2946 13.6305C24.5568 13.3683 24.7354 13.0342 24.8077 12.6705C24.8801 12.3068 24.8429 11.9298 24.701 11.5872C24.5591 11.2445 24.3188 10.9517 24.0104 10.7457C23.7021 10.5397 23.3396 10.4297 22.9688 10.4297C22.4717 10.4303 21.9951 10.6281 21.6436 10.9795C21.2921 11.331 21.0944 11.8076 21.0938 12.3047ZM23.9062 12.3047C23.9062 12.4901 23.8513 12.6714 23.7483 12.8255C23.6452 12.9797 23.4988 13.0999 23.3275 13.1708C23.1562 13.2418 22.9677 13.2603 22.7859 13.2242C22.604 13.188 22.4369 13.0987 22.3058 12.9676C22.1747 12.8365 22.0854 12.6694 22.0493 12.4876C22.0131 12.3057 22.0317 12.1172 22.1026 11.9459C22.1736 11.7746 22.2937 11.6282 22.4479 11.5252C22.6021 11.4222 22.7833 11.3672 22.9688 11.3672C23.2174 11.3672 23.4558 11.466 23.6317 11.6418C23.8075 11.8176 23.9062 12.056 23.9062 12.3047Z" fill="#E8BE38"/>
<path d="M29.4827 0.568273C29.3273 0.490304 29.1533 0.457101 28.98 0.472374C28.8068 0.487646 28.6413 0.550794 28.5019 0.654757L22.8429 4.87702C22.8074 4.86817 22.771 4.86353 22.7344 4.86319C22.7313 4.86319 22.7288 4.8639 22.7257 4.86413L17.7286 1.13569C17.5667 1.01487 17.37 0.949597 17.168 0.949597C16.9659 0.949597 16.7693 1.01487 16.6073 1.13569L6.50391 8.6739L1.49813 4.93913C1.35874 4.83514 1.19318 4.77196 1.01994 4.75667C0.84671 4.74137 0.672638 4.77457 0.517189 4.85253C0.36174 4.9305 0.231041 5.05017 0.139706 5.19816C0.0483707 5.34615 -6.78046e-07 5.51663 0 5.69054L0 24.4405C-5.68999e-07 24.5865 0.0340696 24.7304 0.0994979 24.8608C0.164926 24.9913 0.259906 25.1047 0.376875 25.1919L5.94328 29.3451C6.10522 29.4659 6.30186 29.5312 6.50391 29.5312C6.70595 29.5312 6.90259 29.4659 7.06453 29.3451L17.168 21.8066L22.2323 25.5852C22.3943 25.706 22.5909 25.7713 22.793 25.7713C22.995 25.7713 23.1917 25.706 23.3536 25.5852L29.6231 20.9076C29.7401 20.8203 29.8351 20.7069 29.9005 20.5765C29.9659 20.446 30 20.3021 30 20.1562V1.40616C30 1.23227 29.9516 1.06181 29.8602 0.913838C29.7689 0.765868 29.6382 0.646221 29.4827 0.568273ZM0.9375 5.69054L6.09375 9.53757V14.1796C6.09373 14.2662 6.11773 14.3512 6.16307 14.425C6.20841 14.4988 6.27333 14.5587 6.35061 14.5978C6.42789 14.637 6.51452 14.654 6.60087 14.6469C6.68721 14.6398 6.76991 14.6089 6.83977 14.5576L11.0156 11.4953V16.034L6.30609 19.5116L0.951562 16.1648C0.946875 16.1622 0.942187 16.1605 0.9375 16.158V5.69054ZM6.27844 23.4163C6.22105 23.46 6.17453 23.5164 6.1425 23.581C6.11047 23.6457 6.09378 23.7168 6.09375 23.789V28.2876L0.9375 24.4405V17.2616L6.07969 20.4756C6.15945 20.5254 6.25234 20.5501 6.3463 20.5464C6.44026 20.5427 6.53094 20.5109 6.60656 20.455L11.0156 17.1991V19.8069L6.27844 23.4163ZM16.6406 21.0304L7.03125 28.2001V24.0212L11.7684 20.4119C11.8259 20.3681 11.8724 20.3117 11.9044 20.247C11.9365 20.1824 11.9531 20.1112 11.9531 20.039V10.8076L16.6406 7.3703V21.0304ZM29.0625 20.1562L23.2031 24.528V22.0898L29.0625 17.6952V20.1562ZM29.0625 3.57085L23.4977 7.64851C23.9043 7.69415 24.3031 7.79264 24.6841 7.94148L29.0625 4.73312V12.7684L27.1931 14.1222C26.9233 14.7564 26.609 15.3707 26.2526 15.9606L29.0625 13.926V16.5233L22.4531 21.4804C22.3949 21.524 22.3476 21.5806 22.3151 21.6457C22.2825 21.7108 22.2656 21.7826 22.2656 21.8554V24.4405L17.5781 20.9432V10.4291L18.4744 10.9298C18.5643 10.6274 18.6855 10.3352 18.836 10.0579L17.6505 9.3953C17.6273 9.38281 17.6031 9.3723 17.5781 9.3639V6.44523C17.5781 6.35859 17.5541 6.27364 17.5088 6.19981C17.4635 6.12599 17.3985 6.06617 17.3213 6.02701C17.244 5.98784 17.1574 5.97087 17.071 5.97796C16.9847 5.98505 16.902 6.01593 16.8321 6.06718L7.03125 13.2545V9.45015L17.168 1.88687L22.2656 5.69054V7.67476C22.4982 7.63814 22.7333 7.61887 22.9688 7.6171C23.048 7.6171 23.1248 7.62507 23.2031 7.62882V5.77796L29.0625 1.40616V3.57085Z" fill="#E8BE38"/>
</g>
<defs>
<clipPath id="clip0_262_37817">
<rect width="30" height="30" fill="white"/>
</clipPath>
</defs>
</svg>
