<svg width="50" height="50" viewBox="0 0 50 50" fill="none" xmlns="http://www.w3.org/2000/svg">
<rect x="0.5" y="0.5" width="49" height="49" rx="4.5" stroke="#197D7F"/>
<path fill-rule="evenodd" clip-rule="evenodd" d="M14.1663 30.8327H13.333C11.9522 30.8327 10.833 31.9518 10.833 33.3327C10.833 34.7135 11.9522 35.8327 13.333 35.8327H16.6663C17.1263 35.8327 17.4997 36.206 17.4997 36.666C17.4997 37.126 17.1263 37.4993 16.6663 37.4993H13.333C12.873 37.4993 12.4997 37.126 12.4997 36.666C12.4997 36.206 12.1263 35.8327 11.6663 35.8327C11.2063 35.8327 10.833 36.206 10.833 36.666C10.833 38.0468 11.9522 39.166 13.333 39.166H14.1663V39.9993C14.1663 40.4593 14.5397 40.8327 14.9997 40.8327C15.4597 40.8327 15.833 40.4593 15.833 39.9993V39.166H16.6663C18.0472 39.166 19.1663 38.0468 19.1663 36.666C19.1663 35.2852 18.0472 34.166 16.6663 34.166H13.333C12.873 34.166 12.4997 33.7927 12.4997 33.3327C12.4997 32.8727 12.873 32.4993 13.333 32.4993H16.6663C17.1263 32.4993 17.4997 32.8727 17.4997 33.3327C17.4997 33.7927 17.873 34.166 18.333 34.166C18.793 34.166 19.1663 33.7927 19.1663 33.3327C19.1663 31.9518 18.0472 30.8327 16.6663 30.8327H15.833V29.9993C15.833 29.5393 15.4597 29.166 14.9997 29.166C14.5397 29.166 14.1663 29.5393 14.1663 29.9993V30.8327Z" fill="#197D7F"/>
<path fill-rule="evenodd" clip-rule="evenodd" d="M14.9997 25.833C9.94051 25.833 5.83301 29.9405 5.83301 34.9997C5.83301 40.0588 9.94051 44.1663 14.9997 44.1663C20.0588 44.1663 24.1663 40.0588 24.1663 34.9997C24.1663 29.9405 20.0588 25.833 14.9997 25.833ZM14.9997 27.4997C19.1388 27.4997 22.4997 30.8605 22.4997 34.9997C22.4997 39.1388 19.1388 42.4997 14.9997 42.4997C10.8605 42.4997 7.49967 39.1388 7.49967 34.9997C7.49967 30.8605 10.8605 27.4997 14.9997 27.4997Z" fill="#197D7F"/>
<path fill-rule="evenodd" clip-rule="evenodd" d="M26.4697 28.3333C26.0605 28.79 25.833 29.3833 25.833 30V31.6667C25.833 32.2833 26.0605 32.8767 26.4697 33.3333C26.0605 33.79 25.833 34.3833 25.833 35V36.6667C25.833 37.2833 26.0605 37.8767 26.4697 38.3333C26.0605 38.79 25.833 39.3833 25.833 40V41.6667C25.833 42.33 26.0963 42.9658 26.5655 43.4342C27.0338 43.9033 27.6697 44.1667 28.333 44.1667C31.5263 44.1667 38.473 44.1667 41.6663 44.1667C42.3297 44.1667 42.9655 43.9033 43.4338 43.4342C43.903 42.9658 44.1663 42.33 44.1663 41.6667V40C44.1663 39.3833 43.9388 38.79 43.5297 38.3333C43.9388 37.8767 44.1663 37.2833 44.1663 36.6667V35C44.1663 34.3833 43.9388 33.79 43.5297 33.3333C43.9388 32.8767 44.1663 32.2833 44.1663 31.6667V30C44.1663 29.3833 43.9388 28.79 43.5297 28.3333C43.9388 27.8767 44.1663 27.2833 44.1663 26.6667V25C44.1663 24.3367 43.903 23.7008 43.4338 23.2325C42.9655 22.7633 42.3297 22.5 41.6663 22.5C38.473 22.5 31.5263 22.5 28.333 22.5C27.6697 22.5 27.0338 22.7633 26.5655 23.2325C26.0963 23.7008 25.833 24.3367 25.833 25V26.6667C25.833 27.2833 26.0605 27.8767 26.4697 28.3333ZM28.333 39.1667H41.6663C41.8872 39.1667 42.0997 39.2542 42.2555 39.4108C42.4122 39.5667 42.4997 39.7792 42.4997 40V41.6667C42.4997 41.8875 42.4122 42.1 42.2555 42.2558C42.0997 42.4125 41.8872 42.5 41.6663 42.5H28.333C28.1122 42.5 27.8997 42.4125 27.7438 42.2558C27.5872 42.1 27.4997 41.8875 27.4997 41.6667V40C27.4997 39.7792 27.5872 39.5667 27.7438 39.4108C27.8997 39.2542 28.1122 39.1667 28.333 39.1667ZM28.333 34.1667H41.6663C41.8872 34.1667 42.0997 34.2542 42.2555 34.4108C42.4122 34.5667 42.4997 34.7792 42.4997 35V36.6667C42.4997 36.8875 42.4122 37.1 42.2555 37.2558C42.0997 37.4125 41.8872 37.5 41.6663 37.5H28.333C28.1122 37.5 27.8997 37.4125 27.7438 37.2558C27.5872 37.1 27.4997 36.8875 27.4997 36.6667V35C27.4997 34.7792 27.5872 34.5667 27.7438 34.4108C27.8997 34.2542 28.1122 34.1667 28.333 34.1667ZM28.333 29.1667H41.6663C41.8872 29.1667 42.0997 29.2542 42.2555 29.4108C42.4122 29.5667 42.4997 29.7792 42.4997 30V31.6667C42.4997 31.8875 42.4122 32.1 42.2555 32.2558C42.0997 32.4125 41.8872 32.5 41.6663 32.5H28.333C28.1122 32.5 27.8997 32.4125 27.7438 32.2558C27.5872 32.1 27.4997 31.8875 27.4997 31.6667V30C27.4997 29.7792 27.5872 29.5667 27.7438 29.4108C27.8997 29.2542 28.1122 29.1667 28.333 29.1667ZM41.6663 27.5H28.333C28.1122 27.5 27.8997 27.4125 27.7438 27.2558C27.5872 27.1 27.4997 26.8875 27.4997 26.6667V25C27.4997 24.7792 27.5872 24.5667 27.7438 24.4108C27.8997 24.2542 28.1122 24.1667 28.333 24.1667H41.6663C41.8872 24.1667 42.0997 24.2542 42.2555 24.4108C42.4122 24.5667 42.4997 24.7792 42.4997 25V26.6667C42.4997 26.8875 42.4122 27.1 42.2555 27.2558C42.0997 27.4125 41.8872 27.5 41.6663 27.5Z" fill="#197D7F"/>
<path fill-rule="evenodd" clip-rule="evenodd" d="M19.1662 23.3327V20.8327H19.9479C20.9004 20.8327 21.7704 20.2919 22.1912 19.4369C22.6121 18.5827 22.5104 17.5636 21.9296 16.8086L16.9812 10.3753C16.5079 9.76025 15.7754 9.39941 14.9996 9.39941C14.2237 9.39941 13.4912 9.76025 13.0179 10.3753C11.6879 12.1044 9.61623 14.7969 8.06956 16.8086C7.48873 17.5636 7.38706 18.5827 7.8079 19.4369C8.22873 20.2919 9.09874 20.8327 10.0512 20.8327H10.8329V23.3327C10.8329 23.7927 11.2062 24.1661 11.6662 24.1661C12.1262 24.1661 12.4996 23.7927 12.4996 23.3327V19.9994C12.4996 19.5394 12.1262 19.1661 11.6662 19.1661H10.0512C9.73374 19.1661 9.44374 18.9861 9.30374 18.7011C9.16291 18.4161 9.19708 18.0761 9.39041 17.8244L14.3387 11.3919C14.4971 11.1861 14.7412 11.0661 14.9996 11.0661C15.2579 11.0661 15.5021 11.1861 15.6604 11.3919L20.6087 17.8244C20.8021 18.0761 20.8362 18.4161 20.6954 18.7011C20.5554 18.9861 20.2654 19.1661 19.9479 19.1661H18.3329C17.8729 19.1661 17.4996 19.5394 17.4996 19.9994V23.3327C17.4996 23.7927 17.8729 24.1661 18.3329 24.1661C18.7929 24.1661 19.1662 23.7927 19.1662 23.3327Z" fill="#197D7F"/>
<path fill-rule="evenodd" clip-rule="evenodd" d="M39.1145 19.9997V17.4997H39.8961C40.8486 17.4997 41.7186 16.9589 42.1395 16.1039C42.5603 15.2497 42.4587 14.2306 41.8778 13.4756L36.9295 7.04224C36.4561 6.42724 35.7236 6.06641 34.9478 6.06641C34.172 6.06641 33.4395 6.42724 32.9662 7.04224C31.6362 8.77141 29.5645 11.4639 28.0178 13.4756C27.437 14.2306 27.3353 15.2497 27.7561 16.1039C28.177 16.9589 29.047 17.4997 29.9995 17.4997H30.7811V19.9997C30.7811 20.4597 31.1545 20.8331 31.6145 20.8331C32.0745 20.8331 32.4478 20.4597 32.4478 19.9997V16.6664C32.4478 16.2064 32.0745 15.8331 31.6145 15.8331H29.9995C29.682 15.8331 29.392 15.6531 29.252 15.3681C29.1112 15.0831 29.1453 14.7431 29.3387 14.4914L34.287 8.05891C34.4453 7.85308 34.6895 7.73307 34.9478 7.73307C35.2061 7.73307 35.4503 7.85308 35.6086 8.05891L40.557 14.4914C40.7503 14.7431 40.7845 15.0831 40.6436 15.3681C40.5036 15.6531 40.2136 15.8331 39.8961 15.8331H38.2811C37.8211 15.8331 37.4478 16.2064 37.4478 16.6664V19.9997C37.4478 20.4597 37.8211 20.8331 38.2811 20.8331C38.7411 20.8331 39.1145 20.4597 39.1145 19.9997Z" fill="#197D7F"/>
</svg>
