<svg width="28" height="28" viewBox="0 0 28 28" fill="none" xmlns="http://www.w3.org/2000/svg">
<path d="M24.5 0.5H3.5C1.85 0.5 0.5 1.85 0.5 3.5V24.5C0.5 26.15 1.85 27.5 3.5 27.5H24.5C26.15 27.5 27.5 26.15 27.5 24.5V3.5C27.5 1.85 26.15 0.5 24.5 0.5ZM3.5 26.3C2.51 26.3 1.7 25.49 1.7 24.5V22.04L8.9 14.27L20.48 26.3H3.5ZM26.3 24.5C26.3 25.49 25.49 26.3 24.5 26.3H22.13L13.49 17.3L20.15 10.37L26.3 17V24.5ZM26.3 15.23L20.6 9.08L20.57 9.05C20.54 9.05 20.54 9.02 20.51 9.02C20.51 9.02 20.48 8.99 20.45 8.99C20.42 8.99 20.42 8.96 20.39 8.96C20.36 8.96 20.36 8.96 20.33 8.93H19.97C19.94 8.93 19.94 8.93 19.91 8.96C19.88 8.96 19.88 8.99 19.85 8.99C19.82 8.99 19.82 9.02 19.79 9.02C19.76 9.02 19.76 9.05 19.73 9.05L19.7 9.08L12.65 16.43L9.32 12.98C9.32 12.98 9.29 12.98 9.29 12.95C9.26 12.92 9.26 12.92 9.23 12.92C9.23 12.92 9.2 12.89 9.17 12.89C9.14 12.89 9.14 12.86 9.11 12.86C9.08 12.86 9.08 12.86 9.05 12.83H8.69C8.66 12.83 8.66 12.83 8.63 12.86C8.6 12.86 8.6 12.86 8.57 12.89C8.54 12.89 8.54 12.92 8.51 12.92C8.48 12.92 8.48 12.95 8.45 12.95C8.45 12.95 8.42 12.95 8.42 12.98L1.7 20.27V3.5C1.7 2.51 2.51 1.7 3.5 1.7H24.5C25.49 1.7 26.3 2.51 26.3 3.5V15.23ZM7.1 4.1C5.45 4.1 4.1 5.45 4.1 7.1C4.1 8.75 5.45 10.1 7.1 10.1C8.75 10.1 10.1 8.75 10.1 7.1C10.1 5.45 8.75 4.1 7.1 4.1ZM7.1 8.9C6.11 8.9 5.3 8.09 5.3 7.1C5.3 6.11 6.11 5.3 7.1 5.3C8.09 5.3 8.9 6.11 8.9 7.1C8.9 8.09 8.09 8.9 7.1 8.9Z" fill="#E8BE38"/>
</svg>
