<svg width="201" height="106" viewBox="0 0 201 106" fill="none" xmlns="http://www.w3.org/2000/svg">
<g clip-path="url(#clip0_385_22594)">
<path fill-rule="evenodd" clip-rule="evenodd" d="M128.317 12.4338C127.444 12.4342 126.607 12.7813 125.99 13.3988C125.373 14.0163 125.026 14.8535 125.026 15.7266C125.026 16.8726 125.586 17.8793 126.475 18.4677L115.307 42.4341L117.639 10.5205C118.482 10.4437 119.263 10.0456 119.82 9.40874C120.377 8.77189 120.668 7.94509 120.632 7.09963C120.597 6.25417 120.237 5.45486 119.628 4.86729C119.019 4.27973 118.207 3.94895 117.361 3.94348C116.488 3.94348 115.651 4.29029 115.033 4.90762C114.416 5.52495 114.069 6.36227 114.068 7.23542C114.068 8.66629 114.984 9.8611 116.258 10.3144L108.596 41.4745L104.807 7.10114C105.503 6.91825 106.119 6.50952 106.558 5.939C106.997 5.36849 107.234 4.66845 107.232 3.94862C107.232 3.07543 106.885 2.238 106.268 1.62056C105.651 1.00312 104.813 0.65625 103.94 0.65625C103.067 0.65625 102.229 1.00312 101.612 1.62056C100.994 2.238 100.648 3.07543 100.648 3.94862C100.648 5.5933 101.86 6.91897 103.435 7.16443L100.379 40.6534L91.5005 10.4128C92.032 10.1368 92.4774 9.72016 92.7881 9.20823C93.0988 8.6963 93.2629 8.10881 93.2623 7.50996C93.2623 6.63678 92.9154 5.79935 92.298 5.18191C91.6806 4.56447 90.8431 4.2176 89.9699 4.2176C89.0968 4.2176 88.2593 4.56447 87.6419 5.18191C87.0245 5.79935 86.6776 6.63678 86.6776 7.50996C86.6776 8.38327 87.0245 9.2208 87.642 9.83832C88.2595 10.4558 89.0971 10.8028 89.9704 10.8028C90.0166 10.8028 90.0687 10.7976 90.1149 10.7951L93.9423 42.4341L81.0448 19.4153C81.4842 19.0709 81.8288 18.6205 82.0462 18.1063C82.2637 17.5921 82.3468 17.0311 82.2879 16.4759C82.2289 15.9207 82.0297 15.3897 81.7091 14.9327C81.3885 14.4756 80.9569 14.1076 80.455 13.8632C79.953 13.6188 79.3972 13.5061 78.8397 13.5355C78.2822 13.565 77.7413 13.7357 77.268 14.0317C76.7946 14.3276 76.4042 14.7391 76.1336 15.2274C75.8629 15.7156 75.7208 16.2647 75.7207 16.823C75.7207 17.3149 75.8309 17.8006 76.0432 18.2443C76.2555 18.688 76.5645 19.0785 76.9475 19.3872C77.3306 19.6958 77.7779 19.9147 78.2566 20.0277C78.7353 20.1408 79.2333 20.1452 79.714 20.0405L90.5177 52.4305C92.9835 59.9637 114.896 60.1014 118.184 52.4305L127.94 18.9791C128.075 18.9963 128.178 19.0193 128.318 19.0193C128.751 19.0193 129.179 18.9342 129.578 18.7687C129.978 18.6032 130.341 18.3607 130.647 18.0549C130.952 17.7491 131.195 17.3862 131.36 16.9867C131.526 16.5872 131.611 16.159 131.611 15.7266C131.611 15.2941 131.526 14.866 131.36 14.4665C131.195 14.067 130.952 13.704 130.647 13.3982C130.341 13.0924 129.978 12.8499 129.578 12.6844C129.179 12.5189 128.75 12.4338 128.317 12.4338ZM104.077 55.8944C98.4932 55.8944 93.9671 54.212 93.9671 52.1372C93.9671 50.0606 98.4932 49.0855 104.077 49.0855C109.661 49.0855 113.596 50.0606 113.596 52.1372C113.596 54.212 109.661 55.8944 104.077 55.8944Z" fill="#E8BE38"/>
<path fill-rule="evenodd" clip-rule="evenodd" d="M61.2508 70.5195C49.8714 70.5195 42.7683 79.2895 42.729 87.5446C42.6777 98.2312 49.7722 104.971 60.9035 104.971C72.7268 104.971 79.5861 98.3398 79.5861 87.01C79.5861 78.6138 72.1837 70.5195 61.2508 70.5195ZM0.5 71.4552V75.197H3.73378C5.71288 75.197 6.4065 75.658 6.4065 77.3882V98.6101C6.4065 100.292 5.71288 100.936 3.73378 100.936H0.5V104.436H19.156V100.936H16.5902C14.612 100.936 13.9175 100.292 13.9175 98.6092V89.1482H17.2308C20.793 89.1482 23.3948 91.1624 23.5923 94.9213L23.913 99.2515C24.1115 103.209 26.7773 105.345 31.4771 105.345C36.4736 105.345 37.6504 102.9 37.6504 97.7548V95.0017H34.8708V96.6857C34.8708 98.7135 33.6939 99.7595 32.7069 99.7595C31.1221 99.7595 31.0417 97.8232 30.9425 96.6857V95.3224C30.9425 90.8023 28.8668 89.0216 26.265 87.6515C31.1136 86.514 34.3371 83.6129 34.3371 79.6068C34.3371 74.411 30.7792 71.4552 24.4476 71.4552H0.5ZM119.944 71.4552V75.197H123.205C125.183 75.197 125.878 75.6323 125.878 77.3617V98.6631C125.878 100.346 125.184 100.989 123.205 100.989H119.944V104.436H153.273V90.2977H150.119C150.119 97.2733 147.366 100.936 142.715 100.936H133.361V89.6032H135.205C138.223 89.6032 139.936 90.9263 139.936 93.398V95.3763H143.544V79.6607H139.936V81.3969C139.936 83.8258 138.125 85.2995 135.205 85.2995H133.361V75.197H142.074C148.457 75.197 149.771 78.8738 150.119 84.3647H153.273V71.4552H119.944ZM161.585 71.4817V75.197C166.379 75.3339 167.577 75.8846 169.309 78.1101L177.06 87.518L166.503 98.6101C164.622 100.739 164.455 100.936 161.585 100.936V104.49H178.289V100.936H174.28C173.093 100.936 172.864 100.08 172.864 99.4388C172.864 98.7956 173.693 98.0387 174.04 97.594L179.92 90.9391L185.826 97.9421C186.123 98.3372 186.602 98.7845 186.602 99.278C186.602 99.9212 186.055 100.936 184.918 100.936H181.604V104.49H200.5V100.936C197.515 100.936 197.271 100.788 194.594 97.5145L184.731 85.8879L191.439 78.6181C193.912 75.9958 194.876 75.197 197.052 75.197H200.499V71.4817H183.768V75.197H185.96C186.782 75.3227 187.317 76.1669 186.495 76.9879L181.844 82.306L178.156 77.7893C177.335 76.8306 177.451 75.197 178.957 75.197H180.668V71.4817H161.585ZM84.6108 71.5356V75.1962H87.1766C89.1557 75.1962 89.8493 75.7914 89.8493 77.5225V98.6631C89.8493 100.346 89.1557 100.989 87.1766 100.989H84.6108V104.517H115.828V90.0308H112.274C112.174 95.7184 112.224 100.936 105.297 100.936H97.386V77.5225C97.386 75.7914 98.0813 75.1962 100.059 75.1962H103.026V71.5356H84.6108ZM61.3046 74.7685C67.1427 74.7685 70.5518 79.1432 70.5518 87.6515C70.5518 95.963 67.0692 101.069 60.9839 101.069C55.0475 101.069 51.6563 95.7629 51.6563 87.3042C51.6563 79.0415 55.2194 74.7694 61.3038 74.7694L61.3046 74.7685ZM13.9175 75.1705H19.0491C23.996 75.1705 25.7844 76.7921 25.7844 80.0079C25.7844 83.3221 23.8455 84.8718 19.6906 84.8718H13.9175V75.1705Z" fill="#0A3231"/>
<path fill-rule="evenodd" clip-rule="evenodd" d="M61.2508 70.5195C49.8714 70.5195 42.7683 79.2895 42.729 87.5446C42.6777 98.2312 49.7722 104.971 60.9035 104.971C72.7268 104.971 79.5861 98.3398 79.5861 87.01C79.5861 78.6138 72.1837 70.5195 61.2508 70.5195ZM0.5 71.4552V75.197H3.73378C5.71288 75.197 6.4065 75.658 6.4065 77.3882V98.6101C6.4065 100.292 5.71288 100.936 3.73378 100.936H0.5V104.436H19.156V100.936H16.5902C14.612 100.936 13.9175 100.292 13.9175 98.6092V89.1482H17.2308C20.793 89.1482 23.3948 91.1624 23.5923 94.9213L23.913 99.2515C24.1115 103.209 26.7773 105.345 31.4771 105.345C36.4736 105.345 37.6504 102.9 37.6504 97.7548V95.0017H34.8708V96.6857C34.8708 98.7135 33.6939 99.7595 32.7069 99.7595C31.1221 99.7595 31.0417 97.8232 30.9425 96.6857V95.3224C30.9425 90.8023 28.8668 89.0216 26.265 87.6515C31.1136 86.514 34.3371 83.6129 34.3371 79.6068C34.3371 74.411 30.7792 71.4552 24.4476 71.4552H0.5ZM119.944 71.4552V75.197H123.205C125.183 75.197 125.878 75.6323 125.878 77.3617V98.6631C125.878 100.346 125.184 100.989 123.205 100.989H119.944V104.436H153.273V90.2977H150.119C150.119 97.2733 147.366 100.936 142.715 100.936H133.361V89.6032H135.205C138.223 89.6032 139.936 90.9263 139.936 93.398V95.3763H143.544V79.6607H139.936V81.3969C139.936 83.8258 138.125 85.2995 135.205 85.2995H133.361V75.197H142.074C148.457 75.197 149.771 78.8738 150.119 84.3647H153.273V71.4552H119.944ZM161.585 71.4817V75.197C166.379 75.3339 167.577 75.8846 169.309 78.1101L177.06 87.518L166.503 98.6101C164.622 100.739 164.455 100.936 161.585 100.936V104.49H178.289V100.936H174.28C173.093 100.936 172.864 100.08 172.864 99.4388C172.864 98.7956 173.693 98.0387 174.04 97.594L179.92 90.9391L185.826 97.9421C186.123 98.3372 186.602 98.7845 186.602 99.278C186.602 99.9212 186.055 100.936 184.918 100.936H181.604V104.49H200.5V100.936C197.515 100.936 197.271 100.788 194.594 97.5145L184.731 85.8879L191.439 78.6181C193.912 75.9958 194.876 75.197 197.052 75.197H200.499V71.4817H183.768V75.197H185.96C186.782 75.3227 187.317 76.1669 186.495 76.9879L181.844 82.306L178.156 77.7893C177.335 76.8306 177.451 75.197 178.957 75.197H180.668V71.4817H161.585ZM84.6108 71.5356V75.1962H87.1766C89.1557 75.1962 89.8493 75.7914 89.8493 77.5225V98.6631C89.8493 100.346 89.1557 100.989 87.1766 100.989H84.6108V104.517H115.828V90.0308H112.274C112.174 95.7184 112.224 100.936 105.297 100.936H97.386V77.5225C97.386 75.7914 98.0813 75.1962 100.059 75.1962H103.026V71.5356H84.6108ZM61.3046 74.7685C67.1427 74.7685 70.5518 79.1432 70.5518 87.6515C70.5518 95.963 67.0692 101.069 60.9839 101.069C55.0475 101.069 51.6563 95.7629 51.6563 87.3042C51.6563 79.0415 55.2194 74.7694 61.3038 74.7694L61.3046 74.7685ZM13.9175 75.1705H19.0491C23.996 75.1705 25.7844 76.7921 25.7844 80.0079C25.7844 83.3221 23.8455 84.8718 19.6906 84.8718H13.9175V75.1705Z" fill="black" fill-opacity="0.2"/>
<path fill-rule="evenodd" clip-rule="evenodd" d="M61.2508 70.5195C49.8714 70.5195 42.7683 79.2895 42.729 87.5446C42.6777 98.2312 49.7722 104.971 60.9035 104.971C72.7268 104.971 79.5861 98.3398 79.5861 87.01C79.5861 78.6138 72.1837 70.5195 61.2508 70.5195ZM0.5 71.4552V75.197H3.73378C5.71288 75.197 6.4065 75.658 6.4065 77.3882V98.6101C6.4065 100.292 5.71288 100.936 3.73378 100.936H0.5V104.436H19.156V100.936H16.5902C14.612 100.936 13.9175 100.292 13.9175 98.6092V89.1482H17.2308C20.793 89.1482 23.3948 91.1624 23.5923 94.9213L23.913 99.2515C24.1115 103.209 26.7773 105.345 31.4771 105.345C36.4736 105.345 37.6504 102.9 37.6504 97.7548V95.0017H34.8708V96.6857C34.8708 98.7135 33.6939 99.7595 32.7069 99.7595C31.1221 99.7595 31.0417 97.8232 30.9425 96.6857V95.3224C30.9425 90.8023 28.8668 89.0216 26.265 87.6515C31.1136 86.514 34.3371 83.6129 34.3371 79.6068C34.3371 74.411 30.7792 71.4552 24.4476 71.4552H0.5ZM119.944 71.4552V75.197H123.205C125.183 75.197 125.878 75.6323 125.878 77.3617V98.6631C125.878 100.346 125.184 100.989 123.205 100.989H119.944V104.436H153.273V90.2977H150.119C150.119 97.2733 147.366 100.936 142.715 100.936H133.361V89.6032H135.205C138.223 89.6032 139.936 90.9263 139.936 93.398V95.3763H143.544V79.6607H139.936V81.3969C139.936 83.8258 138.125 85.2995 135.205 85.2995H133.361V75.197H142.074C148.457 75.197 149.771 78.8738 150.119 84.3647H153.273V71.4552H119.944ZM161.585 71.4817V75.197C166.379 75.3339 167.577 75.8846 169.309 78.1101L177.06 87.518L166.503 98.6101C164.622 100.739 164.455 100.936 161.585 100.936V104.49H178.289V100.936H174.28C173.093 100.936 172.864 100.08 172.864 99.4388C172.864 98.7956 173.693 98.0387 174.04 97.594L179.92 90.9391L185.826 97.9421C186.123 98.3372 186.602 98.7845 186.602 99.278C186.602 99.9212 186.055 100.936 184.918 100.936H181.604V104.49H200.5V100.936C197.515 100.936 197.271 100.788 194.594 97.5145L184.731 85.8879L191.439 78.6181C193.912 75.9958 194.876 75.197 197.052 75.197H200.499V71.4817H183.768V75.197H185.96C186.782 75.3227 187.317 76.1669 186.495 76.9879L181.844 82.306L178.156 77.7893C177.335 76.8306 177.451 75.197 178.957 75.197H180.668V71.4817H161.585ZM84.6108 71.5356V75.1962H87.1766C89.1557 75.1962 89.8493 75.7914 89.8493 77.5225V98.6631C89.8493 100.346 89.1557 100.989 87.1766 100.989H84.6108V104.517H115.828V90.0308H112.274C112.174 95.7184 112.224 100.936 105.297 100.936H97.386V77.5225C97.386 75.7914 98.0813 75.1962 100.059 75.1962H103.026V71.5356H84.6108ZM61.3046 74.7685C67.1427 74.7685 70.5518 79.1432 70.5518 87.6515C70.5518 95.963 67.0692 101.069 60.9839 101.069C55.0475 101.069 51.6563 95.7629 51.6563 87.3042C51.6563 79.0415 55.2194 74.7694 61.3038 74.7694L61.3046 74.7685ZM13.9175 75.1705H19.0491C23.996 75.1705 25.7844 76.7921 25.7844 80.0079C25.7844 83.3221 23.8455 84.8718 19.6906 84.8718H13.9175V75.1705Z" fill="black" fill-opacity="0.2"/>
<path fill-rule="evenodd" clip-rule="evenodd" d="M61.2508 70.5195C49.8714 70.5195 42.7683 79.2895 42.729 87.5446C42.6777 98.2312 49.7722 104.971 60.9035 104.971C72.7268 104.971 79.5861 98.3398 79.5861 87.01C79.5861 78.6138 72.1837 70.5195 61.2508 70.5195ZM0.5 71.4552V75.197H3.73378C5.71288 75.197 6.4065 75.658 6.4065 77.3882V98.6101C6.4065 100.292 5.71288 100.936 3.73378 100.936H0.5V104.436H19.156V100.936H16.5902C14.612 100.936 13.9175 100.292 13.9175 98.6092V89.1482H17.2308C20.793 89.1482 23.3948 91.1624 23.5923 94.9213L23.913 99.2515C24.1115 103.209 26.7773 105.345 31.4771 105.345C36.4736 105.345 37.6504 102.9 37.6504 97.7548V95.0017H34.8708V96.6857C34.8708 98.7135 33.6939 99.7595 32.7069 99.7595C31.1221 99.7595 31.0417 97.8232 30.9425 96.6857V95.3224C30.9425 90.8023 28.8668 89.0216 26.265 87.6515C31.1136 86.514 34.3371 83.6129 34.3371 79.6068C34.3371 74.411 30.7792 71.4552 24.4476 71.4552H0.5ZM119.944 71.4552V75.197H123.205C125.183 75.197 125.878 75.6323 125.878 77.3617V98.6631C125.878 100.346 125.184 100.989 123.205 100.989H119.944V104.436H153.273V90.2977H150.119C150.119 97.2733 147.366 100.936 142.715 100.936H133.361V89.6032H135.205C138.223 89.6032 139.936 90.9263 139.936 93.398V95.3763H143.544V79.6607H139.936V81.3969C139.936 83.8258 138.125 85.2995 135.205 85.2995H133.361V75.197H142.074C148.457 75.197 149.771 78.8738 150.119 84.3647H153.273V71.4552H119.944ZM161.585 71.4817V75.197C166.379 75.3339 167.577 75.8846 169.309 78.1101L177.06 87.518L166.503 98.6101C164.622 100.739 164.455 100.936 161.585 100.936V104.49H178.289V100.936H174.28C173.093 100.936 172.864 100.08 172.864 99.4388C172.864 98.7956 173.693 98.0387 174.04 97.594L179.92 90.9391L185.826 97.9421C186.123 98.3372 186.602 98.7845 186.602 99.278C186.602 99.9212 186.055 100.936 184.918 100.936H181.604V104.49H200.5V100.936C197.515 100.936 197.271 100.788 194.594 97.5145L184.731 85.8879L191.439 78.6181C193.912 75.9958 194.876 75.197 197.052 75.197H200.499V71.4817H183.768V75.197H185.96C186.782 75.3227 187.317 76.1669 186.495 76.9879L181.844 82.306L178.156 77.7893C177.335 76.8306 177.451 75.197 178.957 75.197H180.668V71.4817H161.585ZM84.6108 71.5356V75.1962H87.1766C89.1557 75.1962 89.8493 75.7914 89.8493 77.5225V98.6631C89.8493 100.346 89.1557 100.989 87.1766 100.989H84.6108V104.517H115.828V90.0308H112.274C112.174 95.7184 112.224 100.936 105.297 100.936H97.386V77.5225C97.386 75.7914 98.0813 75.1962 100.059 75.1962H103.026V71.5356H84.6108ZM61.3046 74.7685C67.1427 74.7685 70.5518 79.1432 70.5518 87.6515C70.5518 95.963 67.0692 101.069 60.9839 101.069C55.0475 101.069 51.6563 95.7629 51.6563 87.3042C51.6563 79.0415 55.2194 74.7694 61.3038 74.7694L61.3046 74.7685ZM13.9175 75.1705H19.0491C23.996 75.1705 25.7844 76.7921 25.7844 80.0079C25.7844 83.3221 23.8455 84.8718 19.6906 84.8718H13.9175V75.1705Z" fill="black" fill-opacity="0.2"/>
</g>
<defs>
<clipPath id="clip0_385_22594">
<rect width="200" height="104.72" fill="white" transform="translate(0.5 0.640625)"/>
</clipPath>
</defs>
</svg>
