<svg width="30" height="30" viewBox="0 0 30 30" fill="none" xmlns="http://www.w3.org/2000/svg">
<path d="M15.0029 28.0049C15.2791 28.0049 15.5029 27.781 15.5029 27.5049C15.5029 27.2287 15.2791 27.0049 15.0029 27.0049C14.7268 27.0049 14.5029 27.2287 14.5029 27.5049C14.5029 27.781 14.7268 28.0049 15.0029 28.0049Z" fill="#E8BE38"/>
<path d="M20.317 21.6922C22.5992 20.5021 24.4163 18.5809 25.4773 16.2359C26.5384 13.891 26.7821 11.2578 26.1695 8.75796C25.5569 6.25807 24.1234 4.03596 22.0983 2.44726C20.0733 0.858562 17.5739 -0.00488281 15 -0.00488281C12.4261 -0.00488281 9.9267 0.858562 7.90167 2.44726C5.87664 4.03596 4.4431 6.25807 3.83049 8.75796C3.21788 11.2578 3.4616 13.891 4.52266 16.2359C5.58372 18.5809 7.40077 20.5021 9.683 21.6922C3.256 22.1762 0 23.5407 0 25.7542C0 29.2667 8.157 30.0042 15 30.0042C21.843 30.0042 30 29.2667 30 25.7542C30 23.5407 26.744 22.1762 20.317 21.6922ZM4.5 11.5042C4.49964 9.61846 5.00711 7.76747 5.96909 6.14561C6.93108 4.52375 8.31208 3.19088 9.96703 2.28701C11.622 1.38314 13.4898 0.941621 15.3743 1.00884C17.2588 1.07606 19.0904 1.64953 20.6768 2.66902C22.2631 3.68851 23.5456 5.11639 24.3896 6.80266C25.2336 8.48894 25.6079 10.3714 25.4732 12.2523C25.3385 14.1331 24.6997 15.943 23.624 17.4918C22.5484 19.0406 21.0754 20.2711 19.36 21.0542C19.3056 21.0783 19.2561 21.1122 19.214 21.1542L15.329 25.0542C15.2427 25.1312 15.1323 25.1757 15.0167 25.18C14.9012 25.1843 14.7877 25.1481 14.696 25.0777L13.296 23.6777L13.293 23.6747L10.7845 21.1612C10.7424 21.1192 10.6929 21.0853 10.6385 21.0612C8.80895 20.2214 7.25839 18.8749 6.17047 17.1811C5.08255 15.4873 4.50284 13.5172 4.5 11.5042ZM15 29.0042C6.3645 29.0042 1 27.7592 1 25.7542C1 24.1162 4.5835 22.9777 10.834 22.6207L11.805 23.5937C8.6645 23.7702 4.5 24.2817 4.5 25.7542C4.5 27.4172 9.809 27.8542 12.974 27.9687H12.992C13.1246 27.971 13.2527 27.9205 13.3481 27.8284C13.4435 27.7363 13.4984 27.61 13.5007 27.4774C13.5031 27.3448 13.4526 27.2167 13.3605 27.1213C13.2684 27.0259 13.1421 26.971 13.0095 26.9687C8.2225 26.7982 6 26.1112 5.5535 25.7542C5.9935 25.4042 8.1485 24.7362 12.7595 24.5497L14.0125 25.8042C14.2833 26.0407 14.6309 26.1708 14.9905 26.1702C15.3671 26.169 15.7303 26.0305 16.012 25.7807L17.241 24.5487C21.85 24.7362 24.0065 25.4042 24.4465 25.7542C23.9965 26.1112 21.778 26.7982 16.9915 26.9697C16.8589 26.972 16.7326 27.0269 16.6405 27.1223C16.5484 27.2177 16.4979 27.3458 16.5002 27.4784C16.5026 27.611 16.5575 27.7373 16.6529 27.8294C16.7483 27.9215 16.8764 27.972 17.009 27.9697H17.027C20.1915 27.8542 25.5 27.4172 25.5 25.7542C25.5 24.2822 21.336 23.7702 18.1955 23.5937L19.1665 22.6207C25.4165 22.9777 29 24.1162 29 25.7542C29 27.7592 23.6355 29.0042 15 29.0042Z" fill="#E8BE38"/>
<path d="M24.5029 11.5039C24.5029 9.62499 23.9458 7.78826 22.9019 6.22599C21.858 4.66373 20.3743 3.44609 18.6384 2.72705C16.9025 2.00802 14.9924 1.81989 13.1496 2.18645C11.3068 2.55301 9.61402 3.4578 8.28542 4.7864C6.95682 6.115 6.05203 7.80773 5.68547 9.65055C5.31891 11.4934 5.50705 13.4035 6.22608 15.1394C6.94511 16.8753 8.16275 18.359 9.72502 19.4029C11.2873 20.4467 13.124 21.0039 15.0029 21.0039C17.5216 21.0011 19.9364 19.9993 21.7174 18.2184C23.4984 16.4374 24.5002 14.0226 24.5029 11.5039ZM6.50293 11.5039C6.50293 9.82277 7.00145 8.17938 7.93544 6.78156C8.86943 5.38375 10.197 4.29428 11.7501 3.65093C13.3033 3.00759 15.0124 2.83926 16.6612 3.16724C18.31 3.49521 19.8246 4.30476 21.0133 5.4935C22.2021 6.68225 23.0116 8.1968 23.3396 9.84564C23.6676 11.4945 23.4993 13.2035 22.8559 14.7567C22.2126 16.3099 21.1231 17.6374 19.7253 18.5714C18.3275 19.5054 16.6841 20.0039 15.0029 20.0039C12.7494 20.0014 10.5888 19.1051 8.9953 17.5115C7.40179 15.918 6.50545 13.7575 6.50293 11.5039Z" fill="#E8BE38"/>
<path d="M19.9971 9.25488C19.9959 8.19438 19.5741 7.17766 18.8242 6.42777C18.0743 5.67788 17.0576 5.25607 15.9971 5.25488H12.4971C12.0992 5.25488 11.7177 5.41292 11.4364 5.69422C11.1551 5.97553 10.9971 6.35706 10.9971 6.75488V16.2549C10.9971 16.6527 11.1551 17.0342 11.4364 17.3155C11.7177 17.5968 12.0992 17.7549 12.4971 17.7549C12.8949 17.7549 13.2764 17.5968 13.5577 17.3155C13.839 17.0342 13.9971 16.6527 13.9971 16.2549V13.2549H15.9971C17.0576 13.2537 18.0743 12.8319 18.8242 12.082C19.5741 11.3321 19.9959 10.3154 19.9971 9.25488ZM13.4971 12.2549C13.3645 12.2549 13.2373 12.3076 13.1435 12.4013C13.0497 12.4951 12.9971 12.6223 12.9971 12.7549V16.2549C12.9971 16.3875 12.9444 16.5147 12.8506 16.6084C12.7569 16.7022 12.6297 16.7549 12.4971 16.7549C12.3645 16.7549 12.2373 16.7022 12.1435 16.6084C12.0497 16.5147 11.9971 16.3875 11.9971 16.2549V6.75488C11.9971 6.62227 12.0497 6.4951 12.1435 6.40133C12.2373 6.30756 12.3645 6.25488 12.4971 6.25488H15.9971C16.7927 6.25488 17.5558 6.57095 18.1184 7.13356C18.681 7.69617 18.9971 8.45923 18.9971 9.25488C18.9971 10.0505 18.681 10.8136 18.1184 11.3762C17.5558 11.9388 16.7927 12.2549 15.9971 12.2549H13.4971Z" fill="#E8BE38"/>
<path d="M18.0029 9.25488C18.0029 8.72445 17.7922 8.21574 17.4171 7.84067C17.0421 7.4656 16.5334 7.25488 16.0029 7.25488H13.5029C13.3703 7.25488 13.2431 7.30756 13.1494 7.40133C13.0556 7.4951 13.0029 7.62227 13.0029 7.75488V10.7549C13.0029 10.8875 13.0556 11.0147 13.1494 11.1084C13.2431 11.2022 13.3703 11.2549 13.5029 11.2549H16.0029C16.5334 11.2549 17.0421 11.0442 17.4171 10.6691C17.7922 10.294 18.0029 9.78532 18.0029 9.25488ZM14.0029 8.25488H16.0029C16.2681 8.25488 16.5225 8.36024 16.71 8.54778C16.8976 8.73531 17.0029 8.98967 17.0029 9.25488C17.0029 9.5201 16.8976 9.77445 16.71 9.96199C16.5225 10.1495 16.2681 10.2549 16.0029 10.2549H14.0029V8.25488Z" fill="#E8BE38"/>
</svg>
