<svg width="73" height="74" viewBox="0 0 73 74" fill="none" xmlns="http://www.w3.org/2000/svg">
<g filter="url(#filter0_dd_385_21002)">
<circle cx="35" cy="35.4375" r="30" fill="white"/>
<circle cx="35" cy="35.4375" r="24.5" stroke="#E8BE38"/>
<path d="M38.5257 37.3931L39.9352 40.1037C40.0281 40.2896 40.0126 40.5219 39.8732 40.6923C39.7338 40.8627 39.517 40.9246 39.3156 40.8472L24.5857 35.9372C24.3689 35.8752 24.2295 35.6739 24.214 35.4415C24.214 35.2247 24.3534 35.0233 24.5702 34.9304L39.1298 29.8501C39.3156 29.7881 39.5325 29.8191 39.6874 29.974L39.7184 30.005C39.8578 30.1753 39.8887 30.3922 39.7958 30.578L38.2934 33.5984H43.064C43.3428 33.5984 43.5906 33.8462 43.5906 34.125L43.5751 36.8665C43.5751 37.1453 43.3273 37.3931 43.0485 37.3931L38.5257 37.3931ZM42.5373 34.6826L37.426 34.6826C37.2711 34.6826 37.1472 34.6206 37.0543 34.5277C37.0233 34.4967 36.9923 34.4657 36.9768 34.4193C36.8839 34.2644 36.8684 34.063 36.9613 33.9081L38.2779 31.2905L26.3979 35.4261L38.4173 39.4532L37.2246 37.1143C37.1472 36.944 37.1472 36.7581 37.2401 36.6032C37.3331 36.4483 37.5034 36.3399 37.6893 36.3399L42.5528 36.3399L42.5373 34.6826Z" fill="#0A3231"/>
<path d="M38.5257 37.3931L39.9352 40.1037C40.0281 40.2896 40.0126 40.5219 39.8732 40.6923C39.7338 40.8627 39.517 40.9246 39.3156 40.8472L24.5857 35.9372C24.3689 35.8752 24.2295 35.6739 24.214 35.4415C24.214 35.2247 24.3534 35.0233 24.5702 34.9304L39.1298 29.8501C39.3156 29.7881 39.5325 29.8191 39.6874 29.974L39.7184 30.005C39.8578 30.1753 39.8887 30.3922 39.7958 30.578L38.2934 33.5984H43.064C43.3428 33.5984 43.5906 33.8462 43.5906 34.125L43.5751 36.8665C43.5751 37.1453 43.3273 37.3931 43.0485 37.3931L38.5257 37.3931ZM42.5373 34.6826L37.426 34.6826C37.2711 34.6826 37.1472 34.6206 37.0543 34.5277C37.0233 34.4967 36.9923 34.4657 36.9768 34.4193C36.8839 34.2644 36.8684 34.063 36.9613 33.9081L38.2779 31.2905L26.3979 35.4261L38.4173 39.4532L37.2246 37.1143C37.1472 36.944 37.1472 36.7581 37.2401 36.6032C37.3331 36.4483 37.5034 36.3399 37.6893 36.3399L42.5528 36.3399L42.5373 34.6826Z" fill="black" fill-opacity="0.2"/>
<path d="M38.5257 37.3931L39.9352 40.1037C40.0281 40.2896 40.0126 40.5219 39.8732 40.6923C39.7338 40.8627 39.517 40.9246 39.3156 40.8472L24.5857 35.9372C24.3689 35.8752 24.2295 35.6739 24.214 35.4415C24.214 35.2247 24.3534 35.0233 24.5702 34.9304L39.1298 29.8501C39.3156 29.7881 39.5325 29.8191 39.6874 29.974L39.7184 30.005C39.8578 30.1753 39.8887 30.3922 39.7958 30.578L38.2934 33.5984H43.064C43.3428 33.5984 43.5906 33.8462 43.5906 34.125L43.5751 36.8665C43.5751 37.1453 43.3273 37.3931 43.0485 37.3931L38.5257 37.3931ZM42.5373 34.6826L37.426 34.6826C37.2711 34.6826 37.1472 34.6206 37.0543 34.5277C37.0233 34.4967 36.9923 34.4657 36.9768 34.4193C36.8839 34.2644 36.8684 34.063 36.9613 33.9081L38.2779 31.2905L26.3979 35.4261L38.4173 39.4532L37.2246 37.1143C37.1472 36.944 37.1472 36.7581 37.2401 36.6032C37.3331 36.4483 37.5034 36.3399 37.6893 36.3399L42.5528 36.3399L42.5373 34.6826Z" fill="black" fill-opacity="0.2"/>
<path d="M38.5257 37.3931L39.9352 40.1037C40.0281 40.2896 40.0126 40.5219 39.8732 40.6923C39.7338 40.8627 39.517 40.9246 39.3156 40.8472L24.5857 35.9372C24.3689 35.8752 24.2295 35.6739 24.214 35.4415C24.214 35.2247 24.3534 35.0233 24.5702 34.9304L39.1298 29.8501C39.3156 29.7881 39.5325 29.8191 39.6874 29.974L39.7184 30.005C39.8578 30.1753 39.8887 30.3922 39.7958 30.578L38.2934 33.5984H43.064C43.3428 33.5984 43.5906 33.8462 43.5906 34.125L43.5751 36.8665C43.5751 37.1453 43.3273 37.3931 43.0485 37.3931L38.5257 37.3931ZM42.5373 34.6826L37.426 34.6826C37.2711 34.6826 37.1472 34.6206 37.0543 34.5277C37.0233 34.4967 36.9923 34.4657 36.9768 34.4193C36.8839 34.2644 36.8684 34.063 36.9613 33.9081L38.2779 31.2905L26.3979 35.4261L38.4173 39.4532L37.2246 37.1143C37.1472 36.944 37.1472 36.7581 37.2401 36.6032C37.3331 36.4483 37.5034 36.3399 37.6893 36.3399L42.5528 36.3399L42.5373 34.6826Z" fill="black" fill-opacity="0.2"/>
</g>
<defs>
<filter id="filter0_dd_385_21002" x="0" y="0.4375" width="73" height="73" filterUnits="userSpaceOnUse" color-interpolation-filters="sRGB">
<feFlood flood-opacity="0" result="BackgroundImageFix"/>
<feColorMatrix in="SourceAlpha" type="matrix" values="0 0 0 0 0 0 0 0 0 0 0 0 0 0 0 0 0 0 127 0" result="hardAlpha"/>
<feOffset dx="4" dy="4"/>
<feGaussianBlur stdDeviation="2"/>
<feComposite in2="hardAlpha" operator="out"/>
<feColorMatrix type="matrix" values="0 0 0 0 0.0392157 0 0 0 0 0.196078 0 0 0 0 0.192157 0 0 0 0.25 0"/>
<feBlend mode="normal" in2="BackgroundImageFix" result="effect1_dropShadow_385_21002"/>
<feColorMatrix in="SourceAlpha" type="matrix" values="0 0 0 0 0 0 0 0 0 0 0 0 0 0 0 0 0 0 127 0" result="hardAlpha"/>
<feOffset dx="-1" dy="-1"/>
<feGaussianBlur stdDeviation="2"/>
<feComposite in2="hardAlpha" operator="out"/>
<feColorMatrix type="matrix" values="0 0 0 0 0.0392157 0 0 0 0 0.196078 0 0 0 0 0.192157 0 0 0 0.25 0"/>
<feBlend mode="normal" in2="effect1_dropShadow_385_21002" result="effect2_dropShadow_385_21002"/>
<feBlend mode="normal" in="SourceGraphic" in2="effect2_dropShadow_385_21002" result="shape"/>
</filter>
</defs>
</svg>
