<svg width="15" height="16" viewBox="0 0 15 16" fill="none" xmlns="http://www.w3.org/2000/svg">
<g id="Walking">
<g id="Vector">
<path fill-rule="evenodd" clip-rule="evenodd" d="M5.80459 10.7665C5.90996 10.7386 6.02228 10.7676 6.10097 10.843L7.11615 11.8167C7.20053 11.8977 7.23265 12.019 7.19943 12.1311L6.97778 12.879C6.92246 13.0657 6.81037 13.2306 6.65706 13.3507L5.20609 14.4873C4.7985 14.8066 4.20925 14.735 3.88996 14.3274C3.57065 13.9198 3.64225 13.3306 4.04984 13.0113L5.26512 12.0592L5.58503 10.9798C5.616 10.8752 5.69921 10.7944 5.80459 10.7665ZM6.03853 11.6492L5.83603 12.3325C5.81756 12.3948 5.78021 12.4497 5.72909 12.4897L4.43525 13.5033C4.2994 13.6097 4.27553 13.8061 4.38196 13.942C4.4884 14.0779 4.68481 14.1017 4.82068 13.9953L6.27165 12.8587C6.32275 12.8186 6.36012 12.7637 6.37856 12.7014L6.54612 12.136L6.03853 11.6492ZM8.75025 4.6875C9.26803 4.6875 9.68775 4.26778 9.68775 3.75C9.68775 3.23223 9.26803 2.8125 8.75025 2.8125C8.2325 2.8125 7.81275 3.23223 7.81275 3.75C7.81275 4.26778 8.2325 4.6875 8.75025 4.6875ZM8.75025 5.3125C9.61318 5.3125 10.3127 4.61294 10.3127 3.75C10.3127 2.88706 9.61318 2.1875 8.75025 2.1875C7.88731 2.1875 7.18775 2.88706 7.18775 3.75C7.18775 4.61294 7.88731 5.3125 8.75025 5.3125Z" fill="#0A3231"/>
<path fill-rule="evenodd" clip-rule="evenodd" d="M5.80459 10.7665C5.90996 10.7386 6.02228 10.7676 6.10097 10.843L7.11615 11.8167C7.20053 11.8977 7.23265 12.019 7.19943 12.1311L6.97778 12.879C6.92246 13.0657 6.81037 13.2306 6.65706 13.3507L5.20609 14.4873C4.7985 14.8066 4.20925 14.735 3.88996 14.3274C3.57065 13.9198 3.64225 13.3306 4.04984 13.0113L5.26512 12.0592L5.58503 10.9798C5.616 10.8752 5.69921 10.7944 5.80459 10.7665ZM6.03853 11.6492L5.83603 12.3325C5.81756 12.3948 5.78021 12.4497 5.72909 12.4897L4.43525 13.5033C4.2994 13.6097 4.27553 13.8061 4.38196 13.942C4.4884 14.0779 4.68481 14.1017 4.82068 13.9953L6.27165 12.8587C6.32275 12.8186 6.36012 12.7637 6.37856 12.7014L6.54612 12.136L6.03853 11.6492ZM8.75025 4.6875C9.26803 4.6875 9.68775 4.26778 9.68775 3.75C9.68775 3.23223 9.26803 2.8125 8.75025 2.8125C8.2325 2.8125 7.81275 3.23223 7.81275 3.75C7.81275 4.26778 8.2325 4.6875 8.75025 4.6875ZM8.75025 5.3125C9.61318 5.3125 10.3127 4.61294 10.3127 3.75C10.3127 2.88706 9.61318 2.1875 8.75025 2.1875C7.88731 2.1875 7.18775 2.88706 7.18775 3.75C7.18775 4.61294 7.88731 5.3125 8.75025 5.3125Z" fill="black" fill-opacity="0.2"/>
<path fill-rule="evenodd" clip-rule="evenodd" d="M5.80459 10.7665C5.90996 10.7386 6.02228 10.7676 6.10097 10.843L7.11615 11.8167C7.20053 11.8977 7.23265 12.019 7.19943 12.1311L6.97778 12.879C6.92246 13.0657 6.81037 13.2306 6.65706 13.3507L5.20609 14.4873C4.7985 14.8066 4.20925 14.735 3.88996 14.3274C3.57065 13.9198 3.64225 13.3306 4.04984 13.0113L5.26512 12.0592L5.58503 10.9798C5.616 10.8752 5.69921 10.7944 5.80459 10.7665ZM6.03853 11.6492L5.83603 12.3325C5.81756 12.3948 5.78021 12.4497 5.72909 12.4897L4.43525 13.5033C4.2994 13.6097 4.27553 13.8061 4.38196 13.942C4.4884 14.0779 4.68481 14.1017 4.82068 13.9953L6.27165 12.8587C6.32275 12.8186 6.36012 12.7637 6.37856 12.7014L6.54612 12.136L6.03853 11.6492ZM8.75025 4.6875C9.26803 4.6875 9.68775 4.26778 9.68775 3.75C9.68775 3.23223 9.26803 2.8125 8.75025 2.8125C8.2325 2.8125 7.81275 3.23223 7.81275 3.75C7.81275 4.26778 8.2325 4.6875 8.75025 4.6875ZM8.75025 5.3125C9.61318 5.3125 10.3127 4.61294 10.3127 3.75C10.3127 2.88706 9.61318 2.1875 8.75025 2.1875C7.88731 2.1875 7.18775 2.88706 7.18775 3.75C7.18775 4.61294 7.88731 5.3125 8.75025 5.3125Z" fill="black" fill-opacity="0.2"/>
<path fill-rule="evenodd" clip-rule="evenodd" d="M5.80459 10.7665C5.90996 10.7386 6.02228 10.7676 6.10097 10.843L7.11615 11.8167C7.20053 11.8977 7.23265 12.019 7.19943 12.1311L6.97778 12.879C6.92246 13.0657 6.81037 13.2306 6.65706 13.3507L5.20609 14.4873C4.7985 14.8066 4.20925 14.735 3.88996 14.3274C3.57065 13.9198 3.64225 13.3306 4.04984 13.0113L5.26512 12.0592L5.58503 10.9798C5.616 10.8752 5.69921 10.7944 5.80459 10.7665ZM6.03853 11.6492L5.83603 12.3325C5.81756 12.3948 5.78021 12.4497 5.72909 12.4897L4.43525 13.5033C4.2994 13.6097 4.27553 13.8061 4.38196 13.942C4.4884 14.0779 4.68481 14.1017 4.82068 13.9953L6.27165 12.8587C6.32275 12.8186 6.36012 12.7637 6.37856 12.7014L6.54612 12.136L6.03853 11.6492ZM8.75025 4.6875C9.26803 4.6875 9.68775 4.26778 9.68775 3.75C9.68775 3.23223 9.26803 2.8125 8.75025 2.8125C8.2325 2.8125 7.81275 3.23223 7.81275 3.75C7.81275 4.26778 8.2325 4.6875 8.75025 4.6875ZM8.75025 5.3125C9.61318 5.3125 10.3127 4.61294 10.3127 3.75C10.3127 2.88706 9.61318 2.1875 8.75025 2.1875C7.88731 2.1875 7.18775 2.88706 7.18775 3.75C7.18775 4.61294 7.88731 5.3125 8.75025 5.3125Z" fill="black" fill-opacity="0.2"/>
</g>
<g id="Vector_2">
<path fill-rule="evenodd" clip-rule="evenodd" d="M6.79255 5.42633C7.23877 5.26048 7.71814 5.27023 8.14852 5.49276C8.55795 5.70445 8.83524 6.06236 9.00964 6.43692C9.07492 6.57705 9.13524 6.70792 9.19164 6.83026C9.32905 7.12833 9.44189 7.37298 9.54952 7.58683C9.70152 7.88889 9.81267 8.06583 9.9108 8.18017C9.99492 8.27817 10.0674 8.32789 10.1603 8.36417C10.27 8.40705 10.449 8.44626 10.7674 8.4558C11.2494 8.47026 11.6284 8.87273 11.614 9.35477C11.5995 9.8368 11.197 10.2159 10.715 10.2014C10.291 10.1887 9.89186 10.1342 9.52495 9.99089C9.14105 9.84092 8.83824 9.61189 8.58564 9.31761C8.55567 9.2827 8.52655 9.24702 8.49817 9.21064L8.37239 9.86805L9.73711 11.2146C9.82402 11.3004 9.89202 11.4035 9.93661 11.5172L10.713 13.4952C10.8891 13.9441 10.6681 14.4508 10.2192 14.627C9.77024 14.8032 9.26352 14.5821 9.08733 14.1332L8.37864 12.3276L5.92273 9.90433C5.73202 9.71614 5.63824 9.4508 5.66836 9.18458L5.76989 8.28755C5.49111 8.64814 5.25658 9.08145 5.09299 9.59408C4.94636 10.0535 4.45505 10.3071 3.99564 10.1605C3.53624 10.0138 3.28264 9.52252 3.42927 9.06311C3.98164 7.33245 5.2312 6.02911 6.7822 5.43023L6.78405 5.42952L6.79255 5.42633ZM7.01114 6.01183L7.00642 6.01364C5.63683 6.54277 4.52086 7.69855 4.0247 9.25314C3.98302 9.38373 4.05508 9.52336 4.18567 9.56505C4.31624 9.6067 4.45589 9.53464 4.49758 9.40405C4.80811 8.43108 5.34914 7.69517 5.98514 7.1757C6.08358 7.09533 6.22089 7.08255 6.33245 7.14339C6.44402 7.20423 6.50764 7.32661 6.49333 7.45289L6.28942 9.25486C6.28083 9.33052 6.30749 9.40595 6.3617 9.45942L8.86483 11.9293C8.89592 11.96 8.92027 11.9969 8.93623 12.0376L9.66911 13.9049C9.71917 14.0325 9.86324 14.0953 9.9908 14.0452C10.1184 13.9951 10.1812 13.8511 10.1312 13.7235L9.35483 11.7455C9.34214 11.7132 9.32283 11.6839 9.29811 11.6595L7.81461 10.1957C7.74036 10.1225 7.70758 10.017 7.72717 9.91455L8.03364 8.3127C8.05861 8.1822 8.16333 8.0818 8.29473 8.0623C8.42614 8.0428 8.55548 8.10852 8.61727 8.22614C8.75789 8.49395 8.89883 8.72289 9.05989 8.91055C9.25224 9.13464 9.47264 9.29948 9.75233 9.4087C10.0273 9.51611 10.3476 9.56511 10.7337 9.57667C10.8707 9.5808 10.9851 9.47305 10.9893 9.33605C10.9934 9.19905 10.8856 9.08464 10.7486 9.08051C10.3925 9.06986 10.1348 9.0252 9.93292 8.94636C9.73598 8.86942 9.58105 8.75558 9.43655 8.58727C9.28805 8.41426 9.14973 8.18277 8.9912 7.86777C8.87827 7.64336 8.76124 7.38951 8.62589 7.09589L8.62414 7.09211C8.56767 6.96961 8.5078 6.8397 8.44308 6.70076C8.30877 6.41236 8.11452 6.17876 7.86145 6.04792C7.6028 5.9142 7.30855 5.90155 7.01114 6.01183Z" fill="#0A3231"/>
<path fill-rule="evenodd" clip-rule="evenodd" d="M6.79255 5.42633C7.23877 5.26048 7.71814 5.27023 8.14852 5.49276C8.55795 5.70445 8.83524 6.06236 9.00964 6.43692C9.07492 6.57705 9.13524 6.70792 9.19164 6.83026C9.32905 7.12833 9.44189 7.37298 9.54952 7.58683C9.70152 7.88889 9.81267 8.06583 9.9108 8.18017C9.99492 8.27817 10.0674 8.32789 10.1603 8.36417C10.27 8.40705 10.449 8.44626 10.7674 8.4558C11.2494 8.47026 11.6284 8.87273 11.614 9.35477C11.5995 9.8368 11.197 10.2159 10.715 10.2014C10.291 10.1887 9.89186 10.1342 9.52495 9.99089C9.14105 9.84092 8.83824 9.61189 8.58564 9.31761C8.55567 9.2827 8.52655 9.24702 8.49817 9.21064L8.37239 9.86805L9.73711 11.2146C9.82402 11.3004 9.89202 11.4035 9.93661 11.5172L10.713 13.4952C10.8891 13.9441 10.6681 14.4508 10.2192 14.627C9.77024 14.8032 9.26352 14.5821 9.08733 14.1332L8.37864 12.3276L5.92273 9.90433C5.73202 9.71614 5.63824 9.4508 5.66836 9.18458L5.76989 8.28755C5.49111 8.64814 5.25658 9.08145 5.09299 9.59408C4.94636 10.0535 4.45505 10.3071 3.99564 10.1605C3.53624 10.0138 3.28264 9.52252 3.42927 9.06311C3.98164 7.33245 5.2312 6.02911 6.7822 5.43023L6.78405 5.42952L6.79255 5.42633ZM7.01114 6.01183L7.00642 6.01364C5.63683 6.54277 4.52086 7.69855 4.0247 9.25314C3.98302 9.38373 4.05508 9.52336 4.18567 9.56505C4.31624 9.6067 4.45589 9.53464 4.49758 9.40405C4.80811 8.43108 5.34914 7.69517 5.98514 7.1757C6.08358 7.09533 6.22089 7.08255 6.33245 7.14339C6.44402 7.20423 6.50764 7.32661 6.49333 7.45289L6.28942 9.25486C6.28083 9.33052 6.30749 9.40595 6.3617 9.45942L8.86483 11.9293C8.89592 11.96 8.92027 11.9969 8.93623 12.0376L9.66911 13.9049C9.71917 14.0325 9.86324 14.0953 9.9908 14.0452C10.1184 13.9951 10.1812 13.8511 10.1312 13.7235L9.35483 11.7455C9.34214 11.7132 9.32283 11.6839 9.29811 11.6595L7.81461 10.1957C7.74036 10.1225 7.70758 10.017 7.72717 9.91455L8.03364 8.3127C8.05861 8.1822 8.16333 8.0818 8.29473 8.0623C8.42614 8.0428 8.55548 8.10852 8.61727 8.22614C8.75789 8.49395 8.89883 8.72289 9.05989 8.91055C9.25224 9.13464 9.47264 9.29948 9.75233 9.4087C10.0273 9.51611 10.3476 9.56511 10.7337 9.57667C10.8707 9.5808 10.9851 9.47305 10.9893 9.33605C10.9934 9.19905 10.8856 9.08464 10.7486 9.08051C10.3925 9.06986 10.1348 9.0252 9.93292 8.94636C9.73598 8.86942 9.58105 8.75558 9.43655 8.58727C9.28805 8.41426 9.14973 8.18277 8.9912 7.86777C8.87827 7.64336 8.76124 7.38951 8.62589 7.09589L8.62414 7.09211C8.56767 6.96961 8.5078 6.8397 8.44308 6.70076C8.30877 6.41236 8.11452 6.17876 7.86145 6.04792C7.6028 5.9142 7.30855 5.90155 7.01114 6.01183Z" fill="black" fill-opacity="0.2"/>
<path fill-rule="evenodd" clip-rule="evenodd" d="M6.79255 5.42633C7.23877 5.26048 7.71814 5.27023 8.14852 5.49276C8.55795 5.70445 8.83524 6.06236 9.00964 6.43692C9.07492 6.57705 9.13524 6.70792 9.19164 6.83026C9.32905 7.12833 9.44189 7.37298 9.54952 7.58683C9.70152 7.88889 9.81267 8.06583 9.9108 8.18017C9.99492 8.27817 10.0674 8.32789 10.1603 8.36417C10.27 8.40705 10.449 8.44626 10.7674 8.4558C11.2494 8.47026 11.6284 8.87273 11.614 9.35477C11.5995 9.8368 11.197 10.2159 10.715 10.2014C10.291 10.1887 9.89186 10.1342 9.52495 9.99089C9.14105 9.84092 8.83824 9.61189 8.58564 9.31761C8.55567 9.2827 8.52655 9.24702 8.49817 9.21064L8.37239 9.86805L9.73711 11.2146C9.82402 11.3004 9.89202 11.4035 9.93661 11.5172L10.713 13.4952C10.8891 13.9441 10.6681 14.4508 10.2192 14.627C9.77024 14.8032 9.26352 14.5821 9.08733 14.1332L8.37864 12.3276L5.92273 9.90433C5.73202 9.71614 5.63824 9.4508 5.66836 9.18458L5.76989 8.28755C5.49111 8.64814 5.25658 9.08145 5.09299 9.59408C4.94636 10.0535 4.45505 10.3071 3.99564 10.1605C3.53624 10.0138 3.28264 9.52252 3.42927 9.06311C3.98164 7.33245 5.2312 6.02911 6.7822 5.43023L6.78405 5.42952L6.79255 5.42633ZM7.01114 6.01183L7.00642 6.01364C5.63683 6.54277 4.52086 7.69855 4.0247 9.25314C3.98302 9.38373 4.05508 9.52336 4.18567 9.56505C4.31624 9.6067 4.45589 9.53464 4.49758 9.40405C4.80811 8.43108 5.34914 7.69517 5.98514 7.1757C6.08358 7.09533 6.22089 7.08255 6.33245 7.14339C6.44402 7.20423 6.50764 7.32661 6.49333 7.45289L6.28942 9.25486C6.28083 9.33052 6.30749 9.40595 6.3617 9.45942L8.86483 11.9293C8.89592 11.96 8.92027 11.9969 8.93623 12.0376L9.66911 13.9049C9.71917 14.0325 9.86324 14.0953 9.9908 14.0452C10.1184 13.9951 10.1812 13.8511 10.1312 13.7235L9.35483 11.7455C9.34214 11.7132 9.32283 11.6839 9.29811 11.6595L7.81461 10.1957C7.74036 10.1225 7.70758 10.017 7.72717 9.91455L8.03364 8.3127C8.05861 8.1822 8.16333 8.0818 8.29473 8.0623C8.42614 8.0428 8.55548 8.10852 8.61727 8.22614C8.75789 8.49395 8.89883 8.72289 9.05989 8.91055C9.25224 9.13464 9.47264 9.29948 9.75233 9.4087C10.0273 9.51611 10.3476 9.56511 10.7337 9.57667C10.8707 9.5808 10.9851 9.47305 10.9893 9.33605C10.9934 9.19905 10.8856 9.08464 10.7486 9.08051C10.3925 9.06986 10.1348 9.0252 9.93292 8.94636C9.73598 8.86942 9.58105 8.75558 9.43655 8.58727C9.28805 8.41426 9.14973 8.18277 8.9912 7.86777C8.87827 7.64336 8.76124 7.38951 8.62589 7.09589L8.62414 7.09211C8.56767 6.96961 8.5078 6.8397 8.44308 6.70076C8.30877 6.41236 8.11452 6.17876 7.86145 6.04792C7.6028 5.9142 7.30855 5.90155 7.01114 6.01183Z" fill="black" fill-opacity="0.2"/>
<path fill-rule="evenodd" clip-rule="evenodd" d="M6.79255 5.42633C7.23877 5.26048 7.71814 5.27023 8.14852 5.49276C8.55795 5.70445 8.83524 6.06236 9.00964 6.43692C9.07492 6.57705 9.13524 6.70792 9.19164 6.83026C9.32905 7.12833 9.44189 7.37298 9.54952 7.58683C9.70152 7.88889 9.81267 8.06583 9.9108 8.18017C9.99492 8.27817 10.0674 8.32789 10.1603 8.36417C10.27 8.40705 10.449 8.44626 10.7674 8.4558C11.2494 8.47026 11.6284 8.87273 11.614 9.35477C11.5995 9.8368 11.197 10.2159 10.715 10.2014C10.291 10.1887 9.89186 10.1342 9.52495 9.99089C9.14105 9.84092 8.83824 9.61189 8.58564 9.31761C8.55567 9.2827 8.52655 9.24702 8.49817 9.21064L8.37239 9.86805L9.73711 11.2146C9.82402 11.3004 9.89202 11.4035 9.93661 11.5172L10.713 13.4952C10.8891 13.9441 10.6681 14.4508 10.2192 14.627C9.77024 14.8032 9.26352 14.5821 9.08733 14.1332L8.37864 12.3276L5.92273 9.90433C5.73202 9.71614 5.63824 9.4508 5.66836 9.18458L5.76989 8.28755C5.49111 8.64814 5.25658 9.08145 5.09299 9.59408C4.94636 10.0535 4.45505 10.3071 3.99564 10.1605C3.53624 10.0138 3.28264 9.52252 3.42927 9.06311C3.98164 7.33245 5.2312 6.02911 6.7822 5.43023L6.78405 5.42952L6.79255 5.42633ZM7.01114 6.01183L7.00642 6.01364C5.63683 6.54277 4.52086 7.69855 4.0247 9.25314C3.98302 9.38373 4.05508 9.52336 4.18567 9.56505C4.31624 9.6067 4.45589 9.53464 4.49758 9.40405C4.80811 8.43108 5.34914 7.69517 5.98514 7.1757C6.08358 7.09533 6.22089 7.08255 6.33245 7.14339C6.44402 7.20423 6.50764 7.32661 6.49333 7.45289L6.28942 9.25486C6.28083 9.33052 6.30749 9.40595 6.3617 9.45942L8.86483 11.9293C8.89592 11.96 8.92027 11.9969 8.93623 12.0376L9.66911 13.9049C9.71917 14.0325 9.86324 14.0953 9.9908 14.0452C10.1184 13.9951 10.1812 13.8511 10.1312 13.7235L9.35483 11.7455C9.34214 11.7132 9.32283 11.6839 9.29811 11.6595L7.81461 10.1957C7.74036 10.1225 7.70758 10.017 7.72717 9.91455L8.03364 8.3127C8.05861 8.1822 8.16333 8.0818 8.29473 8.0623C8.42614 8.0428 8.55548 8.10852 8.61727 8.22614C8.75789 8.49395 8.89883 8.72289 9.05989 8.91055C9.25224 9.13464 9.47264 9.29948 9.75233 9.4087C10.0273 9.51611 10.3476 9.56511 10.7337 9.57667C10.8707 9.5808 10.9851 9.47305 10.9893 9.33605C10.9934 9.19905 10.8856 9.08464 10.7486 9.08051C10.3925 9.06986 10.1348 9.0252 9.93292 8.94636C9.73598 8.86942 9.58105 8.75558 9.43655 8.58727C9.28805 8.41426 9.14973 8.18277 8.9912 7.86777C8.87827 7.64336 8.76124 7.38951 8.62589 7.09589L8.62414 7.09211C8.56767 6.96961 8.5078 6.8397 8.44308 6.70076C8.30877 6.41236 8.11452 6.17876 7.86145 6.04792C7.6028 5.9142 7.30855 5.90155 7.01114 6.01183Z" fill="black" fill-opacity="0.2"/>
</g>
</g>
</svg>
