<svg width="26" height="26" viewBox="0 0 26 26" fill="none" xmlns="http://www.w3.org/2000/svg">
<path fill-rule="evenodd" clip-rule="evenodd" d="M15.9844 14.4614C15.5113 14.6547 15.209 15.3954 14.9024 15.7738C14.7452 15.9677 14.5577 15.998 14.316 15.9008C12.5401 15.1933 11.1788 14.0082 10.1988 12.374C10.0328 12.1205 10.0626 11.9204 10.2628 11.685C10.5587 11.3364 10.9307 10.9404 11.0108 10.4707C11.1885 9.43159 9.83016 6.20847 8.03622 7.66891C2.87414 11.8754 16.6475 23.0321 19.1333 16.998C19.8365 15.2875 16.7686 14.1401 15.9844 14.4614ZM13.0001 23.3163C11.1744 23.3163 9.37801 22.8309 7.80527 21.912C7.55283 21.764 7.24765 21.725 6.96543 21.8016L3.54797 22.7396L4.73839 20.1171C4.9005 19.7602 4.85899 19.3446 4.62999 19.0272C3.35656 17.2621 2.68322 15.1781 2.68322 12.9999C2.68322 7.311 7.31113 2.68309 13.0001 2.68309C18.689 2.68309 23.3164 7.311 23.3164 12.9999C23.3164 18.6884 18.6885 23.3163 13.0001 23.3163ZM13.0001 0.5C6.10752 0.5 0.500131 6.10739 0.500131 12.9999C0.500131 15.4247 1.1886 17.7533 2.4967 19.7743L0.597786 23.9564C0.422494 24.3426 0.486459 24.7948 0.760871 25.1166C0.971808 25.3631 1.27698 25.4999 1.59192 25.4999C2.29602 25.4999 6.13535 24.2933 7.1124 24.0253C8.91854 24.9916 10.9444 25.4999 13.0001 25.4999C19.8921 25.4999 25.5 19.892 25.5 12.9999C25.5 6.10739 19.8921 0.5 13.0001 0.5Z" fill="#E8BE38"/>
</svg>
