<svg width="50" height="50" viewBox="0 0 50 50" fill="none" xmlns="http://www.w3.org/2000/svg">
<rect x="0.5" y="0.5" width="49" height="49" rx="4.5" stroke="#05B3CC"/>
<path d="M40.0402 8.63441C40.6663 8.87996 41.3784 8.57302 41.6363 7.93459C41.8818 7.30844 41.5749 6.59635 40.9365 6.33852H40.9242C30.6111 2.37289 19.0334 7.51716 15.0555 17.8303C14.7854 18.5301 14.5521 19.2422 14.368 19.9665H9.50607C8.83081 19.9665 8.27832 20.519 8.27832 21.1943C8.27832 21.8695 8.83081 22.422 9.50607 22.422H13.8891C13.6436 24.3864 13.6804 26.3631 13.9996 28.3152H9.50607C8.83081 28.3152 8.27832 28.8677 8.27832 29.543C8.27832 30.2182 8.83081 30.7707 9.50607 30.7707H14.5767C17.7811 41.3539 28.9536 47.3331 39.5245 44.1409C39.9911 43.9936 40.4576 43.834 40.9119 43.6621C41.538 43.4165 41.8573 42.7045 41.6117 42.0783C41.3662 41.4521 40.6541 41.1329 40.0279 41.3785C30.9794 44.8653 20.8136 40.3472 17.3268 31.2864C17.2654 31.1145 17.2041 30.9549 17.1427 30.783H35.2888C35.9641 30.783 36.5166 30.2305 36.5166 29.5553C36.5166 28.88 35.9641 28.3275 35.2888 28.3275H16.492C16.1236 26.3877 16.0868 24.3864 16.3692 22.4343H37.2532C37.9285 22.4343 38.481 21.8818 38.481 21.2066C38.481 20.5313 37.9285 19.9788 37.2532 19.9788H16.9217C19.7087 10.697 29.5061 5.42999 38.8002 8.21698C39.2053 8.33975 39.6228 8.4748 40.0402 8.63441Z" fill="#05B3CC"/>
</svg>
