<svg width="30" height="30" viewBox="0 0 30 30" fill="none" xmlns="http://www.w3.org/2000/svg">
<g clip-path="url(#clip0_263_37980)">
<path d="M25.9743 25.8973H24.5596L23.5644 24.9551C26.2616 19.8912 24.4077 16.0498 23.3235 14.4608C23.361 14.2756 23.3811 14.0853 23.3811 13.8898C23.3811 12.3069 22.1038 11.0183 20.5264 10.9953L18.0252 10.0986L18.733 7.90343C18.7705 7.78858 18.7597 7.6639 18.7044 7.55655C18.6505 7.44921 18.5544 7.36858 18.44 7.33155L18.0875 7.21811L19.1174 4.02452L19.2857 4.07843C19.3316 4.09343 19.3789 4.10093 19.4249 4.10093C19.6171 4.10093 19.7957 3.97765 19.858 3.78546L20.4486 1.95405C20.4861 1.83921 20.4754 1.71452 20.42 1.60718C20.3661 1.49983 20.27 1.41921 20.1557 1.38218L15.9388 0.0223328C15.7007 -0.0554797 15.4443 0.0767078 15.3664 0.315302L14.7758 2.14718C14.7393 2.26202 14.7491 2.38671 14.8044 2.49405C14.8593 2.6014 14.9544 2.68202 15.0688 2.71905L15.2371 2.77296L14.2082 5.96702L13.8557 5.85311C13.6185 5.7753 13.3611 5.90749 13.2833 6.14608L11.0029 13.2186C10.9663 13.3334 10.9761 13.4581 11.0314 13.5655C11.0863 13.6728 11.1814 13.7534 11.2958 13.7905L12.163 14.0698L11.5522 15.9617C11.5157 16.0765 11.5255 16.2012 11.5808 16.3086C11.6357 16.4159 11.7308 16.4965 11.8461 16.5336L13.8318 17.1739C13.8786 17.1889 13.925 17.1964 13.971 17.1964C14.1632 17.1964 14.3418 17.0736 14.4041 16.8809L15.0149 14.9895L15.8811 15.2689C15.9271 15.2839 15.9744 15.2909 16.0204 15.2909C16.2125 15.2909 16.3911 15.1681 16.4535 14.9759L16.7774 13.9709L17.616 14.2723C17.8044 15.6889 19.0175 16.7862 20.4852 16.7862C20.4927 16.7862 20.4997 16.7853 20.5082 16.7853C20.7533 17.802 20.8963 19.2955 20.1664 20.615V19.9634C20.1664 19.7126 19.963 19.5087 19.7122 19.5087H7.12535C6.87363 19.5087 6.6702 19.7126 6.6702 19.9634V21.9373C6.6702 22.1881 6.87363 22.3916 7.12535 22.3916H14.5457V25.8973H4.02551C3.77473 25.8973 3.57129 26.1012 3.57129 26.352V29.5456C3.57129 29.7969 3.77473 30.0003 4.02551 30.0003H25.9743C26.226 30.0003 26.4294 29.7969 26.4294 29.5456V26.352C26.4294 26.1012 26.226 25.8973 25.9743 25.8973ZM16.093 1.02686L19.4446 2.1078L19.1324 3.07436L15.7818 1.9939L16.093 1.02686ZM16.1038 3.0528L18.2525 3.74608L17.2227 6.93968L15.0739 6.2464L16.1038 3.0528ZM13.678 16.1698L12.5572 15.8084L13.0279 14.3492L14.1486 14.7106L13.678 16.1698ZM15.7269 14.2648L12.0079 13.0653L14.0094 6.85858L17.3769 7.94374L17.7294 8.05718L16.063 13.2223C16.0621 13.2256 16.0593 13.2275 16.0583 13.2308C16.0564 13.2355 16.0574 13.2401 16.0564 13.2439L15.7269 14.2648ZM17.7463 10.9648L18.9922 11.412C18.3093 11.825 17.8077 12.5094 17.6446 13.3175L17.0558 13.1061L17.7463 10.9648ZM18.501 13.933C18.501 13.9217 18.4991 13.9114 18.4982 13.9001C18.4972 13.8969 18.4963 13.8936 18.4963 13.8903C18.4963 12.7944 19.3888 11.9028 20.4847 11.9028C21.5807 11.9028 22.4722 12.7944 22.4722 13.8903C22.4722 14.9862 21.5807 15.8778 20.4847 15.8778C19.4029 15.8778 18.5249 15.0087 18.501 13.933ZM21.4058 16.6339C22.0213 16.4272 22.5449 16.0198 22.8974 15.4892C23.8424 17.1205 24.9336 20.2625 22.8791 24.3069L20.3568 21.9205C21.8718 20.1926 21.7335 18.035 21.4058 16.6339ZM7.57957 20.4191H19.258V21.4826H7.57957V20.4191ZM15.455 22.3916H19.5327L23.2377 25.8973H15.455V22.3916ZM25.52 29.0909H4.48066V26.8067H25.5205L25.52 29.0909Z" fill="#E8BE38"/>
<path d="M19.251 23.3926H19.2463C18.9955 23.3926 18.7939 23.5965 18.7939 23.8473C18.7939 24.098 18.9997 24.302 19.251 24.302C19.5022 24.302 19.7052 24.098 19.7052 23.8473C19.7052 23.5965 19.5018 23.3926 19.251 23.3926Z" fill="#E8BE38"/>
</g>
<defs>
<clipPath id="clip0_263_37980">
<rect width="30" height="30" fill="white"/>
</clipPath>
</defs>
</svg>
