<svg width="25" height="23" viewBox="0 0 25 23" fill="none" xmlns="http://www.w3.org/2000/svg">
<path d="M24.5403 20.1241C24.5423 20.1228 22.9789 16.4848 22.9787 16.48C22.8775 16.2434 22.7091 16.0417 22.4943 15.9C22.2795 15.7583 22.0278 15.6829 21.7705 15.6831H18.6279C18.6927 15.5238 18.7254 15.3534 18.724 15.1815C18.7227 15.0096 18.6875 14.8396 18.6202 14.6814L16.7005 10.2019C16.5994 9.96536 16.431 9.76375 16.2163 9.62213C16.0015 9.48051 15.7499 9.40512 15.4926 9.40534H9.50739C9.25014 9.40512 8.9985 9.48051 8.78374 9.62213C8.56899 9.76375 8.40059 9.96536 8.29947 10.2019L6.37976 14.6814C6.31255 14.8396 6.27727 15.0096 6.27596 15.1815C6.27466 15.3534 6.30734 15.5238 6.37214 15.6831H3.22948C2.97218 15.6829 2.72051 15.7583 2.50575 15.9C2.29099 16.0417 2.12261 16.2434 2.02156 16.48L0.101857 20.9591C0.0184729 21.1591 -0.014499 21.3766 0.00584008 21.5923C0.0261792 21.808 0.0992064 22.0155 0.218501 22.1964C0.337796 22.3772 0.499705 22.5261 0.689993 22.6297C0.88028 22.7334 1.09312 22.7887 1.3098 22.7908L11.1344 22.7908C11.3519 22.7909 11.566 22.7369 11.7575 22.6338C11.9489 22.5308 12.1118 22.3818 12.2316 22.2002C12.3513 22.0187 12.4241 21.8103 12.4434 21.5936C12.4627 21.377 12.428 21.159 12.3423 20.9591L10.437 16.5131H14.5632L12.6577 20.9591C12.572 21.159 12.5373 21.377 12.5566 21.5936C12.5759 21.8103 12.6487 22.0187 12.7684 22.2002C12.8882 22.3818 13.0511 22.5308 13.2426 22.6338C13.434 22.7369 13.6481 22.7909 13.8656 22.7908H23.6902C23.9069 22.7887 24.1198 22.7334 24.31 22.6297C24.5003 22.5261 24.6622 22.3772 24.7815 22.1963C24.9008 22.0154 24.9738 21.808 24.9942 21.5923C25.0145 21.3766 24.9815 21.1591 24.8981 20.9591L24.5403 20.1241ZM7.14855 15.0107L9.06825 10.5311C9.10509 10.4452 9.16634 10.372 9.2444 10.3206C9.32247 10.2692 9.41391 10.2418 9.50739 10.2419H15.4926C15.5861 10.2418 15.6775 10.2692 15.7556 10.3206C15.8337 10.372 15.8949 10.4452 15.9317 10.5311L17.2419 13.5883H11.2451C11.1352 13.5899 11.0303 13.6346 10.9531 13.7129C10.876 13.7912 10.8327 13.8967 10.8327 14.0066C10.8327 14.1165 10.876 14.222 10.9531 14.3003C11.0303 14.3786 11.1352 14.4233 11.2451 14.4249H17.6004L17.8515 15.0107C17.8819 15.0834 17.894 15.1624 17.8867 15.2409C17.8794 15.3194 17.8528 15.3949 17.8094 15.4607C17.766 15.5265 17.7071 15.5806 17.6379 15.6182C17.5686 15.6559 17.4911 15.6759 17.4123 15.6765H7.58767C7.50886 15.6759 7.4314 15.6559 7.36215 15.6182C7.2929 15.5806 7.23397 15.5265 7.19058 15.4607C7.14718 15.3949 7.12065 15.3194 7.11332 15.2409C7.10599 15.1624 7.11809 15.0834 7.14855 15.0107ZM11.5331 21.7394C11.4901 21.8058 11.431 21.8604 11.3613 21.898C11.2916 21.9355 11.2136 21.9549 11.1344 21.9542H1.30976C1.23094 21.9536 1.15348 21.9336 1.08423 21.8959C1.01497 21.8583 0.95605 21.8042 0.912655 21.7384C0.86926 21.6726 0.842727 21.5971 0.8354 21.5186C0.828073 21.4402 0.840175 21.3611 0.87064 21.2884L2.79054 16.8093C2.82724 16.7233 2.88842 16.65 2.96647 16.5985C3.04451 16.547 3.13598 16.5196 3.22948 16.5197H9.2147C9.30822 16.5196 9.3997 16.547 9.47777 16.5985C9.55585 16.65 9.61707 16.7233 9.65383 16.8093L10.9625 19.8628H4.97067C4.86076 19.8643 4.75587 19.9091 4.67869 19.9873C4.60151 20.0656 4.55825 20.1711 4.55825 20.281C4.55825 20.391 4.60151 20.4965 4.67869 20.5748C4.75587 20.653 4.86076 20.6978 4.97067 20.6993H11.3211C11.4146 20.9844 11.7598 21.4455 11.5331 21.7394ZM24.0889 21.7394C24.0459 21.8058 23.9869 21.8604 23.9172 21.898C23.8475 21.9355 23.7694 21.9549 23.6902 21.9542H13.8656C13.7868 21.9536 13.7093 21.9336 13.6401 21.8959C13.5708 21.8583 13.5119 21.8042 13.4685 21.7384C13.4251 21.6726 13.3986 21.5971 13.3912 21.5186C13.3839 21.4402 13.396 21.3611 13.4265 21.2884L15.3464 16.8093C15.3831 16.7233 15.4443 16.65 15.5223 16.5985C15.6003 16.547 15.6918 16.5196 15.7853 16.5197H21.7705C21.8641 16.5196 21.9555 16.547 22.0336 16.5985C22.1117 16.65 22.1729 16.7233 22.2097 16.8093L23.5183 19.8628H17.5196C17.4096 19.8643 17.3048 19.9091 17.2276 19.9873C17.1504 20.0656 17.1071 20.1711 17.1071 20.281C17.1071 20.391 17.1504 20.4965 17.2276 20.5748C17.3048 20.653 17.4096 20.6978 17.5196 20.6993H23.8769C23.9704 20.9844 24.3157 21.4455 24.0889 21.7394ZM3.29749 6.89557C3.18762 6.89719 3.08281 6.94198 3.00569 7.02025C2.92858 7.09852 2.88535 7.20398 2.88535 7.31386C2.88535 7.42374 2.92858 7.5292 3.00569 7.60747C3.08281 7.68574 3.18762 7.73053 3.29749 7.73216C4.07378 7.73306 4.81802 8.04185 5.36695 8.59077C5.91587 9.13969 6.22465 9.88394 6.22556 10.6602C6.22711 10.7701 6.27187 10.875 6.35014 10.9522C6.42842 11.0294 6.53393 11.0727 6.64386 11.0727C6.75378 11.0727 6.85929 11.0294 6.93757 10.9522C7.01584 10.875 7.0606 10.7701 7.06215 10.6602C7.06306 9.88394 7.37184 9.13969 7.92076 8.59077C8.46969 8.04185 9.21393 7.73306 9.99022 7.73216C10.1001 7.7306 10.205 7.68584 10.2822 7.60757C10.3594 7.52929 10.4026 7.42378 10.4026 7.31385C10.4026 7.20393 10.3594 7.09842 10.2822 7.02014C10.205 6.94187 10.1001 6.89712 9.9902 6.89557C9.21391 6.89466 8.46968 6.58587 7.92076 6.03695C7.37184 5.48802 7.06306 4.74378 7.06215 3.96749C7.06052 3.85763 7.01573 3.75281 6.93747 3.6757C6.8592 3.59858 6.75373 3.55535 6.64386 3.55535C6.53398 3.55535 6.42851 3.59858 6.35024 3.6757C6.27198 3.75281 6.22719 3.85763 6.22556 3.96749C6.22465 4.74379 5.91587 5.48803 5.36695 6.03695C4.81802 6.58588 4.07378 6.89466 3.29749 6.89557ZM6.64386 5.69133C7.00409 6.38688 7.571 6.95371 8.26659 7.31386C7.571 7.67401 7.00409 8.24085 6.64386 8.93639C6.28362 8.24085 5.71671 7.67401 5.02112 7.31386C5.71671 6.95371 6.28361 6.38688 6.64386 5.69133ZM0.787708 3.34005C1.28677 3.34059 1.76523 3.53909 2.11812 3.89197C2.471 4.24486 2.6695 4.72332 2.67004 5.22238C2.6716 5.33229 2.71635 5.43718 2.79463 5.51436C2.8729 5.59154 2.97841 5.6348 3.08834 5.6348C3.19826 5.6348 3.30377 5.59154 3.38205 5.51436C3.46032 5.43718 3.50508 5.33229 3.50663 5.22238C3.50718 4.72332 3.70567 4.24486 4.05856 3.89197C4.41145 3.53909 4.88991 3.34059 5.38897 3.34005C5.49883 3.33842 5.60364 3.29363 5.68076 3.21536C5.75788 3.13709 5.8011 3.03163 5.8011 2.92175C5.8011 2.81187 5.75788 2.70641 5.68076 2.62814C5.60364 2.54987 5.49883 2.50508 5.38897 2.50346C4.88991 2.50291 4.41145 2.30441 4.05857 1.95153C3.70568 1.59864 3.5072 1.12018 3.50665 0.621122C3.50502 0.511258 3.46024 0.406445 3.38197 0.329328C3.3037 0.252212 3.19823 0.208984 3.08836 0.208984C2.97848 0.208984 2.87302 0.252212 2.79475 0.329328C2.71648 0.406445 2.67169 0.511258 2.67006 0.621122C2.66952 1.12018 2.47103 1.59864 2.11814 1.95153C1.76525 2.30442 1.28679 2.50291 0.787729 2.50346C0.677864 2.50508 0.57305 2.54987 0.495932 2.62813C0.418814 2.7064 0.375583 2.81186 0.375581 2.92174C0.375578 3.03162 0.418803 3.13708 0.495917 3.21535C0.573032 3.29363 0.677844 3.33842 0.787708 3.34005ZM3.08834 2.06882C3.3058 2.41292 3.59717 2.70428 3.94127 2.92175C3.59717 3.13922 3.30581 3.43058 3.08834 3.77469C2.87087 3.43058 2.5795 3.13922 2.2354 2.92175C2.5795 2.70428 2.87087 2.41292 3.08834 2.06882ZM0.787708 11.706C1.28677 11.7065 1.76523 11.905 2.11812 12.2579C2.471 12.6108 2.6695 13.0892 2.67004 13.5883C2.6716 13.6982 2.71635 13.8031 2.79463 13.8803C2.8729 13.9575 2.97841 14.0007 3.08834 14.0007C3.19826 14.0007 3.30377 13.9575 3.38205 13.8803C3.46032 13.8031 3.50508 13.6982 3.50663 13.5883C3.50718 13.0892 3.70567 12.6108 4.05856 12.2579C4.41145 11.905 4.88991 11.7065 5.38897 11.706C5.49883 11.7043 5.60364 11.6596 5.68076 11.5813C5.75788 11.503 5.8011 11.3976 5.8011 11.2877C5.8011 11.1778 5.75788 11.0723 5.68076 10.9941C5.60364 10.9158 5.49883 10.871 5.38897 10.8694C4.88991 10.8688 4.41145 10.6703 4.05857 10.3175C3.70568 9.96456 3.5072 9.4861 3.50665 8.98705C3.50502 8.87718 3.46024 8.77237 3.38197 8.69525C3.3037 8.61814 3.19823 8.57491 3.08836 8.57491C2.97848 8.57491 2.87302 8.61814 2.79475 8.69525C2.71648 8.77237 2.67169 8.87718 2.67006 8.98705C2.66952 9.4861 2.47103 9.96457 2.11814 10.3175C1.76525 10.6703 1.28679 10.8688 0.787729 10.8694C0.677864 10.871 0.57305 10.9158 0.495932 10.9941C0.418814 11.0723 0.375583 11.1778 0.375581 11.2877C0.375578 11.3975 0.418803 11.503 0.495917 11.5813C0.573032 11.6595 0.677844 11.7043 0.787708 11.706ZM3.08834 10.4347C3.3058 10.7788 3.59717 11.0702 3.94127 11.2877C3.59717 11.5051 3.30581 11.7965 3.08834 12.1406C2.87087 11.7965 2.5795 11.5051 2.2354 11.2877C2.5795 11.0702 2.87087 10.7788 3.08834 10.4347ZM17.5196 9.40534C17.5745 9.40541 17.6289 9.39461 17.6797 9.37358C17.7304 9.35254 17.7765 9.32169 17.8153 9.28278L18.9985 8.09979C19.0744 8.02083 19.1163 7.91526 19.1152 7.80575C19.1141 7.69624 19.0701 7.59153 18.9927 7.51409C18.9152 7.43666 18.8105 7.39268 18.701 7.3916C18.5915 7.39052 18.4859 7.43242 18.407 7.50832L17.2238 8.69129C17.1666 8.75029 17.128 8.82472 17.1126 8.90542C17.0972 8.98612 17.1057 9.06956 17.1372 9.14546C17.1686 9.22136 17.2216 9.2864 17.2895 9.33258C17.3574 9.37876 17.4374 9.40405 17.5196 9.40534ZM16.0986 8.63329C16.2058 8.66181 16.3198 8.64669 16.4158 8.59126C16.5119 8.53583 16.582 8.4446 16.6109 8.33756L17.0441 6.72115C17.0728 6.61401 17.0578 6.49984 17.0023 6.40378C16.9468 6.30771 16.8555 6.23761 16.7483 6.2089C16.6412 6.18019 16.527 6.19522 16.4309 6.25069C16.3349 6.30615 16.2648 6.3975 16.2361 6.50465L15.8029 8.12106C15.7886 8.17411 15.785 8.22945 15.7921 8.28391C15.7993 8.33837 15.8171 8.39089 15.8446 8.43846C15.8721 8.48603 15.9086 8.52772 15.9522 8.56115C15.9958 8.59458 16.0455 8.6191 16.0986 8.63329ZM17.8733 10.4078C17.9022 10.5148 17.9723 10.6061 18.0683 10.6615C18.1643 10.717 18.2784 10.7321 18.3856 10.7035L20.0018 10.2705C20.1089 10.2418 20.2003 10.1717 20.2557 10.0756C20.3112 9.97958 20.3262 9.86541 20.2975 9.75827C20.2688 9.65112 20.1987 9.55977 20.1026 9.5043C20.0066 9.44884 19.8924 9.43381 19.7853 9.46252L18.1691 9.89552C18.116 9.90972 18.0662 9.93423 18.0227 9.96767C17.9791 10.0011 17.9425 10.0428 17.915 10.0904C17.8876 10.1379 17.8697 10.1905 17.8626 10.2449C17.8554 10.2994 17.8591 10.3547 17.8733 10.4078Z" fill="#E8BE38"/>
</svg>
