<svg width="30" height="30" viewBox="0 0 30 30" fill="none" xmlns="http://www.w3.org/2000/svg">
<g clip-path="url(#clip0_263_37988)">
<path d="M27.0187 20.6971C25.4716 19.1367 23.4104 18.2773 21.2148 18.2773H20.0907C20.0053 18.2773 19.9211 18.2974 19.8449 18.3359C19.7687 18.3744 19.7026 18.4302 19.6519 18.4989C18.697 19.7924 17.1688 20.5647 15.5638 20.5647H14.3936C12.7885 20.5647 11.2603 19.7924 10.3054 18.4989C10.2547 18.4302 10.1886 18.3743 10.1124 18.3359C10.0361 18.2974 9.95195 18.2773 9.86657 18.2773H8.82459C6.62548 18.2773 4.55073 19.1357 2.9825 20.6943C1.41121 22.2559 0.545898 24.3253 0.545898 26.5216V28.9551C0.545898 29.2563 0.790153 29.5005 1.09135 29.5005H28.8658C29.167 29.5005 29.4113 29.2563 29.4113 28.9551V26.5216C29.4113 24.3218 28.5616 22.2534 27.0187 20.6971ZM28.3204 28.4096H1.63681V26.5216C1.63681 24.6181 2.38784 22.8233 3.75148 21.4681C5.11397 20.1141 6.91561 19.3683 8.82459 19.3683H9.59919C10.7655 20.8056 12.5371 21.6556 14.3935 21.6556H15.5637C17.4201 21.6556 19.1918 20.8056 20.3581 19.3683H21.2148C25.1329 19.3683 28.3204 22.5773 28.3204 26.5216V28.4096H28.3204Z" fill="#E8BE38"/>
<path d="M5.25845 5.00281L8.23658 6.08074V9.18416C8.23658 9.23712 8.24061 9.28861 8.24711 9.33923V12.2265C8.24711 15.6277 11.0141 18.3946 14.4152 18.3946H15.5867C18.9879 18.3946 21.7549 15.6276 21.7549 12.2265V9.25774C21.7549 9.13687 21.7506 9.01065 21.7429 8.88252V6.07948L22.5644 5.78019V8.41708C22.5644 8.71828 22.8087 8.96254 23.1099 8.96254C23.4111 8.96254 23.6553 8.71828 23.6553 8.41708V5.38277L24.6994 5.00237C24.8047 4.96408 24.8957 4.89429 24.9599 4.80249C25.0241 4.71068 25.0585 4.60133 25.0584 4.48929C25.0583 4.37725 25.0236 4.26797 24.9592 4.17631C24.8948 4.08464 24.8037 4.01504 24.6983 3.97697L15.133 0.514974C15.0127 0.471422 14.8809 0.471576 14.7607 0.51541L5.25742 3.97741C5.15212 4.0157 5.06118 4.08549 4.99695 4.17728C4.93272 4.26908 4.89832 4.37844 4.89844 4.49047C4.89855 4.60251 4.93317 4.71179 4.99758 4.80346C5.062 4.89513 5.15308 4.96474 5.25845 5.00281ZM14.8239 8.46497C14.8839 8.48663 14.9467 8.49754 15.0095 8.49754C15.0115 8.49754 15.0134 8.49726 15.0153 8.49726C15.0808 8.49801 15.1459 8.48693 15.2074 8.46454L20.6519 6.4811V9.1841C20.6519 9.29052 20.3879 9.67741 19.2152 10.047C18.0943 10.4001 16.5936 10.5946 14.9896 10.5946C14.8917 10.5946 14.7941 10.5939 14.6971 10.5924C14.6422 10.5916 14.5877 10.5901 14.5331 10.5888C14.492 10.5878 14.4506 10.5872 14.4097 10.586C14.3363 10.5838 14.2634 10.5808 14.1907 10.5778C14.1693 10.577 14.1479 10.5764 14.1267 10.5754C14.0431 10.5717 13.96 10.5672 13.8773 10.5624C13.8676 10.5618 13.8578 10.5614 13.8481 10.5608C13.7582 10.5554 13.6688 10.5494 13.58 10.5427L13.5736 10.5422C13.1175 10.5078 12.6775 10.4566 12.2619 10.3899C12.182 10.377 12.1023 10.3634 12.0227 10.3491L12.0032 10.3457C11.8388 10.3159 11.675 10.2827 11.512 10.2462C11.384 10.2173 11.2566 10.1861 11.1297 10.1524C11.1017 10.1449 11.0738 10.1373 11.0462 10.1297C11.0038 10.1179 10.9619 10.106 10.9204 10.0939C10.8711 10.0794 10.8217 10.065 10.7737 10.0498C10.1054 9.84001 9.70003 9.60868 9.49483 9.42672C9.39371 9.33541 9.3468 9.26112 9.33251 9.2135C9.33131 9.20892 9.33005 9.20439 9.32923 9.20003L9.32885 9.19839C9.32795 9.19368 9.32746 9.1889 9.32738 9.1841V6.47559L14.8239 8.46497ZM20.6639 12.2264C20.6639 15.026 18.3863 17.3036 15.5867 17.3036H14.4152C11.6157 17.3036 9.33802 15.026 9.33802 12.2264V10.6352C9.56907 10.7619 9.83711 10.8793 10.1399 10.9875L10.1607 10.9949C10.1869 11.0042 10.2132 11.0136 10.24 11.0228C10.285 11.0382 10.3297 11.053 10.3741 11.0674L10.3976 11.075L10.4363 11.0875C10.4527 11.0926 10.47 11.0974 10.4866 11.1025C10.5125 11.1105 10.5377 11.1187 10.5641 11.1265C10.5796 11.1312 10.596 11.1355 10.6117 11.1401C10.6889 11.1627 10.7664 11.1844 10.8442 11.2051C10.9233 11.2261 11.0026 11.2463 11.0821 11.2656C11.1629 11.2852 11.2439 11.304 11.3252 11.3217C11.3843 11.3348 11.4439 11.3475 11.5042 11.3598C11.5272 11.3646 11.5504 11.3691 11.5736 11.3738C11.6392 11.3869 11.7055 11.3996 11.7724 11.4119C11.7909 11.4153 11.8095 11.4186 11.8281 11.4219C11.9 11.4348 11.9724 11.4474 12.0457 11.4594C12.06 11.4617 12.0743 11.4639 12.0887 11.4662C12.1662 11.4787 12.2443 11.4907 12.3232 11.5021L12.3563 11.5068C12.4386 11.5185 12.5213 11.5298 12.6049 11.5404C12.6135 11.5415 12.6221 11.5424 12.6308 11.5435C12.7166 11.5543 12.803 11.5645 12.8902 11.5741C12.8979 11.575 12.9057 11.5757 12.9134 11.5765C13.0012 11.5861 13.0895 11.595 13.1786 11.6033C13.1878 11.6042 13.1971 11.6049 13.2062 11.6058C13.2939 11.6137 13.382 11.6213 13.4708 11.6281C13.4833 11.6291 13.4961 11.6299 13.5087 11.6308C13.5943 11.6372 13.6802 11.6433 13.7667 11.6486C13.7852 11.6497 13.804 11.6505 13.8225 11.6516C13.9033 11.6564 13.9844 11.6608 14.066 11.6646C14.0956 11.6659 14.1255 11.6668 14.1552 11.668C14.2265 11.671 14.2976 11.6739 14.3695 11.6761C14.4181 11.6776 14.467 11.6784 14.5159 11.6795C14.5696 11.6807 14.6232 11.6823 14.6771 11.6831C14.781 11.6847 14.8852 11.6856 14.9897 11.6856C16.7019 11.6856 18.319 11.4731 19.5431 11.0874C19.5952 11.071 19.6471 11.0541 19.6988 11.0365C19.7389 11.0229 19.7793 11.009 19.8197 10.9946L19.8261 10.9923C19.8687 10.9771 19.911 10.9614 19.9533 10.9453L19.9835 10.9338C20.0268 10.9171 20.0699 10.9 20.1128 10.8825C20.1649 10.861 20.2168 10.8388 20.2683 10.8158C20.3053 10.7995 20.342 10.7827 20.3785 10.7654C20.3844 10.7626 20.3904 10.76 20.3962 10.7572C20.4372 10.7376 20.4779 10.7175 20.5183 10.6968C20.5275 10.6921 20.5365 10.6873 20.5457 10.6826C20.5805 10.6645 20.6151 10.6459 20.6495 10.6269C20.6543 10.6242 20.6593 10.6218 20.664 10.6191V12.2264H20.6639ZM14.9479 1.60817L22.7494 4.43183L15.0126 3.94556C14.7127 3.92603 14.4529 4.15506 14.434 4.45577C14.4151 4.75643 14.6435 5.01546 14.9443 5.03434L20.4714 5.38174L15.0145 7.3697L8.96765 5.18101C8.94747 5.1737 8.92691 5.16776 8.90623 5.1629L7.04214 4.48823L14.9479 1.60817Z" fill="#E8BE38"/>
<path d="M23.1099 9.28223C22.8087 9.28223 22.5645 9.52648 22.5645 9.82768V11.0572C22.5645 11.3584 22.8087 11.6027 23.1099 11.6027C23.4111 11.6027 23.6554 11.3584 23.6554 11.0572V9.82768C23.6554 9.52648 23.4111 9.28223 23.1099 9.28223Z" fill="#E8BE38"/>
</g>
<defs>
<clipPath id="clip0_263_37988">
<rect width="30" height="30" fill="white"/>
</clipPath>
</defs>
</svg>
