<svg width="32" height="26" viewBox="0 0 32 26" fill="none" xmlns="http://www.w3.org/2000/svg">
<path d="M16 8.99953C14.4087 8.99953 12.8826 9.63168 11.7574 10.7569C10.6321 11.8821 10 13.4082 10 14.9995C10 16.5908 10.6321 18.117 11.7574 19.2422C12.8826 20.3674 14.4087 20.9995 16 20.9995C17.5913 20.9995 19.1174 20.3674 20.2426 19.2422C21.3679 18.117 22 16.5908 22 14.9995C22 13.4082 21.3679 11.8821 20.2426 10.7569C19.1174 9.63168 17.5913 8.99953 16 8.99953ZM16 19.9995C15.3433 19.9995 14.6931 19.8701 14.0864 19.6187C13.4798 19.3673 12.9286 18.999 12.4643 18.5346C11.5266 17.5967 10.9999 16.3247 11 14.9985C11.0001 13.6723 11.5271 12.4005 12.465 11.4628C13.4028 10.5251 14.6748 9.9984 16.001 9.99853C17.3272 9.99867 18.5991 10.5256 19.5367 11.4635C20.4744 12.4014 21.0011 13.6733 21.001 14.9995C21.0009 16.3257 20.4739 17.5976 19.536 18.5353C18.5982 19.473 17.3262 19.9997 16 19.9995ZM28 5.99953C27.7337 5.99351 27.4688 6.04076 27.221 6.13851C26.9731 6.23625 26.7473 6.38253 26.5568 6.56874C26.3663 6.75495 26.2149 6.97735 26.1115 7.22288C26.0081 7.46841 25.9549 7.73212 25.9548 7.99852C25.9547 8.26493 26.0079 8.52867 26.1111 8.77425C26.2144 9.01983 26.3657 9.2423 26.5561 9.42861C26.7465 9.61492 26.9723 9.7613 27.22 9.85917C27.4678 9.95704 27.7327 10.0044 27.999 9.99853C28.5216 9.98698 29.0188 9.77131 29.3844 9.3977C29.7499 9.02408 29.9547 8.52221 29.9548 7.99952C29.9549 7.47683 29.7504 6.97486 29.3851 6.60107C29.0197 6.22727 28.5226 6.01135 28 5.99953ZM28 8.99953C27.7348 8.99953 27.4804 8.89418 27.2929 8.70664C27.1054 8.5191 27 8.26475 27 7.99953C27 7.73432 27.1054 7.47996 27.2929 7.29243C27.4804 7.10489 27.7348 6.99953 28 6.99953C28.2652 6.99953 28.5196 7.10489 28.7071 7.29243C28.8946 7.47996 29 7.73432 29 7.99953C29 8.26475 28.8946 8.5191 28.7071 8.70664C28.5196 8.89418 28.2652 8.99953 28 8.99953Z" fill="#E8BE38"/>
<path d="M16 6C13.6131 6 11.3239 6.94821 9.63604 8.63604C7.94821 10.3239 7 12.6131 7 15C7 19.971 11.029 24 16 24C20.971 24 25 19.971 25 15C25 12.6131 24.0518 10.3239 22.364 8.63604C20.6761 6.94821 18.3869 6 16 6ZM16 23C13.8783 23 11.8434 22.1571 10.3431 20.6569C8.84285 19.1566 8 17.1217 8 15C8 12.8783 8.84285 10.8434 10.3431 9.34315C11.8434 7.84285 13.8783 7 16 7C18.1217 7 20.1566 7.84285 21.6569 9.34315C23.1571 10.8434 24 12.8783 24 15C24 17.1217 23.1571 19.1566 21.6569 20.6569C20.1566 22.1571 18.1217 23 16 23Z" fill="#E8BE38"/>
<path d="M30 4H23V2C23 1.46957 22.7893 0.960859 22.4142 0.585786C22.0391 0.210714 21.5304 0 21 0H11C10.4696 0 9.96086 0.210714 9.58579 0.585786C9.21071 0.960859 9 1.46957 9 2V4H2C1.46957 4 0.960859 4.21071 0.585786 4.58579C0.210714 4.96086 0 5.46957 0 6L0 24C0 24.5304 0.210714 25.0391 0.585786 25.4142C0.960859 25.7893 1.46957 26 2 26H30C30.5304 26 31.0391 25.7893 31.4142 25.4142C31.7893 25.0391 32 24.5304 32 24V6C32 5.46957 31.7893 4.96086 31.4142 4.58579C31.0391 4.21071 30.5304 4 30 4ZM31 23C31 23.5304 30.7893 24.0391 30.4142 24.4142C30.0391 24.7893 29.5304 25 29 25H3C2.46957 25 1.96086 24.7893 1.58579 24.4142C1.21071 24.0391 1 23.5304 1 23V7C1 6.46957 1.21071 5.96086 1.58579 5.58579C1.96086 5.21071 2.46957 5 3 5H10V3C10 2.46957 10.2107 1.96086 10.5858 1.58579C10.9609 1.21071 11.4696 1 12 1H20C20.5304 1 21.0391 1.21071 21.4142 1.58579C21.7893 1.96086 22 2.46957 22 3V5H29C29.5304 5 30.0391 5.21071 30.4142 5.58579C30.7893 5.96086 31 6.46957 31 7V23Z" fill="#E8BE38"/>
</svg>
