<svg width="50" height="50" viewBox="0 0 50 50" fill="none" xmlns="http://www.w3.org/2000/svg">
<rect x="0.5" y="0.5" width="49" height="49" rx="4.5" stroke="#197D7F"/>
<path d="M33.276 21.8957C32.8668 21.8957 32.4668 21.7744 32.1265 21.5471C31.7863 21.3197 31.5211 20.9966 31.3645 20.6185C31.2079 20.2405 31.167 19.8245 31.2468 19.4231C31.3266 19.0218 31.5237 18.6531 31.813 18.3638C32.1024 18.0744 32.471 17.8774 32.8724 17.7976C33.2737 17.7177 33.6897 17.7587 34.0678 17.9153C34.4458 18.0719 34.7689 18.3371 34.9963 18.6773C35.2236 19.0176 35.345 19.4176 35.345 19.8268C35.345 20.3755 35.127 20.9018 34.739 21.2898C34.351 21.6778 33.8247 21.8957 33.276 21.8957ZM33.276 18.7923C33.0714 18.7923 32.8714 18.853 32.7013 18.9666C32.5311 19.0803 32.3986 19.2419 32.3203 19.4309C32.242 19.6199 32.2215 19.8279 32.2614 20.0286C32.3013 20.2293 32.3998 20.4136 32.5445 20.5583C32.6892 20.7029 32.8735 20.8015 33.0742 20.8414C33.2748 20.8813 33.4828 20.8608 33.6719 20.7825C33.8609 20.7042 34.0225 20.5716 34.1361 20.4015C34.2498 20.2314 34.3105 20.0314 34.3105 19.8268C34.3105 19.5524 34.2015 19.2893 34.0075 19.0953C33.8135 18.9013 33.5504 18.7923 33.276 18.7923Z" fill="#197D7F"/>
<path d="M32.7578 23.1901V21.6383C32.7578 21.5012 32.8123 21.3696 32.9093 21.2726C33.0063 21.1756 33.1379 21.1211 33.2751 21.1211C33.4122 21.1211 33.5438 21.1756 33.6408 21.2726C33.7378 21.3696 33.7923 21.5012 33.7923 21.6383V23.1901C33.7923 23.3272 33.7378 23.4588 33.6408 23.5558C33.5438 23.6528 33.4122 23.7073 33.2751 23.7073C33.1379 23.7073 33.0063 23.6528 32.9093 23.5558C32.8123 23.4588 32.7578 23.3272 32.7578 23.1901Z" fill="#197D7F"/>
<path d="M33.2771 30.1716C32.8655 30.1716 32.4708 30.0081 32.1798 29.7171C31.8888 29.4261 31.7254 29.0314 31.7254 28.6199V23.4475C31.7254 23.3103 31.7798 23.1787 31.8768 23.0817C31.9738 22.9847 32.1054 22.9302 32.2426 22.9302H34.3116C34.4487 22.9302 34.5803 22.9847 34.6773 23.0817C34.7743 23.1787 34.8288 23.3103 34.8288 23.4475V28.6199C34.8288 29.0314 34.6653 29.4261 34.3743 29.7171C34.0833 30.0081 33.6886 30.1716 33.2771 30.1716ZM32.7598 23.9647V28.6199C32.7598 28.7571 32.8143 28.8886 32.9113 28.9856C33.0083 29.0826 33.1399 29.1371 33.2771 29.1371C33.4143 29.1371 33.5458 29.0826 33.6428 28.9856C33.7398 28.8886 33.7943 28.7571 33.7943 28.6199V23.9647H32.7598ZM25.5185 22.9302H16.234C15.8204 22.929 15.4238 22.7659 15.1289 22.4759C14.8341 22.1859 14.6645 21.792 14.6564 21.3785V19.3613C14.6537 19.1521 14.6924 18.9445 14.7704 18.7504C14.8484 18.5563 14.9641 18.3796 15.1108 18.2305C15.2575 18.0814 15.4323 17.9629 15.6251 17.8817C15.8178 17.8006 16.0248 17.7585 16.234 17.7578H25.5185C25.9319 17.7659 26.3258 17.9355 26.6158 18.2304C26.9058 18.5252 27.0689 18.9218 27.0702 19.3354V21.3785C27.0622 21.7876 26.8962 22.1776 26.6069 22.4669C26.3176 22.7562 25.9275 22.9223 25.5185 22.9302ZM16.2598 18.7923C16.1855 18.7847 16.1103 18.7933 16.0396 18.8176C15.9689 18.8418 15.9043 18.8811 15.8502 18.9327C15.7961 18.9843 15.7539 19.0471 15.7264 19.1166C15.6989 19.1861 15.6867 19.2608 15.6909 19.3354V21.3785C15.6908 21.4487 15.705 21.5181 15.7326 21.5826C15.7602 21.6471 15.8006 21.7053 15.8514 21.7537C15.9022 21.8021 15.9623 21.8396 16.0281 21.864C16.0939 21.8885 16.1639 21.8993 16.234 21.8957H25.5185C25.6556 21.8957 25.7872 21.8412 25.8842 21.7442C25.9812 21.6472 26.0357 21.5157 26.0357 21.3785V19.3613C26.0429 19.2891 26.0349 19.2163 26.0122 19.1474C25.9895 19.0786 25.9525 19.0152 25.9038 18.9616C25.855 18.9079 25.7955 18.8651 25.7291 18.836C25.6627 18.8068 25.591 18.7919 25.5185 18.7923H16.2598ZM16.2081 27.0682C15.9012 27.0682 15.6012 26.9771 15.346 26.8066C15.0908 26.6361 14.8919 26.3938 14.7745 26.1103C14.6571 25.8267 14.6263 25.5147 14.6862 25.2137C14.7461 24.9127 14.8939 24.6362 15.1109 24.4192C15.3279 24.2022 15.6044 24.0544 15.9054 23.9945C16.2064 23.9347 16.5184 23.9654 16.8019 24.0828C17.0855 24.2003 17.3278 24.3992 17.4983 24.6543C17.6688 24.9095 17.7598 25.2095 17.7598 25.5164C17.7598 25.928 17.5963 26.3227 17.3053 26.6137C17.0143 26.9047 16.6197 27.0682 16.2081 27.0682ZM16.2081 24.9992C16.0709 24.9992 15.9394 25.0537 15.8424 25.1507C15.7454 25.2477 15.6909 25.3793 15.6909 25.5164C15.6909 25.6536 15.7454 25.7852 15.8424 25.8822C15.9394 25.9792 16.0709 26.0337 16.2081 26.0337C16.3453 26.0337 16.4769 25.9792 16.5739 25.8822C16.6709 25.7852 16.7254 25.6536 16.7254 25.5164C16.7254 25.3793 16.6709 25.2477 16.5739 25.1507C16.4769 25.0537 16.3453 24.9992 16.2081 24.9992ZM20.8633 27.0682C20.5564 27.0682 20.2564 26.9771 20.0012 26.8066C19.746 26.6361 19.5471 26.3938 19.4297 26.1103C19.3122 25.8267 19.2815 25.5147 19.3414 25.2137C19.4012 24.9127 19.549 24.6362 19.766 24.4192C19.9831 24.2022 20.2595 24.0544 20.5606 23.9945C20.8616 23.9347 21.1736 23.9654 21.4571 24.0828C21.7406 24.2003 21.983 24.3992 22.1535 24.6543C22.324 24.9095 22.415 25.2095 22.415 25.5164C22.415 25.928 22.2515 26.3227 21.9605 26.6137C21.6695 26.9047 21.2748 27.0682 20.8633 27.0682ZM20.8633 24.9992C20.7261 24.9992 20.5945 25.0537 20.4975 25.1507C20.4005 25.2477 20.346 25.3793 20.346 25.5164C20.346 25.6536 20.4005 25.7852 20.4975 25.8822C20.5945 25.9792 20.7261 26.0337 20.8633 26.0337C21.0005 26.0337 21.132 25.9792 21.229 25.8822C21.326 25.7852 21.3805 25.6536 21.3805 25.5164C21.3805 25.3793 21.326 25.2477 21.229 25.1507C21.132 25.0537 21.0005 24.9992 20.8633 24.9992ZM25.5185 27.0682C25.2116 27.0682 24.9115 26.9771 24.6564 26.8066C24.4012 26.6361 24.2023 26.3938 24.0848 26.1103C23.9674 25.8267 23.9367 25.5147 23.9965 25.2137C24.0564 24.9127 24.2042 24.6362 24.4212 24.4192C24.6382 24.2022 24.9147 24.0544 25.2157 23.9945C25.5167 23.9347 25.8287 23.9654 26.1123 24.0828C26.3958 24.2003 26.6382 24.3992 26.8087 24.6543C26.9792 24.9095 27.0702 25.2095 27.0702 25.5164C27.0702 25.928 26.9067 26.3227 26.6157 26.6137C26.3247 26.9047 25.93 27.0682 25.5185 27.0682ZM25.5185 24.9992C25.3813 24.9992 25.2497 25.0537 25.1527 25.1507C25.0557 25.2477 25.0012 25.3793 25.0012 25.5164C25.0012 25.6536 25.0557 25.7852 25.1527 25.8822C25.2497 25.9792 25.3813 26.0337 25.5185 26.0337C25.6556 26.0337 25.7872 25.9792 25.8842 25.8822C25.9812 25.7852 26.0357 25.6536 26.0357 25.5164C26.0357 25.3793 25.9812 25.2477 25.8842 25.1507C25.7872 25.0537 25.6556 24.9992 25.5185 24.9992ZM16.2081 31.2061C15.9012 31.2061 15.6012 31.1151 15.346 30.9446C15.0908 30.7741 14.8919 30.5317 14.7745 30.2482C14.6571 29.9646 14.6263 29.6526 14.6862 29.3516C14.7461 29.0506 14.8939 28.7741 15.1109 28.5571C15.3279 28.3401 15.6044 28.1923 15.9054 28.1325C16.2064 28.0726 16.5184 28.1033 16.8019 28.2208C17.0855 28.3382 17.3278 28.5371 17.4983 28.7923C17.6688 29.0475 17.7598 29.3475 17.7598 29.6544C17.7598 30.0659 17.5963 30.4606 17.3053 30.7516C17.0143 31.0426 16.6197 31.2061 16.2081 31.2061ZM16.2081 29.1371C16.0709 29.1371 15.9394 29.1916 15.8424 29.2886C15.7454 29.3856 15.6909 29.5172 15.6909 29.6544C15.6909 29.7915 15.7454 29.9231 15.8424 30.0201C15.9394 30.1171 16.0709 30.1716 16.2081 30.1716C16.3453 30.1716 16.4769 30.1171 16.5739 30.0201C16.6709 29.9231 16.7254 29.7915 16.7254 29.6544C16.7254 29.5172 16.6709 29.3856 16.5739 29.2886C16.4769 29.1916 16.3453 29.1371 16.2081 29.1371ZM20.8633 31.2061C20.5564 31.2061 20.2564 31.1151 20.0012 30.9446C19.746 30.7741 19.5471 30.5317 19.4297 30.2482C19.3122 29.9646 19.2815 29.6526 19.3414 29.3516C19.4012 29.0506 19.549 28.7741 19.766 28.5571C19.9831 28.3401 20.2595 28.1923 20.5606 28.1325C20.8616 28.0726 21.1736 28.1033 21.4571 28.2208C21.7406 28.3382 21.983 28.5371 22.1535 28.7923C22.324 29.0475 22.415 29.3475 22.415 29.6544C22.415 30.0659 22.2515 30.4606 21.9605 30.7516C21.6695 31.0426 21.2748 31.2061 20.8633 31.2061ZM20.8633 29.1371C20.7261 29.1371 20.5945 29.1916 20.4975 29.2886C20.4005 29.3856 20.346 29.5172 20.346 29.6544C20.346 29.7915 20.4005 29.9231 20.4975 30.0201C20.5945 30.1171 20.7261 30.1716 20.8633 30.1716C21.0005 30.1716 21.132 30.1171 21.229 30.0201C21.326 29.9231 21.3805 29.7915 21.3805 29.6544C21.3805 29.5172 21.326 29.3856 21.229 29.2886C21.132 29.1916 21.0005 29.1371 20.8633 29.1371ZM25.5185 31.2061C25.2116 31.2061 24.9115 31.1151 24.6564 30.9446C24.4012 30.7741 24.2023 30.5317 24.0848 30.2482C23.9674 29.9646 23.9367 29.6526 23.9965 29.3516C24.0564 29.0506 24.2042 28.7741 24.4212 28.5571C24.6382 28.3401 24.9147 28.1923 25.2157 28.1325C25.5167 28.0726 25.8287 28.1033 26.1123 28.2208C26.3958 28.3382 26.6382 28.5371 26.8087 28.7923C26.9792 29.0475 27.0702 29.3475 27.0702 29.6544C27.0702 30.0659 26.9067 30.4606 26.6157 30.7516C26.3247 31.0426 25.93 31.2061 25.5185 31.2061ZM25.5185 29.1371C25.3813 29.1371 25.2497 29.1916 25.1527 29.2886C25.0557 29.3856 25.0012 29.5172 25.0012 29.6544C25.0012 29.7915 25.0557 29.9231 25.1527 30.0201C25.2497 30.1171 25.3813 30.1716 25.5185 30.1716C25.6556 30.1716 25.7872 30.1171 25.8842 30.0201C25.9812 29.9231 26.0357 29.7915 26.0357 29.6544C26.0357 29.5172 25.9812 29.3856 25.8842 29.2886C25.7872 29.1916 25.6556 29.1371 25.5185 29.1371Z" fill="#197D7F"/>
<path d="M36.3793 36.8966H13.6207C12.6604 36.8966 11.7395 36.5151 11.0605 35.8361C10.3815 35.1571 10 34.2361 10 33.2759V13.6207C10 12.6604 10.3815 11.7395 11.0605 11.0605C11.7395 10.3815 12.6604 10 13.6207 10H36.3793C37.3396 10 38.2605 10.3815 38.9395 11.0605C39.6185 11.7395 40 12.6604 40 13.6207V33.2759C40 34.2361 39.6185 35.1571 38.9395 35.8361C38.2605 36.5151 37.3396 36.8966 36.3793 36.8966ZM13.6207 11.0345C12.9348 11.0345 12.277 11.307 11.792 11.792C11.307 12.277 11.0345 12.9348 11.0345 13.6207V33.2759C11.0345 33.9618 11.307 34.6196 11.792 35.1046C12.277 35.5896 12.9348 35.8621 13.6207 35.8621H36.3793C37.0652 35.8621 37.723 35.5896 38.208 35.1046C38.693 34.6196 38.9655 33.9618 38.9655 33.2759V13.6207C38.9655 12.9348 38.693 12.277 38.208 11.792C37.723 11.307 37.0652 11.0345 36.3793 11.0345H13.6207Z" fill="#197D7F"/>
<path d="M12.0703 21.8958V21.3786C12.0703 21.2414 12.1248 21.1098 12.2218 21.0128C12.3188 20.9158 12.4504 20.8613 12.5876 20.8613C12.7247 20.8613 12.8563 20.9158 12.9533 21.0128C13.0503 21.1098 13.1048 21.2414 13.1048 21.3786V21.8958C13.1048 22.033 13.0503 22.1646 12.9533 22.2616C12.8563 22.3586 12.7247 22.4131 12.5876 22.4131C12.4504 22.4131 12.3188 22.3586 12.2218 22.2616C12.1248 22.1646 12.0703 22.033 12.0703 21.8958Z" fill="#197D7F"/>
<path d="M35.7858 34.827H14.2169C13.6476 34.827 13.1016 34.6008 12.699 34.1983C12.2965 33.7957 12.0703 33.2497 12.0703 32.6804V23.9649C12.0703 23.8277 12.1248 23.6962 12.2218 23.5992C12.3188 23.5022 12.4504 23.4477 12.5876 23.4477C12.7247 23.4477 12.8563 23.5022 12.9533 23.5992C13.0503 23.6962 13.1048 23.8277 13.1048 23.9649V32.6804C13.1048 32.9754 13.222 33.2582 13.4305 33.4668C13.6391 33.6753 13.9219 33.7925 14.2169 33.7925H35.7858C36.0808 33.7925 36.3636 33.6753 36.5722 33.4668C36.7807 33.2582 36.8979 32.9754 36.8979 32.6804V14.2149C36.8979 13.92 36.7807 13.6371 36.5722 13.4286C36.3636 13.22 36.0808 13.1028 35.7858 13.1028H14.2169C13.9219 13.1028 13.6391 13.22 13.4305 13.4286C13.222 13.6371 13.1048 13.92 13.1048 14.2149V19.3097C13.1048 19.4469 13.0503 19.5785 12.9533 19.6755C12.8563 19.7725 12.7247 19.827 12.5876 19.827C12.4504 19.827 12.3188 19.7725 12.2218 19.6755C12.1248 19.5785 12.0703 19.4469 12.0703 19.3097V14.2149C12.0703 13.6456 12.2965 13.0996 12.699 12.6971C13.1016 12.2945 13.6476 12.0684 14.2169 12.0684H35.7858C36.3551 12.0684 36.9011 12.2945 37.3037 12.6971C37.7062 13.0996 37.9324 13.6456 37.9324 14.2149V32.6804C37.9324 33.2497 37.7062 33.7957 37.3037 34.1983C36.9011 34.6008 36.3551 34.827 35.7858 34.827ZM16.7255 39.9994H14.6565C14.245 39.9994 13.8503 39.8359 13.5593 39.5449C13.2683 39.2539 13.1048 38.8592 13.1048 38.4477V36.3787C13.1048 36.2415 13.1593 36.11 13.2563 36.013C13.3533 35.916 13.4849 35.8615 13.622 35.8615H17.76C17.8971 35.8615 18.0287 35.916 18.1257 36.013C18.2227 36.11 18.2772 36.2415 18.2772 36.3787V38.4477C18.2772 38.8592 18.1137 39.2539 17.8227 39.5449C17.5317 39.8359 17.137 39.9994 16.7255 39.9994ZM14.1393 36.8959V38.4477C14.1393 38.5849 14.1938 38.7164 14.2908 38.8134C14.3878 38.9104 14.5193 38.9649 14.6565 38.9649H16.7255C16.8627 38.9649 16.9942 38.9104 17.0912 38.8134C17.1882 38.7164 17.2427 38.5849 17.2427 38.4477V36.8959H14.1393ZM35.3462 39.9994H33.2772C32.8657 39.9994 32.471 39.8359 32.18 39.5449C31.889 39.2539 31.7255 38.8592 31.7255 38.4477V36.3787C31.7255 36.2415 31.78 36.11 31.877 36.013C31.974 35.916 32.1055 35.8615 32.2427 35.8615H36.3807C36.5178 35.8615 36.6494 35.916 36.7464 36.013C36.8434 36.11 36.8979 36.2415 36.8979 36.3787V38.4477C36.8979 38.8592 36.7344 39.2539 36.4434 39.5449C36.1524 39.8359 35.7577 39.9994 35.3462 39.9994ZM32.76 36.8959V38.4477C32.76 38.5849 32.8145 38.7164 32.9115 38.8134C33.0085 38.9104 33.14 38.9649 33.2772 38.9649H35.3462C35.4834 38.9649 35.6149 38.9104 35.7119 38.8134C35.8089 38.7164 35.8634 38.5849 35.8634 38.4477V36.8959H32.76Z" fill="#197D7F"/>
</svg>
