<svg width="73" height="74" viewBox="0 0 73 74" fill="none" xmlns="http://www.w3.org/2000/svg">
<g filter="url(#filter0_dd_385_21007)">
<circle cx="30" cy="30" r="30" transform="matrix(-1 0 0 1 65 5.4375)" fill="white"/>
<circle cx="25" cy="25" r="24.5" transform="matrix(-1 0 0 1 60 10.4375)" stroke="#E8BE38"/>
<path d="M31.4743 37.3931L30.0648 40.1037C29.9719 40.2896 29.9874 40.5219 30.1268 40.6923C30.2662 40.8627 30.483 40.9246 30.6844 40.8472L45.4143 35.9372C45.6311 35.8752 45.7705 35.6739 45.786 35.4415C45.786 35.2247 45.6466 35.0233 45.4298 34.9304L30.8702 29.8501C30.6844 29.7881 30.4675 29.8191 30.3126 29.974L30.2816 30.005C30.1422 30.1753 30.1113 30.3922 30.2042 30.578L31.7066 33.5984H26.936C26.6572 33.5984 26.4094 33.8462 26.4094 34.125L26.4249 36.8665C26.4249 37.1453 26.6727 37.3931 26.9515 37.3931L31.4743 37.3931ZM27.4627 34.6826L32.574 34.6826C32.7289 34.6826 32.8528 34.6206 32.9457 34.5277C32.9767 34.4967 33.0077 34.4657 33.0232 34.4193C33.1161 34.2644 33.1316 34.063 33.0387 33.9081L31.7221 31.2905L43.6021 35.4261L31.5827 39.4532L32.7754 37.1143C32.8528 36.944 32.8528 36.7581 32.7599 36.6032C32.6669 36.4483 32.4966 36.3399 32.3107 36.3399L27.4472 36.3399L27.4627 34.6826Z" fill="#0A3231"/>
<path d="M31.4743 37.3931L30.0648 40.1037C29.9719 40.2896 29.9874 40.5219 30.1268 40.6923C30.2662 40.8627 30.483 40.9246 30.6844 40.8472L45.4143 35.9372C45.6311 35.8752 45.7705 35.6739 45.786 35.4415C45.786 35.2247 45.6466 35.0233 45.4298 34.9304L30.8702 29.8501C30.6844 29.7881 30.4675 29.8191 30.3126 29.974L30.2816 30.005C30.1422 30.1753 30.1113 30.3922 30.2042 30.578L31.7066 33.5984H26.936C26.6572 33.5984 26.4094 33.8462 26.4094 34.125L26.4249 36.8665C26.4249 37.1453 26.6727 37.3931 26.9515 37.3931L31.4743 37.3931ZM27.4627 34.6826L32.574 34.6826C32.7289 34.6826 32.8528 34.6206 32.9457 34.5277C32.9767 34.4967 33.0077 34.4657 33.0232 34.4193C33.1161 34.2644 33.1316 34.063 33.0387 33.9081L31.7221 31.2905L43.6021 35.4261L31.5827 39.4532L32.7754 37.1143C32.8528 36.944 32.8528 36.7581 32.7599 36.6032C32.6669 36.4483 32.4966 36.3399 32.3107 36.3399L27.4472 36.3399L27.4627 34.6826Z" fill="black" fill-opacity="0.2"/>
<path d="M31.4743 37.3931L30.0648 40.1037C29.9719 40.2896 29.9874 40.5219 30.1268 40.6923C30.2662 40.8627 30.483 40.9246 30.6844 40.8472L45.4143 35.9372C45.6311 35.8752 45.7705 35.6739 45.786 35.4415C45.786 35.2247 45.6466 35.0233 45.4298 34.9304L30.8702 29.8501C30.6844 29.7881 30.4675 29.8191 30.3126 29.974L30.2816 30.005C30.1422 30.1753 30.1113 30.3922 30.2042 30.578L31.7066 33.5984H26.936C26.6572 33.5984 26.4094 33.8462 26.4094 34.125L26.4249 36.8665C26.4249 37.1453 26.6727 37.3931 26.9515 37.3931L31.4743 37.3931ZM27.4627 34.6826L32.574 34.6826C32.7289 34.6826 32.8528 34.6206 32.9457 34.5277C32.9767 34.4967 33.0077 34.4657 33.0232 34.4193C33.1161 34.2644 33.1316 34.063 33.0387 33.9081L31.7221 31.2905L43.6021 35.4261L31.5827 39.4532L32.7754 37.1143C32.8528 36.944 32.8528 36.7581 32.7599 36.6032C32.6669 36.4483 32.4966 36.3399 32.3107 36.3399L27.4472 36.3399L27.4627 34.6826Z" fill="black" fill-opacity="0.2"/>
<path d="M31.4743 37.3931L30.0648 40.1037C29.9719 40.2896 29.9874 40.5219 30.1268 40.6923C30.2662 40.8627 30.483 40.9246 30.6844 40.8472L45.4143 35.9372C45.6311 35.8752 45.7705 35.6739 45.786 35.4415C45.786 35.2247 45.6466 35.0233 45.4298 34.9304L30.8702 29.8501C30.6844 29.7881 30.4675 29.8191 30.3126 29.974L30.2816 30.005C30.1422 30.1753 30.1113 30.3922 30.2042 30.578L31.7066 33.5984H26.936C26.6572 33.5984 26.4094 33.8462 26.4094 34.125L26.4249 36.8665C26.4249 37.1453 26.6727 37.3931 26.9515 37.3931L31.4743 37.3931ZM27.4627 34.6826L32.574 34.6826C32.7289 34.6826 32.8528 34.6206 32.9457 34.5277C32.9767 34.4967 33.0077 34.4657 33.0232 34.4193C33.1161 34.2644 33.1316 34.063 33.0387 33.9081L31.7221 31.2905L43.6021 35.4261L31.5827 39.4532L32.7754 37.1143C32.8528 36.944 32.8528 36.7581 32.7599 36.6032C32.6669 36.4483 32.4966 36.3399 32.3107 36.3399L27.4472 36.3399L27.4627 34.6826Z" fill="black" fill-opacity="0.2"/>
</g>
<defs>
<filter id="filter0_dd_385_21007" x="0" y="0.4375" width="73" height="73" filterUnits="userSpaceOnUse" color-interpolation-filters="sRGB">
<feFlood flood-opacity="0" result="BackgroundImageFix"/>
<feColorMatrix in="SourceAlpha" type="matrix" values="0 0 0 0 0 0 0 0 0 0 0 0 0 0 0 0 0 0 127 0" result="hardAlpha"/>
<feOffset dx="4" dy="4"/>
<feGaussianBlur stdDeviation="2"/>
<feComposite in2="hardAlpha" operator="out"/>
<feColorMatrix type="matrix" values="0 0 0 0 0.0392157 0 0 0 0 0.196078 0 0 0 0 0.192157 0 0 0 0.25 0"/>
<feBlend mode="normal" in2="BackgroundImageFix" result="effect1_dropShadow_385_21007"/>
<feColorMatrix in="SourceAlpha" type="matrix" values="0 0 0 0 0 0 0 0 0 0 0 0 0 0 0 0 0 0 127 0" result="hardAlpha"/>
<feOffset dx="-1" dy="-1"/>
<feGaussianBlur stdDeviation="2"/>
<feComposite in2="hardAlpha" operator="out"/>
<feColorMatrix type="matrix" values="0 0 0 0 0.0392157 0 0 0 0 0.196078 0 0 0 0 0.192157 0 0 0 0.25 0"/>
<feBlend mode="normal" in2="effect1_dropShadow_385_21007" result="effect2_dropShadow_385_21007"/>
<feBlend mode="normal" in="SourceGraphic" in2="effect2_dropShadow_385_21007" result="shape"/>
</filter>
</defs>
</svg>
