<svg width="26" height="22" viewBox="0 0 26 22" fill="none" xmlns="http://www.w3.org/2000/svg">
<path d="M23.3796 0.852373C20.0816 2.21834 5.93996 8.07597 2.03264 9.67246C-0.587792 10.6951 0.946241 11.6539 0.946241 11.6539C0.946241 11.6539 3.18309 12.4207 5.1007 12.996C7.01804 13.5712 8.04064 12.9322 8.04064 12.9322L17.0524 6.86038C20.248 4.68732 19.4812 6.4768 18.714 7.24395C17.0524 8.90585 14.3041 11.526 12.0032 13.6353C10.9806 14.53 11.4917 15.2969 11.9394 15.6805C13.601 17.0866 18.139 19.9628 18.3945 20.1544C19.7446 21.1103 22.4005 22.4862 22.8044 19.5792L24.4022 9.54487C24.9137 6.15756 25.4248 3.0257 25.4886 2.13096C25.6806 -0.0423681 23.3796 0.852373 23.3796 0.852373Z" fill="#E8BE38"/>
</svg>
