<svg width="15" height="16" viewBox="0 0 15 16" fill="none" xmlns="http://www.w3.org/2000/svg">
<g id="Walking">
<path id="Vector" fill-rule="evenodd" clip-rule="evenodd" d="M5.80459 9.954C5.90996 9.92606 6.02228 9.95506 6.10097 10.0305L7.11615 11.0042C7.20053 11.0852 7.23265 11.2065 7.19943 11.3186L6.97778 12.0665C6.92246 12.2532 6.81037 12.4181 6.65706 12.5382L5.20609 13.6748C4.7985 13.9941 4.20925 13.9225 3.88996 13.5149C3.57065 13.1073 3.64225 12.5181 4.04984 12.1988L5.26512 11.2467L5.58503 10.1673C5.616 10.0627 5.69921 9.98194 5.80459 9.954ZM6.03853 10.8367L5.83603 11.52C5.81756 11.5823 5.78021 11.6372 5.72909 11.6772L4.43525 12.6908C4.2994 12.7972 4.27553 12.9936 4.38196 13.1295C4.4884 13.2654 4.68481 13.2892 4.82068 13.1828L6.27165 12.0462C6.32275 12.0061 6.36012 11.9512 6.37856 11.8889L6.54612 11.3235L6.03853 10.8367ZM8.75025 3.875C9.26803 3.875 9.68775 3.45528 9.68775 2.9375C9.68775 2.41973 9.26803 2 8.75025 2C8.2325 2 7.81275 2.41973 7.81275 2.9375C7.81275 3.45528 8.2325 3.875 8.75025 3.875ZM8.75025 4.5C9.61318 4.5 10.3127 3.80044 10.3127 2.9375C10.3127 2.07456 9.61318 1.375 8.75025 1.375C7.88731 1.375 7.18775 2.07456 7.18775 2.9375C7.18775 3.80044 7.88731 4.5 8.75025 4.5Z" fill="white"/>
<path id="Vector_2" fill-rule="evenodd" clip-rule="evenodd" d="M6.79255 4.61383C7.23877 4.44798 7.71814 4.45773 8.14852 4.68026C8.55795 4.89195 8.83524 5.24986 9.00964 5.62442C9.07492 5.76455 9.13524 5.89542 9.19164 6.01776C9.32905 6.31583 9.44189 6.56048 9.54952 6.77433C9.70152 7.07639 9.81267 7.25333 9.9108 7.36767C9.99492 7.46567 10.0674 7.51539 10.1603 7.55167C10.27 7.59455 10.449 7.63376 10.7674 7.6433C11.2494 7.65776 11.6284 8.06023 11.614 8.54227C11.5995 9.0243 11.197 9.40336 10.715 9.38889C10.291 9.37617 9.89186 9.3217 9.52495 9.17839C9.14105 9.02842 8.83824 8.79939 8.58564 8.50511C8.55567 8.4702 8.52655 8.43452 8.49817 8.39814L8.37239 9.05555L9.73711 10.4021C9.82402 10.4879 9.89202 10.591 9.93661 10.7047L10.713 12.6827C10.8891 13.1316 10.6681 13.6383 10.2192 13.8145C9.77024 13.9907 9.26352 13.7696 9.08733 13.3207L8.37864 11.5151L5.92273 9.09183C5.73202 8.90364 5.63824 8.6383 5.66836 8.37208L5.76989 7.47505C5.49111 7.83564 5.25658 8.26895 5.09299 8.78158C4.94636 9.24101 4.45505 9.49458 3.99564 9.34795C3.53624 9.20133 3.28264 8.71002 3.42927 8.25061C3.98164 6.51995 5.2312 5.21661 6.7822 4.61773L6.78405 4.61702L6.79255 4.61383ZM7.01114 5.19933L7.00642 5.20114C5.63683 5.73027 4.52086 6.88605 4.0247 8.44064C3.98302 8.57123 4.05508 8.71086 4.18567 8.75255C4.31624 8.7942 4.45589 8.72214 4.49758 8.59155C4.80811 7.61858 5.34914 6.88267 5.98514 6.3632C6.08358 6.28283 6.22089 6.27005 6.33245 6.33089C6.44402 6.39173 6.50764 6.51411 6.49333 6.64039L6.28942 8.44236C6.28083 8.51802 6.30749 8.59345 6.3617 8.64692L8.86483 11.1168C8.89592 11.1475 8.92027 11.1844 8.93623 11.2251L9.66911 13.0924C9.71917 13.22 9.86324 13.2828 9.9908 13.2327C10.1184 13.1826 10.1812 13.0386 10.1312 12.911L9.35483 10.933C9.34214 10.9007 9.32283 10.8714 9.29811 10.847L7.81461 9.3832C7.74036 9.30995 7.70758 9.20448 7.72717 9.10205L8.03364 7.5002C8.05861 7.3697 8.16333 7.2693 8.29473 7.2498C8.42614 7.2303 8.55548 7.29602 8.61727 7.41364C8.75789 7.68145 8.89883 7.91039 9.05989 8.09805C9.25224 8.32214 9.47264 8.48698 9.75233 8.5962C10.0273 8.70361 10.3476 8.75261 10.7337 8.76417C10.8707 8.7683 10.9851 8.66055 10.9893 8.52355C10.9934 8.38655 10.8856 8.27214 10.7486 8.26801C10.3925 8.25736 10.1348 8.2127 9.93292 8.13386C9.73598 8.05692 9.58105 7.94308 9.43655 7.77477C9.28805 7.60176 9.14973 7.37027 8.9912 7.05527C8.87827 6.83086 8.76124 6.57701 8.62589 6.28339L8.62414 6.27961C8.56767 6.15711 8.5078 6.0272 8.44308 5.88826C8.30877 5.59986 8.11452 5.36626 7.86145 5.23542C7.6028 5.1017 7.30855 5.08905 7.01114 5.19933Z" fill="white"/>
</g>
</svg>
