<svg width="120" height="120" viewBox="0 0 120 120" fill="none" xmlns="http://www.w3.org/2000/svg">
<g id="Warning Sign">
<path id="Vector" d="M112.088 106.987L63.3376 9.48741C63.0266 8.86338 62.5477 8.33842 61.9549 7.97148C61.362 7.60454 60.6786 7.41016 59.9813 7.41016C59.2841 7.41016 58.6007 7.60454 58.0078 7.97148C57.4149 8.33842 56.9361 8.86338 56.6251 9.48741L7.87509 106.987C7.60869 107.536 7.47998 108.141 7.50009 108.75C7.50888 109.631 7.82751 110.48 8.40009 111.15L8.81259 111.562C9.48651 112.157 10.3515 112.49 11.2501 112.5H108.75C109.389 112.498 110.017 112.333 110.575 112.02C111.132 111.707 111.6 111.256 111.935 110.712C112.269 110.167 112.459 109.546 112.485 108.907C112.512 108.268 112.375 107.633 112.088 107.062V106.987ZM17.3251 105L60.0001 19.5374L102.675 105H17.3251Z" fill="#EC1E1E"/>
<path id="Vector_2" d="M50.625 90.8623C50.625 92.7165 51.1748 94.5291 52.205 96.0708C53.2351 97.6125 54.6993 98.8141 56.4123 99.5237C58.1254 100.233 60.0104 100.419 61.829 100.057C63.6475 99.6954 65.318 98.8025 66.6291 97.4914C67.9402 96.1803 68.8331 94.5098 69.1949 92.6913C69.5566 90.8727 69.3709 88.9877 68.6614 87.2746C67.9518 85.5616 66.7502 84.0974 65.2085 83.0673C63.6668 82.0371 61.8542 81.4873 60 81.4873C57.5136 81.4873 55.129 82.475 53.3709 84.2332C51.6127 85.9913 50.625 88.3759 50.625 90.8623ZM61.875 90.8623C61.875 91.2331 61.765 91.5957 61.559 91.904C61.353 92.2123 61.0601 92.4527 60.7175 92.5946C60.3749 92.7365 59.9979 92.7736 59.6342 92.7013C59.2705 92.6289 58.9364 92.4504 58.6742 92.1881C58.412 91.9259 58.2334 91.5918 58.161 91.2281C58.0887 90.8644 58.1258 90.4874 58.2677 90.1448C58.4096 89.8022 58.65 89.5093 58.9583 89.3033C59.2666 89.0973 59.6292 88.9873 60 88.9873C60.4973 88.9873 60.9742 89.1848 61.3258 89.5365C61.6775 89.8881 61.875 90.365 61.875 90.8623Z" fill="#EC1E1E"/>
<path id="Vector_3" d="M56.25 49.6123V72.1123C56.25 73.1069 56.6451 74.0607 57.3484 74.764C58.0516 75.4672 59.0054 75.8623 60 75.8623C60.9946 75.8623 61.9484 75.4672 62.6517 74.764C63.3549 74.0607 63.75 73.1069 63.75 72.1123V49.6123C63.75 48.6177 63.3549 47.6639 62.6517 46.9607C61.9484 46.2574 60.9946 45.8623 60 45.8623C59.0054 45.8623 58.0516 46.2574 57.3484 46.9607C56.6451 47.6639 56.25 48.6177 56.25 49.6123Z" fill="#EC1E1E"/>
</g>
</svg>
