<svg width="30" height="30" viewBox="0 0 30 30" fill="none" xmlns="http://www.w3.org/2000/svg">
<path d="M5.88186 29.6999C5.75158 29.7 5.62497 29.6567 5.52204 29.5768C5.46344 29.5329 4.12556 28.4833 2.77245 26.7558C0.958725 24.4398 0 22.002 0 19.706C0.0154692 18.1562 0.641945 16.6753 1.74327 15.5849C2.8446 14.4945 4.33177 13.8828 5.88157 13.8828C7.43136 13.8828 8.91853 14.4945 10.0199 15.5849C11.1212 16.6753 11.7477 18.1562 11.7631 19.706C11.7631 22.002 10.805 24.4398 8.99068 26.7558C7.63815 28.4833 6.29793 29.5329 6.24109 29.5768C6.13832 29.6566 6.01194 29.6999 5.88186 29.6999ZM5.88186 15.0002C4.63373 15.0012 3.43693 15.4971 2.55399 16.3793C1.67104 17.2615 1.17405 18.4578 1.17204 19.706C1.17204 23.8591 4.72389 27.3271 5.88186 28.3474C7.03924 27.3271 10.5911 23.8591 10.5911 19.706C10.5891 18.4579 10.0922 17.2617 9.20935 16.3795C8.32653 15.4973 7.12988 15.0013 5.88186 15.0002Z" fill="#E8BE38"/>
<path d="M5.88173 23.2316C5.18442 23.2313 4.50286 23.0242 3.92323 22.6365C3.34361 22.2489 2.89194 21.6981 2.62533 21.0537C2.35871 20.4094 2.28914 19.7005 2.42539 19.0166C2.56164 18.3327 2.89761 17.7046 3.39081 17.2117C3.88401 16.7187 4.51229 16.383 5.19624 16.2471C5.88018 16.1112 6.58906 16.1812 7.23326 16.4481C7.87747 16.715 8.42806 17.167 8.81543 17.7468C9.2028 18.3266 9.40956 19.0083 9.40956 19.7056C9.40816 20.6406 9.03598 21.537 8.37463 22.198C7.71329 22.859 6.81678 23.2307 5.88173 23.2316ZM5.88173 17.3521C5.4162 17.3525 4.96122 17.4909 4.57432 17.7498C4.18742 18.0087 3.88597 18.3765 3.70809 18.8067C3.5302 19.2369 3.48387 19.7102 3.57495 20.1667C3.66603 20.6232 3.89042 21.0425 4.21977 21.3715C4.54911 21.7006 4.96862 21.9245 5.42525 22.0152C5.88188 22.1058 6.35512 22.059 6.78515 21.8807C7.21518 21.7024 7.58269 21.4005 7.8412 21.0134C8.09972 20.6262 8.23764 20.1711 8.23752 19.7056C8.23644 19.0813 7.98782 18.483 7.54619 18.0418C7.10456 17.6006 6.50598 17.3526 5.88173 17.3521ZM24.1221 13.8243C23.992 13.8241 23.8656 13.7806 23.7629 13.7007C23.5718 13.5524 19.0876 10.0134 19.0876 5.33526C19.0876 4.00003 19.6181 2.71949 20.5622 1.77535C21.5064 0.831198 22.7869 0.300781 24.1221 0.300781C25.4573 0.300781 26.7379 0.831198 27.682 1.77535C28.6262 2.71949 29.1566 4.00003 29.1566 5.33526C29.1566 10.0134 24.673 13.5524 24.4819 13.7007C24.3791 13.7807 24.2525 13.8243 24.1221 13.8243ZM24.1221 1.47633C23.0988 1.47773 22.1177 1.88463 21.3937 2.60791C20.6698 3.3312 20.262 4.31191 20.2597 5.33526C20.2597 8.7242 23.1001 11.5594 24.1215 12.4694C25.14 11.5558 27.9846 8.71599 27.9846 5.33526C27.9822 4.31191 27.5744 3.3312 26.8505 2.60791C26.1266 1.88463 25.1455 1.47773 24.1221 1.47633Z" fill="#E8BE38"/>
<path d="M24.1223 7.94446C23.6063 7.94423 23.1021 7.79102 22.6732 7.50421C22.2443 7.21739 21.9101 6.80985 21.7128 6.3331C21.5155 5.85636 21.464 5.33182 21.5648 4.82581C21.6656 4.31981 21.9142 3.85504 22.2791 3.49029C22.644 3.12554 23.1089 2.87718 23.6149 2.77661C24.121 2.67604 24.6455 2.72777 25.1221 2.92527C25.5988 3.12277 26.0062 3.45717 26.2928 3.88618C26.5794 4.31519 26.7324 4.81956 26.7324 5.33551C26.7315 6.02737 26.4562 6.6906 25.9668 7.17971C25.4775 7.66881 24.8142 7.94384 24.1223 7.94446ZM24.1223 3.90094C23.8381 3.90117 23.5604 3.98566 23.3243 4.14372C23.0881 4.30177 22.9041 4.52631 22.7955 4.78892C22.687 5.05154 22.6587 5.34045 22.7144 5.61912C22.77 5.89779 22.907 6.15372 23.108 6.35453C23.3091 6.55535 23.5652 6.69204 23.8439 6.74732C24.1227 6.8026 24.4116 6.77399 24.674 6.66511C24.9365 6.55623 25.1608 6.37197 25.3186 6.13562C25.4764 5.89927 25.5605 5.62144 25.5604 5.33727C25.5601 4.95596 25.4085 4.59036 25.1388 4.32073C24.8692 4.05111 24.5036 3.8995 24.1223 3.89918V3.90094ZM24.1223 29.6998H5.88192C5.72649 29.6998 5.57744 29.638 5.46754 29.5281C5.35764 29.4182 5.2959 29.2692 5.2959 29.1138C5.2959 28.9583 5.35764 28.8093 5.46754 28.6994C5.57744 28.5895 5.72649 28.5277 5.88192 28.5277H24.1223C25.3703 28.5277 26.5673 28.032 27.4497 27.1495C28.3322 26.267 28.828 25.0701 28.828 23.822C28.828 22.574 28.3322 21.3771 27.4497 20.4946C26.5673 19.6121 25.3703 19.1163 24.1223 19.1163H17.3556C16.4984 19.1163 15.6764 18.7758 15.0703 18.1697C14.4642 17.5636 14.1237 16.7416 14.1237 15.8844C14.1237 15.0273 14.4642 14.2052 15.0703 13.5991C15.6764 12.993 16.4984 12.6525 17.3556 12.6525H24.1223C24.2777 12.6525 24.4268 12.7143 24.5367 12.8242C24.6466 12.9341 24.7083 13.0831 24.7083 13.2385C24.7083 13.394 24.6466 13.543 24.5367 13.6529C24.4268 13.7628 24.2777 13.8246 24.1223 13.8246H17.3556C16.8092 13.8246 16.2853 14.0416 15.899 14.4279C15.5127 14.8142 15.2957 15.3381 15.2957 15.8844C15.2957 16.4307 15.5127 16.9547 15.899 17.341C16.2853 17.7273 16.8092 17.9443 17.3556 17.9443H24.1223C24.8942 17.9443 25.6585 18.0963 26.3716 18.3917C27.0847 18.6871 27.7327 19.12 28.2785 19.6658C28.8243 20.2116 29.2573 20.8596 29.5526 21.5727C29.848 22.2858 30.0001 23.0501 30.0001 23.822C30.0001 24.5939 29.848 25.3582 29.5526 26.0713C29.2573 26.7845 28.8243 27.4324 28.2785 27.9782C27.7327 28.524 27.0847 28.957 26.3716 29.2524C25.6585 29.5478 24.8942 29.6998 24.1223 29.6998Z" fill="#E8BE38"/>
</svg>
